SplineFontDB: 3.0
FontName: Exo-BoldItalic
FullName: Exo Bold Italic
FamilyName: Exo
Weight: Bold
Copyright: Copyright (c) 2011 Natanael Gama (exo@ndiscovered.com), with Reserved Font Name "Exo"
Version: 1.00
ItalicAngle: 0
UnderlinePosition: -50
UnderlineWidth: 50
Ascent: 800
Descent: 200
sfntRevision: 0x00010000
LayerCount: 2
Layer: 0 0 "Back"  1
Layer: 1 0 "Fore"  0
XUID: [1021 762 1116966003 7964757]
FSType: 8
OS2Version: 0
OS2_WeightWidthSlopeOnly: 0
OS2_UseTypoMetrics: 1
CreationTime: 1317848288
ModificationTime: 1325018953
PfmFamily: 33
TTFWeight: 700
TTFWidth: 5
LineGap: 90
VLineGap: 0
OS2TypoAscent: 0
OS2TypoAOffset: 1
OS2TypoDescent: 0
OS2TypoDOffset: 1
OS2TypoLinegap: 90
OS2WinAscent: 0
OS2WinAOffset: 1
OS2WinDescent: 0
OS2WinDOffset: 1
HheadAscent: 0
HheadAOffset: 1
HheadDescent: 0
HheadDOffset: 1
OS2Vendor: 'PfEd'
Lookup: 4 0 0 "'ordn' Ordinals lookup 21"  {"'ordn' Ordinals lookup 21-1"  } ['ordn' ('DFLT' <'dflt' > 'grek' <'dflt' > 'latn' <'dflt' > ) ]
Lookup: 1 0 0 "'smcp' Lowercase to Small Capitals lookup 16"  {"'smcp' Lowercase to Small Capitals lookup 16-1" ("smcp" ) } ['smcp' ('DFLT' <'dflt' > 'grek' <'dflt' > 'latn' <'FRA ' 'dflt' > ) ]
Lookup: 1 0 0 "'c2sc' Capitals to Small Capitals in Latin lookup 17"  {"'c2sc' Capitals to Small Capitals in Latin lookup 17 subtable" ("smcp" ) } ['c2sc' ('latn' <'dflt' > ) ]
Lookup: 4 0 0 "'dlig' Discretionary Ligatures lookup 14"  {"'dlig' Discretionary Ligatures lookup 14-1"  } ['dlig' ('DFLT' <'dflt' > 'grek' <'dflt' > 'latn' <'dflt' > ) ]
Lookup: 4 0 1 "'liga' Standard Ligatures lookup 15"  {"'liga' Standard Ligatures lookup 15-1"  } ['liga' ('DFLT' <'dflt' > 'grek' <'dflt' > 'latn' <'FRA ' 'dflt' > ) ]
Lookup: 1 0 0 "'frac' Diagonal Fractions lookup 13"  {"'frac' Diagonal Fractions lookup 13-1"  } ['frac' ('DFLT' <'dflt' > 'grek' <'dflt' > 'latn' <'FRA ' 'dflt' > ) ]

StartChar: a
Encoding: 97 97 0
Width: 542
VWidth: 0
Flags: W
HStem: -5.90039 118.551<164.425 318.693>
DStem2: 389.05 162.85 506.35 1.09961 0.144928 0.989442<-24.3348 261.843>
LayerCount: 2
Fore
SplineSet
76.9502 296.7 m 0
 119 516.45 233.5 536.5 327.6 541 c 0
 404.2 545.05 525.35 528 576.35 479 c 9
 506.35 1.09961 l 17
 398.35 1.09961 l 1
 376.9 55.5996 l 17
 350.65 22.8496 280 -5.90039 216.2 -5.90039 c 3
 112.65 -5.90039 35.2998 77.7002 76.9502 296.7 c 0
213.4 271.35 m 0
 198 170.75 204.75 112.65 267.35 112.65 c 3
 325.1 112.65 356.8 131.65 389.05 162.85 c 1
 427.3 419 l 1
 395.9 430.05 350.2 434.75 320.75 428.4 c 0
 275.55 419.15 233.95 405.15 213.4 271.35 c 0
EndSplineSet
AlternateSubs2: "'salt' Access All Alternates in Latin lookup 4-1" a.salt
Substitution2: "'smcp' Lowercase to Small Capitals lookup 16-1" a.smcp
EndChar

StartChar: z
Encoding: 122 122 1
Width: 473
VWidth: 0
Flags: HW
LayerCount: 2
Fore
SplineSet
37.85 1 m 25
 55.1 117.9 l 25
 338.5 413 l 17
 89.15 413 l 1
 106.85 531 l 25
 535.85 531 l 25
 518.15 413 l 25
 246.25 119 l 17
 470 119 l 17
 471 118 451.85 1 451.85 1 c 25
 37.85 1 l 25
EndSplineSet
Substitution2: "'smcp' Lowercase to Small Capitals lookup 16-1" z.smcp
EndChar

StartChar: e
Encoding: 101 101 2
Width: 527
VWidth: 0
Flags: W
HStem: -7 112.25<217.562 460.099> 428.5 112.5<267.76 406.013>
LayerCount: 2
Fore
SplineSet
79.1 300 m 0
 110.1 463 153.6 539.9 348.6 541 c 0
 463.05 541.55 565.05 510.05 556.65 388 c 0
 541.3 145.9 247.55 192.75 210.55 207.75 c 1
 197.25 126.65 216.8 105.7 287.8 105.25 c 0
 347.3 102.55 442.85 111.55 504.9 122 c 1
 488.1 22 l 17
 407.95 -2.1 322.2 -13.6 211.15 -7 c 0
 83.7 -0.95 43.1 106 79.1 300 c 0
222.4 300.25 m 0
 222.4 300.25 396.4 271.45 413.35 368.75 c 0
 422.05 418.3 394.55 429.05 338.55 428.5 c 0
 243.9 427.4 234.8 365.95 222.4 300.25 c 0
EndSplineSet
Substitution2: "'smcp' Lowercase to Small Capitals lookup 16-1" e.smcp
EndChar

StartChar: o
Encoding: 111 111 3
Width: 557
VWidth: 0
Flags: W
HStem: -5 112.5<225.421 375.643> 425.15 112.5<269.693 416.956>
LayerCount: 2
Fore
SplineSet
77.45 271.75 m 0
 111.45 488.75 182.85 537.65 362.35 537.65 c 3
 540.25 537.65 594.05 444.45 561.95 244.25 c 0
 530.05 47.25 466.45 -5 282.65 -5 c 3
 102.4 -5 47.45 81.75 77.45 271.75 c 0
217.45 258 m 0
 195.05 122.85 221.35 107.5 295.75 107.5 c 3
 373.25 107.5 398.55 118.2 421.95 258 c 0
 444.9 398.2 429.55 425.15 346.1 425.15 c 3
 263.25 425.15 241.3 403.5 217.45 258 c 0
EndSplineSet
Substitution2: "'smcp' Lowercase to Small Capitals lookup 16-1" o.smcp
EndChar

StartChar: c
Encoding: 99 99 5
Width: 492
VWidth: 0
Flags: HW
LayerCount: 2
Fore
SplineSet
78.55 282.5 m 0
 116.5 510.75 197.6 539.65 296 539.65 c 3
 348 539.65 462 530.15 535.5 507.25 c 1
 522 420.25 l 1
 522 420.25 427.45 427.15 338.45 427.15 c 3
 274.5 427.15 245.3 421.9 217.55 263.1 c 0
 194.95 128.95 218.7 106.6 287.55 106.6 c 3
 379.55 106.6 481.1 115.95 481.1 115.95 c 1
 467.15 28.05 l 17
 388.75 -0.45 324.55 -7 214.6 -5.45 c 0
 114.25 -4.45 44.65 77.65 78.55 282.5 c 0
EndSplineSet
Substitution2: "'smcp' Lowercase to Small Capitals lookup 16-1" c.smcp
EndChar

StartChar: d
Encoding: 100 100 6
Width: 550
VWidth: 0
Flags: HW
LayerCount: 2
Fore
SplineSet
78 285 m 0
 103.2 431.95 148.2 539 295.35 539 c 3
 340.35 539 405.55 526.65 450.7 504.5 c 1
 495.6 785 l 1
 634.7 785 l 1
 510.25 0 l 1
 395.1 0 l 1
 378.5 53.5 l 17
 341.25 26.8 277.35 -6 214.3 -6 c 3
 85.85 -6 51.4 131.65 78 285 c 0
219.1 268.5 m 0
 200.3 152.75 219.15 113.65 265.25 113.65 c 3
 317.85 113.65 360.75 127.2 393.55 146.45 c 1
 435.2 409.3 l 1
 401.1 423.45 362.55 429.25 314.15 429.25 c 1
 271.75 429.25 241.15 404 219.1 268.5 c 0
EndSplineSet
AlternateSubs2: "'salt' Access All Alternates in Latin lookup 4-1" d.salt
Substitution2: "'smcp' Lowercase to Small Capitals lookup 16-1" d.smcp
EndChar

StartChar: A
Encoding: 65 65 7
Width: 688
VWidth: 0
Flags: W
HStem: 0 21G<34 198.558 531.212 678> 0 21G<34 198.558 531.212 678> 162.2 124.05<324.7 492.25> 712 20G<387.082 559.576>
DStem2: 556.25 732 451.25 551.55 0.164071 -0.986449<160.777 429.209>
LayerCount: 2
Fore
SplineSet
34 0 m 1xb0
 397 732 l 1
 556.25 732 l 1
 678 0 l 1
 534.8 0 l 1
 505.7 162.2 l 1
 268.65 162.2 l 1
 188.7 0 l 1
 34 0 l 1xb0
324.7 286.25 m 1
 492.25 286.25 l 1
 451.25 551.55 l 1
 324.7 286.25 l 1
EndSplineSet
Substitution2: "'c2sc' Capitals to Small Capitals in Latin lookup 17 subtable" a.smcp
EndChar

StartChar: p
Encoding: 112 112 8
Width: 556
VWidth: 0
Flags: HW
LayerCount: 2
Fore
SplineSet
3.25 -270 m 1
 130.2 510 l 1
 199.8 526.6 314 535.65 407.4 535.65 c 3
 550.4 535.65 587.25 407.4 562.9 244.75 c 0
 538.3 77.95 474.75 -9.1 329.85 -9.1 c 1
 284.85 -9.1 227.05 1.35 190.7 29 c 1
 142.8 -270 l 1
 3.25 -270 l 1
206.1 122.45 m 1
 231.85 107.45 273.5 96.25 317.8 102.1 c 0
 369.35 106.15 401.4 131.95 423.45 269.6 c 0
 439.75 370.1 426.35 428.65 366.55 428.65 c 2
 256.55 428.65 l 2
 206.1 122.45 l 1
EndSplineSet
AlternateSubs2: "'salt' Access All Alternates in Latin lookup 4-1" p.salt
Substitution2: "'smcp' Lowercase to Small Capitals lookup 16-1" p.smcp
EndChar

StartChar: b
Encoding: 98 98 9
Width: 556
VWidth: 0
Flags: HW
LayerCount: 2
Fore
SplineSet
45.7 0 m 1
 169.7 785 l 1
 308.8 785 l 1
 264.9 504.5 l 1
 316.95 526.65 383.35 539 428.35 539 c 3
 578.65 539 586.9 398.5 561.4 241 c 0
 534.9 80.4 483.85 -10.5 345.05 -6 c 1
 282 -4.2 223.3 26.8 194.25 53.5 c 9
 160.85 0 l 1
 45.7 0 l 1
208.75 146.45 m 1
 235.55 127.2 275.3 113.65 327.9 113.65 c 3
 377.6 113.65 404.05 151.85 421.95 268.5 c 0
 439.95 386 432.7 429.25 377.25 429.25 c 1
 328.85 429.25 289.85 423.45 250.85 409.3 c 1
 208.75 146.45 l 1
EndSplineSet
AlternateSubs2: "'salt' Access All Alternates in Latin lookup 4-1" b.salt
Substitution2: "'smcp' Lowercase to Small Capitals lookup 16-1" b.smcp
EndChar

StartChar: q
Encoding: 113 113 10
Width: 553
VWidth: 0
Flags: HW
LayerCount: 2
Fore
SplineSet
79.45 284.5 m 0
 109.2 470.1 190 539.2 316.35 539.2 c 3
 422.35 539.2 540.55 522.95 589.3 509.05 c 1
 466.4 -270 l 17
 326.4 -270 l 9
 373.4 29 l 1
 327.95 1.35 278.95 -10 233.95 -10 c 3
 80.95 -10 51.7 107.8 79.45 284.5 c 0
220 271.85 m 0
 203.35 159.85 196.6 100.3 273.8 100.3 c 3
 318.1 100.3 341.95 104.3 388.35 122 c 1
 436.9 432.2 l 2
 326.9 432.2 l 2
 250 432.2 229.55 333.2 220 271.85 c 0
EndSplineSet
Substitution2: "'smcp' Lowercase to Small Capitals lookup 16-1" q.smcp
EndChar

StartChar: n
Encoding: 110 110 11
Width: 550
VWidth: 0
Flags: HW
LayerCount: 2
Fore
SplineSet
45.7 0 m 1
 129.7 531 l 1
 242.2 531 l 1
 260.8 474.5 l 1
 311.85 507.3 359.2 540 440.2 540 c 3
 563.8 540 585.15 454.7 568.95 353.5 c 2
 512.7 0 l 9
 372.7 0 l 17
 428.95 355.7 l 2
 437.3 408.5 417.05 427.5 382 427.5 c 3
 325.65 427.5 292.45 413 246.3 381.5 c 1
 185.7 0 l 1
 45.7 0 l 1
EndSplineSet
AlternateSubs2: "'salt' Access All Alternates in Latin lookup 4-1" n.salt
Substitution2: "'smcp' Lowercase to Small Capitals lookup 16-1" n.smcp
EndChar

StartChar: i
Encoding: 105 105 12
Width: 226
VWidth: 0
Flags: W
HStem: 0 21G<42.95 186.114> 0 21G<42.95 186.114> 511 20G<123.786 266.95> 586.4 136.65<148.361 284.982>
VStem: 42.95 255.9
DStem2: 42.95 0 182.95 0 0.163792 0.986495<22.9308 537.587 614.122 736.231>
LayerCount: 2
Fore
SplineSet
42.95 0 m 1xb8
 126.95 531 l 1
 266.95 531 l 1
 182.95 0 l 1
 42.95 0 l 1xb8
133.9 609.4 m 2
 147.4 698.05 l 2
 149.4 713.05 159.4 723.05 175.4 723.05 c 2
 280.4 723.05 l 2
 295.4 723.05 300.85 712.05 298.85 698.05 c 2
 285.35 609.4 l 2
 283.35 594.4 272.9 586.4 258.9 586.4 c 2
 153.9 586.4 l 2
 139.9 586.4 131.9 595.4 133.9 609.4 c 2
EndSplineSet
Substitution2: "'smcp' Lowercase to Small Capitals lookup 16-1" i.smcp
EndChar

StartChar: h
Encoding: 104 104 13
Width: 550
VWidth: 0
Flags: W
HStem: 0 21G<45.7 188.877 372.7 515.882> 0 21G<45.7 188.877 372.7 515.882> 427.5 112.5<337.579 502> 762.9 20G<166.532 309.15>
DStem2: 45.7 0 185.7 0 0.156435 0.987688<21.901 426.322 502.221 792.659> 372.7 0 512.7 0 0.156198 0.987726<21.8677 417.083>
LayerCount: 2
Fore
SplineSet
45.7 0 m 1xb0
 169.7 782.9 l 1
 309.15 782.9 l 1
 260.25 474.5 l 1
 309.1 506.2 359.2 540 440.2 540 c 3
 563.8 540 585.15 454.7 568.95 353.5 c 2
 512.7 0 l 9
 372.7 0 l 17
 428.95 355.7 l 2
 437.3 408.5 417.5 427.5 382 427.5 c 3
 325.65 427.5 292.45 413 246.3 381.5 c 1
 185.7 0 l 1
 45.7 0 l 1xb0
EndSplineSet
Substitution2: "'smcp' Lowercase to Small Capitals lookup 16-1" h.smcp
EndChar

StartChar: u
Encoding: 117 117 14
Width: 549
VWidth: 0
Flags: HW
LayerCount: 2
Fore
SplineSet
66.1 177.5 m 2
 121.9 531 l 9
 261.9 531 l 17
 205.55 175.3 l 2
 196.3 118 218 103.5 253.05 103.5 c 3
 309.4 103.5 342.6 118 388.75 149.5 c 1
 448.9 531 l 1
 588.9 531 l 1
 504.35 0 l 1
 391.85 0 l 1
 373.8 56.5 l 1
 320.55 19.3 275.85 -9 194.85 -9 c 3
 71.25 -9 49.45 73.15 66.1 177.5 c 2
EndSplineSet
AlternateSubs2: "'salt' Access All Alternates in Latin lookup 4-1" u.salt
Substitution2: "'smcp' Lowercase to Small Capitals lookup 16-1" u.smcp
EndChar

StartChar: r
Encoding: 114 114 15
Width: 417
VWidth: 0
Flags: HW
LayerCount: 2
Fore
SplineSet
45.7 0 m 1
 129.7 531 l 1
 247.7 531 l 1
 258.7 464 l 1
 301.5 499.55 357 536.45 423.05 536.45 c 27
 446 536.45 468 535.55 481.2 530.1 c 1
 459.85 394.95 l 1
 445.65 396.3 413.65 397.65 383.55 397.65 c 27
 325.55 397.65 282.1 388.2 239.25 338.55 c 1
 185.7 0 l 1
 45.7 0 l 1
EndSplineSet
AlternateSubs2: "'salt' Access All Alternates in Latin lookup 4-1" r.salt
Substitution2: "'smcp' Lowercase to Small Capitals lookup 16-1" r.smcp
EndChar

StartChar: m
Encoding: 109 109 16
Width: 875
VWidth: 0
Flags: HW
LayerCount: 2
Fore
SplineSet
45.7 0 m 1
 129.7 531 l 1
 242.2 531 l 1
 260.8 473.6 l 1
 314.05 507.5 354.7 538.65 436.6 538.65 c 1
 502.1 538.65 545.65 509.35 560.65 466.4 c 1
 613.6 501.15 679.15 538.65 765.15 538.65 c 1
 879.3 538.65 911 459.2 893.9 351.7 c 2
 838.1 0 l 1
 698.1 0 l 1
 754.45 353.9 l 2
 762.35 403.55 740.65 426.15 706.95 426.15 c 1
 651.45 426.15 612.9 415.9 570.7 384.45 c 1
 570.15 380.05 566.35 355.75 565.8 350.8 c 2
 510 0 l 1
 370 0 l 1
 425.8 353.9 l 2
 433.7 403.55 412.1 426.15 378.4 426.15 c 1
 322.05 426.15 292 412.1 245.85 380.6 c 1
 185.7 0 l 1
 45.7 0 l 1
EndSplineSet
AlternateSubs2: "'salt' Access All Alternates in Latin lookup 4-1" m.salt
Substitution2: "'smcp' Lowercase to Small Capitals lookup 16-1" m.smcp
EndChar

StartChar: f
Encoding: 102 102 17
Width: 404
VWidth: 0
Flags: W
HStem: 0 21G<97.3 240.548> 0 21G<97.3 240.548> 424 107<323.55 434.75> 424 89.1<96.05 130.268> 679 106.55<356.3 497.009>
DStem2: 97.3 0 237.3 0 0.160367 0.987057<22.4514 429.481 560.411 703.292>
LayerCount: 2
Fore
SplineSet
81.55 424 m 1x98
 96.05 513.1 l 1x98
 183.55 531 l 1
 195.05 601.65 l 2
 216.75 738.85 269.65 785.55 387.85 785.55 c 1
 432.8 785.55 483.15 774.8 510.15 761.55 c 1
 497.1 678.45 l 1
 496.55 678.45 406.55 679 406.55 679 c 2
 348 679.55 342.7 654.05 329.55 568.65 c 2
 323.55 531 l 1
 451.7 531 l 1
 434.75 424 l 1x28
 306.15 424 l 1
 237.3 0 l 1
 97.3 0 l 1
 165.7 424 l 1
 81.55 424 l 1x98
EndSplineSet
AlternateSubs2: "'salt' Access All Alternates in Latin lookup 4-1" f.salt
Substitution2: "'smcp' Lowercase to Small Capitals lookup 16-1" f.smcp
EndChar

StartChar: l
Encoding: 108 108 18
Width: 307
VWidth: 0
Flags: W
HStem: 0 87.35<242.806 292.55> 763 20G<164.435 307.6>
DStem2: 73.6 189 217.45 211 0.156304 0.987709<-41.7327 601.392>
LayerCount: 2
Fore
SplineSet
73.6 189 m 2
 167.6 783 l 1
 307.6 783 l 1
 217.45 211 l 2
 204.2 128.5 219.45 117.65 248 107 c 2
 248 107 302.2 87.35 306.5 87.35 c 1
 292.55 0 l 1
 202.55 0 l 2
 107.55 0 52.5 53.4 73.6 189 c 2
EndSplineSet
Substitution2: "'smcp' Lowercase to Small Capitals lookup 16-1" l.smcp
EndChar

StartChar: j
Encoding: 106 106 19
Width: 243
VWidth: 0
Flags: HW
LayerCount: 2
Fore
SplineSet
9.3 -270 m 1
 136.3 531 l 1
 276.3 531 l 1
 191.3 -4 l 2
 178.3 -90 160.3 -185.7 112.3 -270 c 1
 9.3 -270 l 1
142.15 609.4 m 2
 156.65 698.05 l 2
 158.65 713.05 168.65 723.05 184.65 723.05 c 2
 289.65 723.05 l 2
 304.65 723.05 310.65 712.05 308.65 698.05 c 2
 294.15 609.4 l 2
 292.15 594.4 281.7 586.4 267.7 586.4 c 2
 162.7 586.4 l 2
 148.7 586.4 140.15 595.4 142.15 609.4 c 2
EndSplineSet
Substitution2: "'smcp' Lowercase to Small Capitals lookup 16-1" j.smcp
EndChar

StartChar: t
Encoding: 116 116 20
Width: 376
VWidth: 0
Flags: W
HStem: -0.55 87.35<293.468 344.2> 425 107<319.35 421.1>
DStem2: 125.35 189.55 268.65 211.55 0.156547 0.98767<-41.8821 238.347>
LayerCount: 2
Fore
SplineSet
76.6 425 m 1
 88.9 503 l 1
 179.35 532 l 1
 226.4 680 l 1
 342.9 680 l 1
 319.35 532 l 1
 438.05 532 l 1
 421.1 425 l 1
 302.4 425 l 1
 268.65 211.55 l 2
 255.85 127.95 270.1 117.1 298.65 106.45 c 2
 298.65 106.45 353.4 86.8 357.7 86.8 c 1
 344.2 -0.55 l 1
 247.6 -0.55 l 2
 159.95 -0.55 104.25 53.5 125.35 189.55 c 2
 162.4 425 l 1
 76.6 425 l 1
EndSplineSet
AlternateSubs2: "'salt' Access All Alternates in Latin lookup 4-1" t.salt
Substitution2: "'smcp' Lowercase to Small Capitals lookup 16-1" t.smcp
EndChar

StartChar: s
Encoding: 115 115 21
Width: 509
VWidth: 0
Flags: W
HStem: -7.25 116.35<70.8531 355.681> 204.45 121.3<225.954 366.54> 422.9 115.35<239.45 518.4>
LayerCount: 2
Fore
SplineSet
55.75 21.65 m 9
 69.7 109.1 l 17
 320.05 109.1 l 18
 329.4 109.1 355.35 110.25 360.95 142.75 c 2
 365.55 169.8 l 2
 369.35 192.15 363.65 204.45 335.05 204.45 c 10
 216.2 204.45 l 2
 122.2 204.45 68.9 256.35 84.9 358 c 10
 92.9 406.25 l 18
 106.35 490.05 150.55 538.25 253.55 538.25 c 3
 355.6 538.25 495.1 534.95 532.35 511.25 c 9
 518.4 422.9 l 17
 278.3 422.9 l 2
 242.35 422.9 234.25 405.35 231.25 386.45 c 10
 227.1 360.2 l 18
 220.5 321.25 243.65 325.75 262.85 325.75 c 2
 385.35 325.75 l 2
 486.65 325.75 520.85 254.7 508.3 177.5 c 1
 499.3 116.7 l 2
 482.3 7.7 407.5 -7.25 347.1 -7.25 c 3
 246.4 -7.25 88.9 -2.7 55.75 21.65 c 9
EndSplineSet
Substitution2: "'smcp' Lowercase to Small Capitals lookup 16-1" s.smcp
EndChar

StartChar: k
Encoding: 107 107 22
Width: 530
VWidth: 0
Flags: W
HStem: 0 21G<45.7 188.925 386.638 553.7> 0 21G<45.7 188.925 386.638 553.7> 511 20G<424.3 585.7> 762 20G<166.529 309.7>
DStem2: 45.7 0 185.7 0 0.156611 0.98766<21.9256 267.861 364.102 791.77> 391.2 288 262.85 243.8 0.491409 -0.870929<0 254.022>
LayerCount: 2
Fore
SplineSet
45.7 0 m 1xb0
 169.7 782 l 1
 309.7 782 l 1
 239 338 l 1
 316.55 366.2 411.9 445 436.7 531 c 1
 585.7 531 l 1
 549.2 399.8 452.6 320.2 391.2 288 c 1
 553.7 0 l 1
 397.7 0 l 1
 262.85 243.8 l 1
 224.85 242.8 l 9
 185.7 0 l 17
 45.7 0 l 1xb0
EndSplineSet
Substitution2: "'smcp' Lowercase to Small Capitals lookup 16-1" k.smcp
EndChar

StartChar: g
Encoding: 103 103 23
Width: 556
VWidth: 0
Flags: HW
LayerCount: 2
Fore
SplineSet
19.4 -248 m 1
 34 -155 l 1
 259 -155 l 2
 309.3 -155 349 -124 359 -60 c 2
 374.5 37.25 l 1
 329.6 10.15 281.4 -0.75 236.4 -0.75 c 3
 80.25 -0.75 52.8 119.2 80.55 295.9 c 0
 109.2 475.45 194.6 540.3 313.75 540.3 c 3
 419.75 540.3 542.2 524.05 590.95 510.15 c 1
 497.9 -76.5 l 2
 476.25 -212.6 396.75 -286.6 256.9 -272 c 2
 19.4 -248 l 1
221.1 280.65 m 0
 206.7 187.1 194.55 109.1 274.45 109.1 c 3
 318.75 109.1 342.6 113.1 389 130.8 c 1
 437.45 433.3 l 2
 329.7 433.3 l 2
 249.65 433.3 229.75 333.9 221.1 280.65 c 0
EndSplineSet
AlternateSubs2: "'salt' Access All Alternates in Latin lookup 4-1" g.salt
Substitution2: "'smcp' Lowercase to Small Capitals lookup 16-1" g.smcp
EndChar

StartChar: v
Encoding: 118 118 24
Width: 534
VWidth: 0
Flags: W
HStem: 0 21G<181.083 365.721> 0 21G<181.083 365.721> 511 20G<83.55 234.582 445.225 582.85>
VStem: 447.95 128.85<443.064 532.1>
DStem2: 289.3 155.9 355.45 0 0.456832 0.889553<0 380.298>
LayerCount: 2
Fore
SplineSet
83.55 531 m 25xb0
 231.5 531 l 17
 289.3 155.9 l 1
 415.9 420.2 l 2
 428.9 447.2 442.5 479.15 447.95 532.1 c 9
 576.8 532.1 l 17
 588.9 474.9 569.2 416.65 548.7 376.3 c 1
 355.45 0 l 9
 184.9 0 l 25
 83.55 531 l 25xb0
EndSplineSet
Substitution2: "'smcp' Lowercase to Small Capitals lookup 16-1" v.smcp
EndChar

StartChar: w
Encoding: 119 119 25
Width: 828
VWidth: 0
Flags: HW
LayerCount: 2
Fore
SplineSet
83.55 531 m 1
 230.15 531 l 1
 286.6 158.15 l 1
 413.65 418.85 l 1
 426.65 445.85 440.25 477.8 445.7 530.75 c 1
 572.3 530.75 l 1
 581.65 488.4 574.6 446.65 559.05 408.5 c 1
 542.7 370.45 l 1
 582.4 160.85 l 1
 712.6 420.2 l 1
 725.6 447.2 739.2 479.15 744.65 532.1 c 1
 871.7 532.1 l 1
 883.8 474.9 865 416.2 843.6 376.3 c 2
 642.25 0 l 1
 487.3 0 l 1
 448.55 204.1 l 1
 350.5 0 l 1
 184.9 0 l 1
 83.55 531 l 1
EndSplineSet
Substitution2: "'smcp' Lowercase to Small Capitals lookup 16-1" w.smcp
EndChar

StartChar: y
Encoding: 121 121 26
Width: 563
VWidth: 0
Flags: HW
LayerCount: 2
Fore
SplineSet
84.1 531 m 1
 229.3 531 l 1
 262.5 159.45 l 2
 266.65 120.35 304.65 121 313.45 120.45 c 1
 447.6 420.55 l 2
 459.4 448.1 467.7 479.5 473.15 532.45 c 1
 602.9 532.45 l 1
 615 475.25 597.8 416.3 579.05 374.85 c 1
 408.1 0.45 l 2
 303.35 -230.35 172.7 -273.95 91.95 -288.25 c 1
 91.95 -189.6 l 1
 181.2 -141.55 227.45 -72.65 264.45 0 c 1
 188.85 0 135.7 40.8 125.65 135.3 c 2
 84.1 531 l 1
EndSplineSet
Substitution2: "'smcp' Lowercase to Small Capitals lookup 16-1" y.smcp
EndChar

StartChar: x
Encoding: 120 120 27
Width: 572
VWidth: 0
Flags: W
HStem: 0 21G<18.5 206.93 377.482 548.7> 0 21G<18.5 206.93 377.482 548.7> 511 20G<102.5 277.746 452.354 638.45>
DStem2: 18.5 0 191.1 0 0.646187 0.763179<111.532 306.872> 343 372.1 411.15 250.2 0.629174 0.777264<0 202.217>
LayerCount: 2
Fore
SplineSet
18.5 0 m 1xa0
 244.15 274.6 l 1
 102.5 531 l 1
 268.35 531 l 1
 343 372.1 l 1
 468.1 531 l 1
 638.45 531 l 1
 411.15 250.2 l 1
 548.7 0 l 1
 387.25 0 l 1
 312.4 153.25 l 1
 191.1 0 l 1
 18.5 0 l 1xa0
EndSplineSet
AlternateSubs2: "'salt' Access All Alternates in Latin lookup 4-1" x.salt
Substitution2: "'smcp' Lowercase to Small Capitals lookup 16-1" x.smcp
EndChar

StartChar: V
Encoding: 86 86 28
Width: 685
VWidth: 0
Flags: HW
LayerCount: 2
Fore
SplineSet
139 732 m 1
 286.3 732 l 1
 359.95 184.45 l 1
 616.05 732 l 1
 772 732 l 1
 414.5 0 l 1
 252.5 0 l 1
 139 732 l 1
EndSplineSet
Substitution2: "'c2sc' Capitals to Small Capitals in Latin lookup 17 subtable" v.smcp
EndChar

StartChar: W
Encoding: 87 87 29
Width: 1010
VWidth: 0
Flags: HW
LayerCount: 2
Fore
SplineSet
139 732 m 1
 284.95 732 l 1
 360.15 190.85 l 1
 599.55 732 l 1
 749.55 732 l 1
 655.85 529.5 l 1
 706.6 188.15 l 1
 948.75 732 l 1
 1097.4 732 l 1
 761.9 0 l 1
 604.3 0 l 1
 557.6 300.85 l 1
 418.35 0 l 1
 252.5 0 l 1
 139 732 l 1
EndSplineSet
Substitution2: "'c2sc' Capitals to Small Capitals in Latin lookup 17 subtable" w.smcp
EndChar

StartChar: C
Encoding: 67 67 30
Width: 571
VWidth: 0
Flags: W
HStem: -6 129<273.971 529.805> 611 129<330.594 607.379>
LayerCount: 2
Fore
SplineSet
100.15 385.05 m 0
 137.5 618.5 208.2 740 407.2 740 c 0
 509.8 740 581.95 727.95 657.1 704.5 c 1
 639.85 594.9 l 1
 629.4 596.25 520.7 611.9 421.3 611 c 1
 350.35 610.55 279.35 615 240.15 366 c 1
 213.25 202.9 233 127.05 341.2 123 c 1
 418.75 121.65 503.9 127.05 567.8 131.55 c 1
 551 21.95 l 1
 476.45 -2.7 401.65 -7.65 291 -6 c 0
 104.75 -4.35 66.65 173.25 100.15 385.05 c 0
EndSplineSet
Substitution2: "'c2sc' Capitals to Small Capitals in Latin lookup 17 subtable" c.smcp
EndChar

StartChar: D
Encoding: 68 68 31
Width: 655
VWidth: 0
Flags: W
HStem: 0 124.85<220.45 436.143> 608.5 123.5<297.05 501.766>
DStem2: 60.75 0 220.45 124.85 0.156611 0.98766<148.32 637.998>
LayerCount: 2
Fore
SplineSet
60.75 0 m 1
 176.75 731.55 l 2
 176.75 732 446.4 732 473.4 732 c 0
 684.1 732 700.7 524.6 672.65 346.5 c 0
 633.45 96.65 543.65 0 366.75 0 c 0
 60.75 0 l 1
220.45 124.85 m 1
 367.2 124.85 l 2
 460.9 124.85 510.3 219.4 533.2 364 c 0
 563.55 554.45 526.9 608.5 438.3 608.5 c 2
 297.05 608.5 l 1
 220.45 124.85 l 1
EndSplineSet
Substitution2: "'c2sc' Capitals to Small Capitals in Latin lookup 17 subtable" d.smcp
EndChar

StartChar: O
Encoding: 79 79 32
Width: 666
VWidth: 0
Flags: W
HStem: -4 129<264.377 458.232> 608 129<332.201 530.406>
LayerCount: 2
Fore
SplineSet
103.45 374.75 m 0
 157.45 717.75 281.25 737 452.4 737 c 3
 625.85 737 743.65 684.85 691.45 347.25 c 0
 641.35 24.25 520.8 -4 343.95 -4 c 3
 172.05 -4 50.45 41.75 103.45 374.75 c 0
243.45 361 m 0
 211.8 161.2 238.3 125 359.7 125 c 3
 470.9 125 520.15 163.7 551.45 361 c 0
 587.45 589.05 542.5 608 436.65 608 c 3
 328.4 608 280 594 243.45 361 c 0
EndSplineSet
Substitution2: "'c2sc' Capitals to Small Capitals in Latin lookup 17 subtable" o.smcp
EndChar

StartChar: S
Encoding: 83 83 33
Width: 579
VWidth: 0
Flags: HW
LayerCount: 2
Fore
SplineSet
70.75 21.5 m 9
 88 131.55 l 17
 128.8 126.65 242 121 335 121 c 0
 377.1 121 427.05 129.3 435.65 184.05 c 2
 441.7 223.45 l 2
 448.5 265.05 444.2 291.75 385.8 291.75 c 10
 284.75 291.75 l 2
 109.05 291.75 111.107 428.837 119.9 488.5 c 10
 130.45 564.4 l 18
 152.7 714.35 249 738.15 359.2 738 c 0
 464.45 739.3 568.9 727.5 631.7 709.05 c 9
 614.45 599.45 l 17
 557.3 603.3 413.2 609 376.9 609 c 1
 313 610.8 279.95 604.3 269.35 538 c 10
 263.75 502.25 l 18
 253.35 437.05 278.95 431.75 332.5 431.75 c 2
 435.75 431.75 l 18
 574.7 431.75 593.6 318.65 582.25 237.75 c 2
 576.2 172.5 l 2
 561.55 0.7 428.1 -8 336.75 -8 c 3
 222.965 -8 138.75 -0.35 70.75 21.5 c 9
EndSplineSet
Substitution2: "'c2sc' Capitals to Small Capitals in Latin lookup 17 subtable" s.smcp
EndChar

StartChar: G
Encoding: 71 71 34
Width: 613
VWidth: 0
Flags: HW
LayerCount: 2
Fore
SplineSet
103.8 390.65 m 0
 146.65 624.1 206.8 739.55 405.8 739.55 c 0
 515.3 740 572.1 731.25 673.65 705.05 c 1
 656.85 597.65 l 1
 626.55 601.7 511 615.6 420.45 616.05 c 1
 342.75 616.5 279.7 593.55 245.15 366.65 c 1
 219.15 203.1 232.3 124.85 333.35 125.3 c 1
 402.55 125.3 464.1 175.35 464.1 175.35 c 9
 486 303 l 25
 383 303 l 25
 397.05 391.5 l 17
 442.9 409.65 503.3 416.5 576.05 416.5 c 0
 597.05 416.5 619.6 415.5 643.6 413.5 c 9
 577.65 0 l 17
 476.65 0 l 0
 446.3 52.6 l 1
 413.2 19.2 365.05 -3.15 286.85 -5.9 c 0
 88.2 -12.6 68.65 199.75 103.8 390.65 c 0
EndSplineSet
Substitution2: "'c2sc' Capitals to Small Capitals in Latin lookup 17 subtable" g.smcp
EndChar

StartChar: Q
Encoding: 81 81 35
Width: 668
VWidth: 0
Flags: HW
LayerCount: 2
Fore
SplineSet
105.25 377.5 m 0
 159.25 720.5 283.05 737 454.2 737 c 3
 627.65 737 745.45 682.1 693.25 344.5 c 1
 643.15 21.5 522.6 -2.9 345.75 -4 c 1
 173.85 -4 52.25 44.5 105.25 377.5 c 0
245.25 361 m 0
 213.6 161.2 240.1 125 361.5 125 c 3
 472.7 125 521.95 163.7 553.25 361 c 0
 589.25 589.05 544.3 608 438.45 608 c 3
 330.2 608 281.8 594 245.25 361 c 0
293.05 -33 m 9
 372.55 -33 l 17
 395.1 -86.35 469.4 -77.3 530.95 -61.25 c 1
 513 -174.25 l 1
 408.95 -196.3 280.4 -161.05 293.05 -33 c 9
EndSplineSet
Substitution2: "'c2sc' Capitals to Small Capitals in Latin lookup 17 subtable" q.smcp
EndChar

StartChar: M
Encoding: 77 77 36
Width: 827
VWidth: 0
Flags: W
HStem: 0 21G<49 194.929 351.304 520.28 675.35 814.994> 0 21G<49 194.929 351.304 520.28 675.35 814.994> 712 20G<224.568 422.97 656.396 861.05>
DStem2: 49 0 190.1 0 0.239413 0.970918<33.7812 536.362> 421.2 732 308.05 488.55 0.088138 -0.996108<232.53 502.054> 465.45 231.9 512.2 0 0.369564 0.929205<0 329.183> 675.35 0 813.7 0 0.0645509 0.997914<8.93061 490.201>
LayerCount: 2
Fore
SplineSet
49 0 m 1xa0
 229.5 732 l 1
 421.2 732 l 1
 465.45 231.9 l 1
 664.35 732 l 1
 861.05 732 l 1
 813.7 0 l 1
 675.35 0 l 1
 709.75 489 l 1
 512.2 0 l 1
 353.15 0 l 1
 308.05 488.55 l 1
 190.1 0 l 1
 49 0 l 1xa0
EndSplineSet
AlternateSubs2: "'salt' Access All Alternates in Latin lookup 4-1" M.salt
Substitution2: "'c2sc' Capitals to Small Capitals in Latin lookup 17 subtable" m.smcp
EndChar

StartChar: I
Encoding: 73 73 37
Width: 256
VWidth: 0
Flags: W
HStem: 0 21G<65.25 208.419> 0 21G<65.25 208.419> 712 20G<178.081 321.25>
VStem: 65.25 256
DStem2: 65.25 0 205.25 0 0.156517 0.987675<21.9124 741.134>
LayerCount: 2
Fore
SplineSet
65.25 0 m 1xb0
 181.25 732 l 1
 321.25 732 l 1
 205.25 0 l 1
 65.25 0 l 1xb0
EndSplineSet
Substitution2: "'c2sc' Capitals to Small Capitals in Latin lookup 17 subtable" i.smcp
EndChar

StartChar: J
Encoding: 74 74 38
Width: 356
VWidth: 0
Flags: HW
LayerCount: 2
Fore
SplineSet
29.75 23.2 m 1
 48.8 132.2 l 1
 138.5 124.1 190.95 123.4 207 226.05 c 1
 287.1 732 l 1
 427.1 732 l 1
 337.1 165 l 2
 330.1 118 316 50 261 18 c 0
 203 -16 76.75 -10.8 29.75 23.2 c 1
EndSplineSet
Substitution2: "'c2sc' Capitals to Small Capitals in Latin lookup 17 subtable" j.smcp
EndChar

StartChar: H
Encoding: 72 72 39
Width: 637
VWidth: 0
Flags: W
HStem: 0 21G<63 206.181 454 597.169> 0 21G<63 206.181 454 597.169> 289.5 129<268.95 500.05> 712 20G<175.831 319 566.807 710>
DStem2: 63 0 203 0 0.156517 0.987675<21.9124 315.052 445.577 741.134> 454 0 594 0 0.156517 0.987675<21.9124 293.14 423.664 741.134>
LayerCount: 2
Fore
SplineSet
63 0 m 1xb0
 179 732 l 1
 319 732 l 1
 268.95 418.5 l 1
 519.95 418.5 l 1
 570 732 l 1
 710 732 l 1
 594 0 l 1
 454 0 l 1
 500.05 289.5 l 1
 249.05 289.5 l 1
 203 0 l 1
 63 0 l 1xb0
EndSplineSet
Substitution2: "'c2sc' Capitals to Small Capitals in Latin lookup 17 subtable" h.smcp
EndChar

StartChar: E
Encoding: 69 69 40
Width: 560
VWidth: 0
Flags: HW
LayerCount: 2
Fore
SplineSet
79.3 150.5 m 2
 148.15 585.5 l 2
 168 708.8 248.3 733.8 331.45 732 c 1
 331.45 732 576.7 724.8 639.95 716 c 1
 621.6 600.25 l 1
 343.1 600.25 l 2
 292.9 600.25 286.65 571.25 282.65 544.25 c 2
 264.95 432.25 l 1
 547.85 421.7 l 1
 529.05 306.6 l 1
 243.6 297.15 l 1
 224.8 180.75 l 2
 216.7 127.75 250.25 128.75 279.25 128.75 c 2
 547.75 128.75 l 1
 528.95 14 l 1
 470.65 6.3 224.45 -3 224.45 -3 c 1
 153.867 -6.08333 59.35 24.05 79.3 150.5 c 2
EndSplineSet
Substitution2: "'c2sc' Capitals to Small Capitals in Latin lookup 17 subtable" e.smcp
EndChar

StartChar: L
Encoding: 76 76 41
Width: 529
VWidth: 0
Flags: W
HStem: 0 129<229.605 513.65> 712 20G<173.456 316.2>
DStem2: 82.5 142.5 228.55 181 0.157713 0.987485<17.4501 596.971>
LayerCount: 2
Fore
SplineSet
82.5 142.5 m 2
 176.65 732 l 1
 316.2 732 l 1
 228.55 181 l 2
 220.55 128 254 129 283 129 c 2
 534 129 l 1
 513.65 0 l 1
 212.25 0 l 2
 132.05 0 65.85 38.05 82.5 142.5 c 2
EndSplineSet
Substitution2: "'c2sc' Capitals to Small Capitals in Latin lookup 17 subtable" l.smcp
EndChar

StartChar: F
Encoding: 70 70 42
Width: 561
VWidth: 0
Flags: HW
LayerCount: 2
Fore
SplineSet
58 0 m 17
 148.6 574.5 l 2
 168.45 697.8 249.3 733.8 333 732 c 1
 333 732 578.25 724.8 641.5 716 c 1
 623.7 600.25 l 1
 345.2 600.25 l 2
 295 600.25 288.2 571.25 284.2 544.25 c 2
 266.4 430.05 l 1
 549.4 419.5 l 1
 531.6 304.4 l 1
 244.6 294.95 l 1
 198 0 l 9
 58 0 l 17
EndSplineSet
Substitution2: "'c2sc' Capitals to Small Capitals in Latin lookup 17 subtable" f.smcp
EndChar

StartChar: K
Encoding: 75 75 43
Width: 620
VWidth: 0
Flags: HW
LayerCount: 2
Fore
SplineSet
60.75 0 m 1
 176.75 732 l 1
 311.25 732 l 1
 262.55 426 l 1
 318.2 426 l 1
 549.2 732 l 1
 718.75 732 l 1
 439.5 354.85 l 1
 602.75 0 l 1
 442.8 0 l 1
 311.75 302.5 l 1
 243.85 302.5 l 9
 196.25 0 l 17
 60.75 0 l 1
EndSplineSet
Substitution2: "'c2sc' Capitals to Small Capitals in Latin lookup 17 subtable" k.smcp
EndChar

StartChar: T
Encoding: 84 84 44
Width: 588
VWidth: 0
Flags: W
HStem: 0 21G<224.25 367.408> 0 21G<224.25 367.408> 603 129<142.75 319.45 459.45 662.95>
DStem2: 224.25 0 364.25 0 0.155946 0.987766<21.8324 610.469>
LayerCount: 2
Fore
SplineSet
121.95 603 m 1xa0
 142.75 732 l 1
 683.75 732 l 1
 662.95 603 l 1
 459.45 603 l 1
 364.25 0 l 1
 224.25 0 l 1
 319.45 603 l 1
 121.95 603 l 1xa0
EndSplineSet
Substitution2: "'c2sc' Capitals to Small Capitals in Latin lookup 17 subtable" t.smcp
EndChar

StartChar: P
Encoding: 80 80 45
Width: 597
VWidth: 0
Flags: HW
LayerCount: 2
Fore
SplineSet
57.95 0 m 1
 173.95 732 l 1
 479.95 732 l 2
 571.6 732 675.85 680.15 647.25 489.75 c 0
 612.95 259.25 490.35 266.65 407 270.5 c 0
 367 272.15 249 286.15 244 289.15 c 1
 197.95 0 l 1
 57.95 0 l 1
260.25 394 m 2
 414.8 394 l 2
 459.1 394 492.4 416.7 506.25 504.6 c 1
 519.2 591.05 486.05 607.5 449.25 607.5 c 2
 294.25 607.5 l 1
 260.25 394 l 2
EndSplineSet
Substitution2: "'c2sc' Capitals to Small Capitals in Latin lookup 17 subtable" p.smcp
EndChar

StartChar: R
Encoding: 82 82 46
Width: 603
VWidth: 0
Flags: W
HStem: 0 21G<57.95 201.115 435.827 599.95> 0 21G<57.95 201.115 435.827 599.95> 288.75 109.1<261.8 336.297> 607.5 124.5<295.25 498.411>
DStem2: 57.95 0 197.95 0 0.156517 0.987675<21.9124 314.256 424.853 637.154>
LayerCount: 2
Fore
SplineSet
57.95 0 m 1xb0
 173.95 732 l 1
 483.2 732 l 2
 592.95 732 669.95 665.25 646.35 490 c 0
 622.4 307.9 531.75 293.35 496.15 288.25 c 1
 599.95 0 l 1
 441.95 0 l 1
 356.15 280.25 l 1
 243.65 288.75 l 1
 197.95 0 l 1
 57.95 0 l 1xb0
261.8 397.85 m 1
 414.05 397.85 l 2
 466.85 397.85 496.9 426.55 505.35 503.75 c 0
 514.15 587.35 497.35 607.5 449.75 607.5 c 2
 295.25 607.5 l 1
 261.8 397.85 l 1
EndSplineSet
Substitution2: "'c2sc' Capitals to Small Capitals in Latin lookup 17 subtable" r.smcp
EndChar

StartChar: U
Encoding: 85 85 47
Width: 653
VWidth: 0
Flags: HW
LayerCount: 2
Fore
SplineSet
109.95 328.4 m 2
 174.65 732 l 1
 315.1 732 l 1
 248.75 311.9 l 2
 227 174.7 246.55 124 352.8 124 c 3
 460.25 124 497 182.3 517.3 311.9 c 2
 583.65 732 l 1
 724.65 732 l 1
 661.05 295.4 l 2
 622.65 53.4 510.6 -5 334.7 -5 c 3
 186.1 -5 65.05 45.8 109.95 328.4 c 2
EndSplineSet
Substitution2: "'c2sc' Capitals to Small Capitals in Latin lookup 17 subtable" u.smcp
EndChar

StartChar: B
Encoding: 66 66 48
Width: 599
VWidth: 0
Flags: HW
LayerCount: 2
Fore
SplineSet
60.75 0 m 1
 176.75 732 l 1
 473.5 732 l 2
 625 732 664.85 630.15 649.35 524.15 c 0
 638.45 445.05 589.55 390.5 523.75 380 c 1
 576.95 371.15 623.25 302.25 609.8 198.25 c 0
 588.65 42.45 514.25 0 360.25 0 c 2
 60.75 0 l 1
220.9 123.5 m 1
 374.45 123.5 l 2
 416.95 123.5 458.05 143.65 470.45 221.4 c 0
 479.15 275.05 465.15 324.45 405.9 324.45 c 9
 252.35 324.45 l 1
 220.9 123.5 l 1
271.5 442.45 m 1
 419.55 442.45 l 2
 469.8 442.45 501.4 472.65 509.45 524.95 c 0
 520.05 592.8 487.35 608.5 446.45 608.5 c 2
 297.95 608.5 l 1
 271.5 442.45 l 1
EndSplineSet
Substitution2: "'c2sc' Capitals to Small Capitals in Latin lookup 17 subtable" b.smcp
EndChar

StartChar: N
Encoding: 78 78 49
Width: 669
VWidth: 0
Flags: HW
LayerCount: 2
Fore
SplineSet
60.75 0 m 1
 176.75 732 l 1
 316.95 732 l 1
 525 256.25 l 1
 599.75 732 l 1
 739.75 732 l 1
 623.75 0 l 0
 485.55 0 l 1
 275.95 470.25 l 1
 201.75 0 l 1
 60.75 0 l 1
EndSplineSet
AlternateSubs2: "'salt' Access All Alternates in Latin lookup 4-1" N.salt
Substitution2: "'c2sc' Capitals to Small Capitals in Latin lookup 17 subtable" n.smcp
EndChar

StartChar: X
Encoding: 88 88 50
Width: 643
VWidth: 0
Flags: W
HStem: 0 21G<32.5 205.202 450.435 611.85> 0 21G<32.5 205.202 450.435 611.85> 712 20G<145.5 306.951 563.313 736>
DStem2: 32.5 0 190.8 0 0.597332 0.801994<94.5577 388.175 607.266 912.725> 298.85 732 145.5 732 0.393161 -0.91947<0 267.521 478.928 735.82>
LayerCount: 2
Fore
SplineSet
32.5 0 m 1xa0
 303 374.45 l 1
 145.5 732 l 1
 298.85 732 l 1
 399.3 484 l 1
 577.7 732 l 1
 736 732 l 1
 458.15 348.4 l 1
 611.85 0 l 1
 458.5 0 l 1
 362.4 238.3 l 1
 190.8 0 l 1
 32.5 0 l 1xa0
EndSplineSet
AlternateSubs2: "'salt' Access All Alternates in Latin lookup 4-1" X.salt
Substitution2: "'c2sc' Capitals to Small Capitals in Latin lookup 17 subtable" x.smcp
EndChar

StartChar: Z
Encoding: 90 90 51
Width: 557
VWidth: 0
Flags: HW
LayerCount: 2
Fore
SplineSet
26.75 0 m 1
 47.55 129 l 1
 454.7 603 l 1
 121.95 603 l 1
 142.75 732 l 1
 646.75 732 l 1
 625.95 603 l 1
 229.25 129 l 1
 551.55 129 l 1
 530.75 0 l 1
 26.75 0 l 1
EndSplineSet
Substitution2: "'c2sc' Capitals to Small Capitals in Latin lookup 17 subtable" z.smcp
EndChar

StartChar: Y
Encoding: 89 89 52
Width: 656
VWidth: 0
Flags: HW
LayerCount: 2
Fore
SplineSet
139 732 m 1
 290.15 732 l 1
 374.15 382.35 l 1
 582.95 732 l 1
 743 732 l 1
 422.15 227 l 1
 386.1 0 l 1
 246.1 0 l 1
 282.15 227 l 1
 139 732 l 1
EndSplineSet
Substitution2: "'c2sc' Capitals to Small Capitals in Latin lookup 17 subtable" y.smcp
EndChar

StartChar: AE
Encoding: 198 198 59
Width: 1016
VWidth: 0
Flags: HW
LayerCount: 2
Fore
SplineSet
22.85 0 m 1
 397.05 575.4 l 2
 498.65 730.95 609.9 735.85 723.15 732 c 1
 723.15 732 970.3 724.8 1033 716 c 1
 1015.2 599.8 l 1
 735.35 599.8 l 2
 685.15 599.8 680.6 572.15 675.7 545.15 c 1
 657 427.8 l 1
 940.45 417.25 l 1
 922.65 302.15 l 1
 635.2 292.7 l 1
 617.4 179.85 l 2
 609.4 126.85 642.85 127.85 671.85 127.85 c 2
 940.35 127.85 l 1
 921.55 13.1 l 1
 863.8 5.4 619.25 -3.9 619.25 -3.9 c 2
 550.5 -7.9 451.85 18.2 468.05 122.65 c 2
 479.1 195.35 l 1
 307.8 195.35 l 1
 179.35 0 l 1
 22.85 0 l 1
386.15 318.85 m 1
 499.25 318.85 l 1
 537.65 553.1 l 1
 386.15 318.85 l 1
EndSplineSet
EndChar

StartChar: Ccedilla
Encoding: 199 199 60
Width: 571
VWidth: 0
Flags: HW
LayerCount: 2
Fore
SplineSet
100.15 385.05 m 0
 137.5 618.5 208.2 740 407.2 740 c 0
 509.8 740 581.95 727.95 657.1 704.5 c 1
 639.85 594.9 l 1
 629.4 596.25 520.7 611.9 421.3 611 c 1
 350.35 610.55 280.25 615 241.05 366 c 0
 214.15 202.9 233 127.05 341.2 123 c 1
 418.75 121.65 503.9 127.05 567.8 131.55 c 1
 551 21.95 l 1
 476.45 -2.7 401.65 -7.65 291 -6 c 0
 104.75 -4.35 66.65 173.25 100.15 385.05 c 0
175.8 -177.95 m 9
 185.65 -117.85 l 25
 231.85 -102.85 l 17
 262.3 -92.65 266.9 -74.45 272.9 -36.45 c 1
 285.5 -36.9 367.4 -36.45 367.4 -36.45 c 17
 351.4 -138.45 318.9 -177.95 232.3 -177.95 c 2
 175.8 -177.95 l 9
EndSplineSet
Substitution2: "'c2sc' Capitals to Small Capitals in Latin lookup 17 subtable" ccedilla.smcp
EndChar

StartChar: Eth
Encoding: 208 208 61
Width: 652
VWidth: 0
Flags: HW
LayerCount: 2
Fore
SplineSet
49.2 340.5 m 1
 59.85 405.5 l 1
 124.85 405.5 l 1
 176.3 731.55 l 1
 176.3 732 449.8 732 476.8 732 c 1
 687.5 732 700.7 515.25 672.65 346.5 c 0
 633.45 109.85 548.7 0 371.8 0 c 2
 60.3 0 l 1
 114.2 340.5 l 1
 49.2 340.5 l 1
220 124.85 m 1
 369.5 124.85 l 2
 459.35 124.85 509.3 219.4 532.2 364 c 0
 562.55 554.45 528.65 608.5 446.1 608.5 c 2
 296.6 608.5 l 1
 264.85 405.5 l 1
 376.35 405.5 l 1
 365.7 340.5 l 1
 254.2 340.5 l 1
 220 124.85 l 1
EndSplineSet
Substitution2: "'c2sc' Capitals to Small Capitals in Latin lookup 17 subtable" eth.smcp
EndChar

StartChar: Oslash
Encoding: 216 216 76
Width: 666
VWidth: 0
Flags: HW
LayerCount: 2
Fore
SplineSet
42.6 0 m 1
 115.6 86.25 l 1
 88 139.8 79.65 242.1 101.55 377.5 c 0
 155.55 720.5 279.9 737 451.05 737 c 0
 523.4 737 586.4 730.1 630.5 697.85 c 1
 658.85 732 l 1
 733.6 732 l 1
 669.65 655.8 l 1
 702.55 600.8 712.55 493.85 689.55 344.5 c 0
 639.45 21.5 518.9 -4 342.05 -4 c 0
 264.65 -4 197 2.45 151.45 40.45 c 1
 117.35 0 l 1
 42.6 0 l 1
241.55 361 m 0
 231.7 299 229.5 256.3 235.15 225.95 c 1
 533.55 585.5 l 1
 511.9 605.35 477.65 608 434.75 608 c 0
 326.5 608 278.1 594 241.55 361 c 0
251.15 157 m 1
 270.8 132.1 305.25 125 358.35 125 c 0
 469.55 125 518.25 163.7 549.55 361 c 0
 561.5 438.4 563.8 489.6 556.6 524.8 c 1
 251.15 157 l 1
EndSplineSet
Substitution2: "'c2sc' Capitals to Small Capitals in Latin lookup 17 subtable" oslash.smcp
EndChar

StartChar: ae
Encoding: 230 230 88
Width: 849
VWidth: 0
Flags: HW
LayerCount: 2
Fore
SplineSet
54.85 298.65 m 0
 99.15 523.35 203.8 536.5 297.9 541 c 0
 352.75 544.6 438.9 534.2 490.55 509.85 c 1
 527 529.95 568.9 540.45 636.45 541 c 0
 750.9 541.55 860.6 510.05 852.2 388 c 0
 836.85 145.9 543.65 192.75 506.65 207.75 c 1
 493.35 126.65 512.9 105.7 583.9 105.25 c 0
 643.4 102.55 733.35 111.55 795.4 122 c 1
 778.15 22 l 1
 698 -2.1 618.2 -13.6 507.15 -7 c 0
 449.2 -4.25 409.3 19.3 386.55 62.45 c 1
 344.15 13.3 251 -7 194.2 -7 c 0
 89.65 -7 12.75 85.5 54.85 298.65 c 0
191.4 270.25 m 0
 176 169.65 178.15 112 244.8 111.55 c 0
 291.45 111.1 343.85 125.6 363.2 149 c 1
 359.85 190.9 363.75 241.6 374.65 300 c 0
 383.25 346 393.4 385.95 408.95 417.4 c 1
 375.35 427.9 326.1 434.2 298.2 428.4 c 0
 253.45 419.15 211.95 404.05 191.4 270.25 c 0
517.95 300.25 m 1
 517.95 300.25 692.5 271.45 709.45 368.75 c 0
 718.15 418.3 690.1 429.05 634.1 428.5 c 0
 539.45 427.4 530.35 365.95 517.95 300.25 c 1
EndSplineSet
Substitution2: "'smcp' Lowercase to Small Capitals lookup 16-1" ae.smcp
EndChar

StartChar: ccedilla
Encoding: 231 231 89
Width: 493
VWidth: 0
Flags: HW
LayerCount: 2
Fore
SplineSet
79.45 282.5 m 0
 117.4 510.75 198.5 536.9 296.9 536.9 c 3
 348.9 536.9 453 532.9 536.4 504.5 c 1
 522.9 417.5 l 1
 522.9 417.5 428.35 424.4 339.35 424.4 c 3
 275.4 424.4 246.2 421.9 218.45 263.1 c 0
 195.85 128.95 219.6 106.6 288.45 106.6 c 3
 380.45 106.6 482 115.95 482 115.95 c 1
 468.05 28.05 l 17
 384.15 -11.45 298.5 -5.35 215.5 -5.45 c 0
 115.15 -5 45.55 77.65 79.45 282.5 c 0
128.4 -179.05 m 9
 137.7 -118.95 l 25
 184.45 -103.95 l 17
 214.45 -91.95 218.95 -75.55 224.95 -37.55 c 1
 237.55 -38 319.45 -37.55 319.45 -37.55 c 17
 303.45 -139.55 271.5 -179.05 184.9 -179.05 c 2
 128.4 -179.05 l 9
EndSplineSet
Substitution2: "'smcp' Lowercase to Small Capitals lookup 16-1" ccedilla.smcp
EndChar

StartChar: eth
Encoding: 240 240 98
Width: 539
VWidth: 0
Flags: HW
LayerCount: 2
Fore
SplineSet
70.2 273.95 m 0
 99.45 452.05 163.1 531 298.1 531 c 1
 355.45 531 l 2
 361.45 531 413.65 531 429.5 521.5 c 1
 424.15 559.25 410.8 592.85 387.5 618.3 c 1
 265.4 564.7 l 1
 246 622.5 l 1
 322.95 655.5 l 1
 287.8 668.6 242.75 669.95 199.7 668.5 c 1
 217.95 783 l 1
 333.05 783 410.45 762.9 464.7 722.9 c 1
 563.3 766.05 l 1
 583.7 708.25 l 1
 510.9 677.2 l 1
 585.3 575.1 573.45 393.05 550.2 244.8 c 0
 520 56.6 443.7 0 323.2 0 c 1
 214.1 0 l 1
 77.1 0 44.45 115.65 70.2 273.95 c 0
210.2 261.3 m 0
 192 148.8 209.25 129.2 257.1 130.1 c 1
 320.55 130.1 l 1
 366.85 129.65 391.35 144.4 410.2 261.3 c 0
 428.7 377.2 422.4 402 362.6 402 c 2
 302.75 402 l 1
 254.35 402 229.4 378.9 210.2 261.3 c 0
EndSplineSet
Substitution2: "'smcp' Lowercase to Small Capitals lookup 16-1" eth.smcp
EndChar

StartChar: oslash
Encoding: 248 248 105
Width: 559
VWidth: 0
Flags: HW
LayerCount: 2
Fore
SplineSet
27.35 0 m 1
 93.05 68.85 l 1
 68.8 110.85 65.45 185.4 78.9 270.65 c 0
 112.9 487.65 184.3 536 363.8 536 c 0
 427.4 536 475.15 526.1 508.8 504.55 c 1
 533.9 531 l 1
 610.9 531 l 1
 547.1 464.5 l 1
 574.6 419.6 578.85 338.7 563.4 244.8 c 0
 531.5 47.8 467.45 -5 283.65 -5 c 0
 215.1 -5 164.55 5.9 130 29.25 c 1
 102.1 0 l 1
 27.35 0 l 1
217.9 195.75 m 1
 412.7 405.75 l 1
 400.6 419.5 378.95 423.5 347.1 423.5 c 0
 264.25 423.5 242.75 403.5 218.9 258 c 0
 214.4 229.45 213.85 209.45 217.9 195.75 c 1
226.65 128.05 m 1
 239.65 110.5 263.1 107.5 297.2 107.5 c 0
 374.7 107.5 399.45 118.2 423.4 258 c 0
 429.8 296.7 430.45 322.7 424.7 339.95 c 1
 226.65 128.05 l 1
EndSplineSet
Substitution2: "'smcp' Lowercase to Small Capitals lookup 16-1" oslash.smcp
EndChar

StartChar: thorn
Encoding: 254 254 106
Width: 554
VWidth: 0
Flags: HW
LayerCount: 2
Fore
SplineSet
10.5 -270 m 1
 177.5 782 l 1
 317.5 782 l 1
 268.05 473.2 l 17
 305.3 499.9 374.7 534.5 437.75 534.5 c 3
 556.3 534.5 592.7 408.9 568.1 249.95 c 0
 546.5 112.55 510.05 -12.75 350.75 -12.75 c 3
 305.75 -12.75 241 -0.85 196.95 23.5 c 1
 150.5 -270 l 1
 10.5 -270 l 1
211.9 116.5 m 1
 251.4 100.1 291.65 98.35 329.25 97 c 1
 370.3 97 407.3 122.25 427.1 259.1 c 0
 443.65 375.3 424.35 417.55 381.4 415.3 c 1
 334.65 413.5 290.3 400.4 253.45 380.25 c 1
 211.9 116.5 l 1
EndSplineSet
Substitution2: "'smcp' Lowercase to Small Capitals lookup 16-1" thorn.smcp
EndChar

StartChar: Thorn
Encoding: 222 222 113
Width: 545
VWidth: 0
Flags: HW
LayerCount: 2
Fore
SplineSet
45.7 0 m 1
 83.7 243 122.7 486 160.7 729 c 1
 300.7 729 l 1
 278.7 588 l 1
 426.2 588 l 2
 497.1 588 593.5 547.3 568.2 367.85 c 0
 539.35 161.15 438.85 152.9 359 151.25 c 0
 315.7 150.15 263.05 149.7 213.15 170.7 c 1
 185.7 0 l 1
 45.7 0 l 1
229.4 274.75 m 2
 332.9 274.75 l 2
 388.5 274.75 412.35 284.15 426.75 374.25 c 1
 439.7 461.25 398 464.05 362.5 464.05 c 1
 259 464.05 l 1
 229.4 274.75 l 2
EndSplineSet
Substitution2: "'c2sc' Capitals to Small Capitals in Latin lookup 17 subtable" thorn.smcp
EndChar

StartChar: uni00B5
Encoding: 181 181 114
Width: 587
VWidth: 0
Flags: HW
LayerCount: 2
Fore
SplineSet
25.55 -270 m 1
 96.3 177.5 l 1
 152.55 531 l 1
 292.55 531 l 1
 235.75 175.3 l 2
 227.4 122.5 248.2 103.5 283.25 103.5 c 0
 339.6 103.5 372.8 118 418.95 149.5 c 1
 479.55 531 l 1
 619.55 531 l 1
 535.55 0 l 1
 423.05 0 l 1
 404.45 56.5 l 1
 358.35 31.4 319.8 5.85 268.5 -0.75 c 0
 246.25 -3.5 227.05 -1.65 208.9 3.9 c 1
 165.55 -270 l 1
 25.55 -270 l 1
EndSplineSet
EndChar

StartChar: germandbls
Encoding: 223 223 115
Width: 572
VWidth: 0
Flags: HW
LayerCount: 2
Fore
SplineSet
45.7 0 m 1
 135.7 566 l 2
 153.7 682 230.2 780.85 408.75 780.85 c 3
 696.05 780.85 658.75 541.85 543.35 435.95 c 0
 506.4 404.25 462.25 393.95 455 349.8 c 0
 443.5 281.6 604.4 297.9 584.25 169.9 c 2
 579.45 139.4 l 2
 560.7 18.85 468.3 -8 387.7 -8 c 3
 319.7 -8 276.7 3.15 242.45 11 c 9
 257.5 110.05 l 17
 292.55 107.85 332.6 104.5 370.8 104.5 c 3
 402.35 104.5 433.95 120.6 440.85 160.6 c 2
 444.55 180.55 l 1
 455.35 249.9 300.65 226.45 319.25 349.65 c 0
 329.7 419.05 354.05 443.8 429.15 491.3 c 0
 464.4 516.15 480.05 544.35 484.4 575.7 c 0
 493.85 642.5 457.2 653.5 398.5 653.5 c 3
 324.8 653.5 284.35 623.35 267.45 516.5 c 2
 185.7 0 l 1
 45.7 0 l 1
EndSplineSet
Substitution2: "'smcp' Lowercase to Small Capitals lookup 16-1" germandbls.smcp
EndChar

StartChar: asciitilde
Encoding: 126 126 116
Width: 418
VWidth: 0
Flags: HW
LayerCount: 2
Fore
SplineSet
130.1 586.3 m 17
 167.4 620.95 207.3 657.6 261.95 657.6 c 27
 305.95 657.6 321.95 622.6 361.95 622.6 c 1
 401.5 621.5 434.6 642.75 461.95 662.6 c 9
 476.4 603 l 17
 447.6 573.6 403.4 531 351.5 531 c 3
 307.6 531 283.2 566 244.2 566 c 3
 205.2 566 182 550.5 145.65 531 c 9
 130.1 586.3 l 17
EndSplineSet
EndChar

StartChar: asciicircum
Encoding: 94 94 117
Width: 384
VWidth: 0
Flags: HW
LayerCount: 2
Fore
SplineSet
121.9 531 m 1
 251.1 666.95 l 1
 355.1 666.95 l 1
 430.4 531 l 1
 338.3 531 l 1
 297.85 595.05 l 1
 232.3 531 l 1
 121.9 531 l 1
EndSplineSet
EndChar

StartChar: grave
Encoding: 96 96 118
Width: 247
VWidth: 0
Flags: HW
LayerCount: 2
Fore
SplineSet
120.6 669.5 m 25
 239.5 669.5 l 25
 316.9 531 l 25
 225.9 531 l 25
 120.6 669.5 l 25
EndSplineSet
Substitution2: "'smcp' Lowercase to Small Capitals lookup 16-1" grave.smcp
EndChar

StartChar: dieresis
Encoding: 168 168 119
Width: 447
VWidth: 0
Flags: HW
LayerCount: 2
Fore
SplineSet
129.9 582 m 0
 135 614.4 165.85 640.25 198.25 640.25 c 0
 230.65 640.25 252.5 614.4 247.4 582 c 0
 242.3 549.6 211.9 522.75 179.5 522.75 c 0
 147.1 522.75 124.8 549.6 129.9 582 c 0
384.9 582 m 0
 390 614.4 420.85 640.25 453.25 640.25 c 0
 485.65 640.25 507.5 614.4 502.4 582 c 0
 497.3 549.6 466.9 522.75 434.5 522.75 c 0
 402.1 522.75 379.8 549.6 384.9 582 c 0
EndSplineSet
Substitution2: "'smcp' Lowercase to Small Capitals lookup 16-1" dieresis.smcp
EndChar

StartChar: acute
Encoding: 180 180 120
Width: 243
VWidth: 0
Flags: HW
LayerCount: 2
Fore
SplineSet
99.05 531 m 25
 211.65 669.5 l 25
 334.15 669.5 l 25
 190.05 531 l 25
 99.05 531 l 25
EndSplineSet
Substitution2: "'smcp' Lowercase to Small Capitals lookup 16-1" acute.smcp
EndChar

StartChar: cedilla
Encoding: 184 184 121
Width: 243
VWidth: 0
Flags: HW
LayerCount: 2
Fore
SplineSet
9.9 -178.5 m 9
 19.75 -118.4 l 25
 65.95 -103.4 l 17
 95.95 -91.4 100.45 -75 106.45 -37 c 1
 200.95 -37 l 17
 184.95 -139 153 -178.5 66.4 -178.5 c 2
 9.9 -178.5 l 9
EndSplineSet
EndChar

StartChar: exclam
Encoding: 33 33 122
Width: 271
VWidth: 0
Flags: HW
LayerCount: 2
Fore
SplineSet
69.6 23 m 2
 84.1 113 l 2
 86.1 128 96.1 138 112.1 138 c 2
 200.1 138 l 2
 215.1 138 221.1 127 219.1 113 c 2
 204.6 23 l 2
 202.6 8 192.6 0 178.6 0 c 2
 90.6 0 l 2
 76.6 0 67.6 9 69.6 23 c 2
106.6 197.8 m 1
 178.1 731 l 1
 319.35 731 l 1
 220.65 197.8 l 1
 106.6 197.8 l 1
EndSplineSet
Substitution2: "'smcp' Lowercase to Small Capitals lookup 16-1" exclam.smcp
EndChar

StartChar: degree
Encoding: 176 176 123
Width: 275
VWidth: 0
Flags: HW
LayerCount: 2
Fore
SplineSet
135.9 632 m 0
 138.65 689 186.3 732.8 242.3 732.8 c 0
 298.3 732.8 341.65 689 338.9 632 c 0
 336.15 575 289.5 532.75 233.5 532.75 c 0
 177.5 532.75 133.15 575 135.9 632 c 0
193.35 632 m 25
 192.25 607.5 211.75 588.45 236.25 588.45 c 27
 260.75 588.45 280.35 607.5 281.45 632 c 25
 282.55 656.5 264.6 676.55 240.1 676.55 c 27
 215.6 676.55 194.45 656.5 193.35 632 c 25
EndSplineSet
Substitution2: "'smcp' Lowercase to Small Capitals lookup 16-1" degree.smcp
EndChar

StartChar: period
Encoding: 46 46 124
Width: 262
VWidth: 0
Flags: W
HStem: 0 138<83.0571 202.343>
VStem: 67.65 149.5
LayerCount: 2
Fore
SplineSet
67.65 23 m 2
 82.15 113 l 2
 84.15 128 94.15 138 110.15 138 c 2
 196.15 138 l 2
 214.15 138 220.15 129 217.15 113 c 2
 202.65 23 l 2
 199.65 5 188.65 0 174.65 0 c 2
 88.65 0 l 2
 74.65 0 65.65 9 67.65 23 c 2
EndSplineSet
EndChar

StartChar: periodcentered
Encoding: 183 183 125
Width: 262
VWidth: 0
Flags: HW
LayerCount: 2
Fore
SplineSet
117.45 339.7 m 2
 131.95 429.7 l 2
 133.95 444.7 143.95 454.7 159.95 454.7 c 2
 245.95 454.7 l 2
 263.95 454.7 269.95 445.7 266.95 429.7 c 2
 252.45 339.7 l 2
 249.45 321.7 238.45 316.7 224.45 316.7 c 2
 138.45 316.7 l 2
 124.45 316.7 115.45 325.7 117.45 339.7 c 2
EndSplineSet
Substitution2: "'smcp' Lowercase to Small Capitals lookup 16-1" periodcentered.smcp
EndChar

StartChar: comma
Encoding: 44 44 126
Width: 260
VWidth: 0
Flags: HW
LayerCount: 2
Fore
SplineSet
55.65 -88 m 1
 63.4 -39.5 l 0
 93.4 -40.5 96.3 -24.45 98.3 -14 c 2
 100.65 0 l 1
 89.65 0 l 2
 75.65 0 65.65 8 68.65 25 c 2
 82.15 112 l 2
 85.15 130 95.6 139 111.6 139 c 2
 195.6 139 l 2
 213.6 139 217.15 127 215.15 112 c 2
 195.65 -11 l 2
 177.9 -121.95 55.65 -88 55.65 -88 c 1
EndSplineSet
EndChar

StartChar: bullet
Encoding: 256 8226 127
Width: 307
VWidth: 0
Flags: HW
LayerCount: 2
Fore
SplineSet
115.35 321.75 m 2
 133.4 440.25 l 2
 136.4 461.25 150.4 475.25 172.4 475.25 c 2
 284.9 475.25 l 2
 309.9 475.25 316.9 462.25 313.9 440.25 c 2
 295.85 321.75 l 2
 291.85 297.75 274.85 289.75 254.85 289.75 c 2
 142.35 289.75 l 2
 122.35 289.75 112.35 301.75 115.35 321.75 c 2
EndSplineSet
Substitution2: "'smcp' Lowercase to Small Capitals lookup 16-1" bullet.smcp
EndChar

StartChar: quoteleft
Encoding: 257 8216 128
Width: 258
VWidth: 0
Flags: HW
LayerCount: 2
Fore
SplineSet
142.15 511.8 m 2
 162.65 644.35 l 2
 181.85 763.75 310.25 735.5 310.25 735.5 c 1
 300.95 680.15 l 0
 269.6 680.6 265.15 658.7 263.15 647.8 c 2
 260.25 626.95 l 1
 271.7 626.95 l 2
 286.15 626.95 296.6 618.95 293.6 601.05 c 2
 279.65 511.8 l 2
 276.65 492.9 265.2 483.45 248.3 483.45 c 2
 162.05 483.45 l 2
 143.15 483.45 139.7 496.35 142.15 511.8 c 2
EndSplineSet
Substitution2: "'smcp' Lowercase to Small Capitals lookup 16-1" quoteleft.smcp
EndChar

StartChar: quoteright
Encoding: 258 8217 129
Width: 258
VWidth: 0
Flags: HW
LayerCount: 2
Fore
SplineSet
143.15 486.1 m 1
 151.9 541.9 l 0
 183.25 541.45 187.25 563.35 189.25 574.25 c 2
 192.7 594.65 l 1
 181.25 594.65 l 2
 166.8 594.65 156.35 603.1 159.35 621 c 2
 173.75 710.25 l 2
 176.75 729.15 187.2 738.6 204.1 738.6 c 2
 290.35 738.6 l 2
 309.25 738.6 313.7 725.7 311.25 710.25 c 2
 289.75 577.7 l 2
 270.55 458.3 143.15 486.1 143.15 486.1 c 1
EndSplineSet
Substitution2: "'smcp' Lowercase to Small Capitals lookup 16-1" quoteright.smcp
EndChar

StartChar: quotesinglbase
Encoding: 259 8218 130
Width: 258
VWidth: 0
Flags: HW
LayerCount: 2
Fore
SplineSet
48.55 -109 m 1
 57.3 -53.65 l 0
 88.65 -54.1 92.65 -31.75 94.65 -20.85 c 2
 98.1 -0.45 l 1
 86.65 -0.45 l 2
 72.2 -0.45 61.75 8 64.75 25.9 c 2
 79.15 115.15 l 2
 82.15 134.05 92.6 143.5 109.5 143.5 c 2
 195.75 143.5 l 2
 214.65 143.5 219.1 130.6 216.65 115.15 c 2
 195.15 -17.4 l 2
 175.95 -136.8 48.55 -109 48.55 -109 c 1
EndSplineSet
Substitution2: "'smcp' Lowercase to Small Capitals lookup 16-1" quotesinglbase.smcp
EndChar

StartChar: quotedblleft
Encoding: 260 8220 131
Width: 423
VWidth: 0
Flags: HW
LayerCount: 2
Fore
SplineSet
136.8 510.7 m 2
 157.3 643.25 l 2
 176.5 762.65 303.9 734.4 303.9 734.4 c 1
 295.6 679.05 l 0
 264.25 679.5 259.8 657.6 257.8 646.7 c 2
 254.9 625.85 l 1
 266.35 625.85 l 2
 280.8 625.85 291.25 617.85 288.25 599.95 c 2
 274.3 510.7 l 2
 271.3 491.8 259.85 482.35 242.95 482.35 c 2
 156.7 482.35 l 2
 137.8 482.35 134.35 495.25 136.8 510.7 c 2
313.85 510.7 m 2
 334.35 643.25 l 2
 353.55 762.65 480.95 734.4 480.95 734.4 c 1
 472.65 679.05 l 0
 441.3 679.5 436.85 657.6 434.85 646.7 c 2
 431.95 625.85 l 1
 443.4 625.85 l 2
 457.85 625.85 468.3 617.85 465.3 599.95 c 2
 451.35 510.7 l 2
 448.35 491.8 436.9 482.35 420 482.35 c 2
 333.75 482.35 l 2
 314.85 482.35 311.4 495.25 313.85 510.7 c 2
EndSplineSet
Substitution2: "'smcp' Lowercase to Small Capitals lookup 16-1" quotedblleft.smcp
EndChar

StartChar: quotedblright
Encoding: 261 8221 132
Width: 424
VWidth: 0
Flags: HW
LayerCount: 2
Fore
SplineSet
137.35 485 m 1
 146.1 540.8 l 0
 177.45 540.35 181.45 562.25 183.45 573.15 c 2
 186.9 593.55 l 1
 175.45 593.55 l 2
 161 593.55 150.55 602 153.55 619.9 c 2
 167.95 709.15 l 2
 170.95 728.05 181.4 737.5 198.3 737.5 c 2
 284.55 737.5 l 2
 303.45 737.5 307.9 724.6 305.45 709.15 c 2
 283.95 576.6 l 2
 264.75 457.2 137.35 485 137.35 485 c 1
314.4 485 m 1
 323.15 540.8 l 0
 354.5 540.35 358.5 562.25 360.5 573.15 c 2
 363.95 593.55 l 1
 352.5 593.55 l 2
 338.05 593.55 327.6 602 330.6 619.9 c 2
 345 709.15 l 2
 348 728.05 358.45 737.5 375.35 737.5 c 2
 461.6 737.5 l 2
 480.5 737.5 484.95 724.6 482.5 709.15 c 2
 461 576.6 l 2
 441.8 457.2 314.4 485 314.4 485 c 1
EndSplineSet
Substitution2: "'smcp' Lowercase to Small Capitals lookup 16-1" quotedblright.smcp
EndChar

StartChar: quotedblbase
Encoding: 262 8222 133
Width: 423
VWidth: 0
Flags: HW
LayerCount: 2
Fore
SplineSet
42.75 -108.55 m 1
 51.5 -53.2 l 0
 82.85 -53.65 86.85 -31.3 88.85 -20.4 c 2
 92.3 0 l 1
 80.85 0 l 2
 66.4 0 55.95 8.45 58.95 26.35 c 2
 73.35 115.6 l 2
 76.35 134.5 86.8 143.95 103.7 143.95 c 2
 189.95 143.95 l 2
 208.85 143.95 213.3 131.05 210.85 115.6 c 2
 189.35 -16.95 l 2
 170.15 -136.35 42.75 -108.55 42.75 -108.55 c 1
219.8 -108.55 m 1
 228.55 -53.2 l 0
 259.9 -53.65 263.9 -31.3 265.9 -20.4 c 2
 269.35 0 l 1
 257.9 0 l 2
 243.45 0 233 8.45 236 26.35 c 2
 250.4 115.6 l 2
 253.4 134.5 263.85 143.95 280.75 143.95 c 2
 367 143.95 l 2
 385.9 143.95 390.35 131.05 387.9 115.6 c 2
 366.4 -16.95 l 2
 347.2 -136.35 219.8 -108.55 219.8 -108.55 c 1
EndSplineSet
Substitution2: "'smcp' Lowercase to Small Capitals lookup 16-1" quotedblbase.smcp
EndChar

StartChar: colon
Encoding: 58 58 134
Width: 263
VWidth: 0
Flags: HW
LayerCount: 2
Fore
SplineSet
67.65 23 m 2
 82.15 113 l 2
 84.15 128 94.15 138 110.15 138 c 2
 196.15 138 l 2
 214.15 138 220.15 129 217.15 113 c 2
 202.65 23 l 2
 199.65 5 188.65 0 174.65 0 c 2
 88.65 0 l 2
 74.65 0 65.65 9 67.65 23 c 2
130.15 416.45 m 2
 144.65 506.45 l 2
 146.65 521.45 156.65 531.45 172.65 531.45 c 2
 258.65 531.45 l 2
 276.65 531.45 282.1 522.45 279.1 506.45 c 2
 265.15 416.45 l 2
 262.15 398.45 250.7 393.45 236.7 393.45 c 2
 150.7 393.45 l 2
 136.7 393.45 128.15 402.45 130.15 416.45 c 2
EndSplineSet
EndChar

StartChar: semicolon
Encoding: 59 59 135
Width: 263
VWidth: 0
Flags: W
HStem: -88 48.5<63.4 95.2667> 393.9 138<146.487 265.743>
VStem: 55.65 224.9
DStem2: 68.65 25 195.65 -11 0.149421 0.988774<-19.8632 118.361 389.669 515.164>
LayerCount: 2
Fore
SplineSet
55.65 -88 m 1
 63.4 -39.5 l 0
 93.4 -40.5 96.3 -24.45 98.3 -14 c 2
 100.65 0 l 1
 89.65 0 l 2
 75.65 0 66.1 10.25 68.65 25 c 2
 82.15 112 l 2
 84.7 128.2 96.05 139 111.6 139 c 2
 195.6 139 l 2
 212.25 139 217.15 127 215.15 112 c 2
 195.65 -11 l 2
 177.9 -121.95 55.65 -88 55.65 -88 c 1
131.6 416.9 m 2
 145.55 506.9 l 2
 147.55 521.9 157.55 531.9 173.55 531.9 c 2
 259.55 531.9 l 2
 277.55 531.9 283.55 522.9 280.55 506.9 c 2
 266.6 416.9 l 2
 263.6 398.9 252.05 393.9 238.05 393.9 c 2
 152.05 393.9 l 2
 138.05 393.9 129.6 402.9 131.6 416.9 c 2
EndSplineSet
EndChar

StartChar: quotedbl
Encoding: 34 34 136
Width: 444
VWidth: 0
Flags: HW
LayerCount: 2
Fore
SplineSet
160.2 531 m 1
 169.65 665 l 1
 180.65 732 l 1
 315.6 732 l 1
 304.6 665 l 1
 273.6 531 l 1
 160.2 531 l 1
339.75 531 m 1
 350.3 665 l 1
 361.3 732 l 1
 496.25 732 l 1
 485.25 665 l 1
 454.25 531 l 1
 339.75 531 l 1
EndSplineSet
Substitution2: "'smcp' Lowercase to Small Capitals lookup 16-1" quotedbl.smcp
EndChar

StartChar: exclamdown
Encoding: 161 161 137
Width: 276
VWidth: 0
Flags: HW
LayerCount: 2
Fore
SplineSet
22.45 -269.55 m 1
 122.95 263.65 l 1
 237.55 263.65 l 1
 168.4 -269.55 l 1
 22.45 -269.55 l 1
126.65 350.9 m 2
 140.15 438.45 l 2
 142.15 452.45 154.15 460.45 168.15 461.45 c 1
 252.9 461.45 l 1
 264.9 460.45 274.9 449.45 272.9 435.45 c 2
 259.4 350.9 l 1
 256.95 338.35 249.95 326.6 234.3 324.8 c 1
 145.3 324.8 l 1
 132.3 325.25 124.55 334.15 126.65 350.9 c 2
EndSplineSet
Substitution2: "'case' Case-Sensitive Forms lookup 1-1" exclamdown.alt
Substitution2: "'smcp' Lowercase to Small Capitals lookup 16-1" exclamdown.smcp
EndChar

StartChar: zero
Encoding: 48 48 138
Width: 629
VWidth: 0
Flags: W
HStem: 0 129<230.953 446.196> 603 129<299.357 516.999>
DStem2: 80.15 178.5 224 201.05 0.157548 0.987511<-11.1701 438.633> 468.45 200.5 605.15 178.5 0.156706 0.987645<-62.054 392.201>
LayerCount: 2
Fore
SplineSet
80.15 178.5 m 10
 139.1 548 l 2
 158.75 671.25 223.25 732 341.05 732 c 2
 505.05 732 l 2
 639.25 732 679.3 644.05 664.65 553.5 c 2
 605.15 178.5 l 18
 586.15 59.5 525.1 0 410.5 0 c 2
 246.5 0 l 2
 134.05 0 61.15 58.5 80.15 178.5 c 10
224 201.05 m 2
 212.75 129.3 253.95 129 287.65 129 c 10
 384.55 129 l 18
 431.5 129 459.45 146.5 468.45 200.5 c 2
 521.35 531.5 l 2
 529.25 582.45 512.5 603 464.35 603 c 2
 359.2 603 l 2
 295.05 603 280.6 559.35 276.35 531.5 c 2
 224 201.05 l 2
EndSplineSet
Substitution2: "'dnom' Denominators lookup 0 subtable" zero.denominator
Substitution2: "'sups' Superscript lookup 2 subtable" zerosuperior
Substitution2: "'onum' Oldstyle Figures in Latin lookup 5-1" zero.oldstyle
Substitution2: "'tnum' Tabular Numbers in Latin lookup 7-1" zero.tnum
Substitution2: "'numr' Numerators lookup 9 subtable" zero.numerator
Substitution2: "'zero' Slashed Zero lookup 20-1" uni0338
Substitution2: "'sinf' Scientific Inferiors lookup 3-1" zeroinferior
Substitution2: "'frac' Diagonal Fractions lookup 13-1" zero.numerator
Substitution2: "'smcp' Lowercase to Small Capitals lookup 16-1" zero.smcp
EndChar

StartChar: one
Encoding: 49 49 139
Width: 370
VWidth: 0
Flags: W
HStem: 0 21G<170.05 313.195> 0 21G<170.05 313.195> 557.7 91.5<132.1 199.65> 712 20G<273.95 425.15>
VStem: 118.05 307.1
DStem2: 170.05 0 310.05 0 0.155332 0.987862<21.7465 595.475>
LayerCount: 2
Fore
SplineSet
118.05 557.7 m 1xb8
 132.1 649.2 l 1
 177.1 649.2 260.75 701.75 287.15 732 c 1
 425.15 732 l 1
 310.05 0 l 1
 170.05 0 l 1
 263.8 588.05 l 1
 230.7 564.9 161.25 557.7 118.05 557.7 c 1xb8
EndSplineSet
Substitution2: "'dnom' Denominators lookup 0 subtable" one.denominator
Substitution2: "'sups' Superscript lookup 2 subtable" onesuperior
Substitution2: "'onum' Oldstyle Figures in Latin lookup 5-1" one.oldstyle
Substitution2: "'tnum' Tabular Numbers in Latin lookup 7-1" one.tnum
Substitution2: "'numr' Numerators lookup 9 subtable" one.numerator
Substitution2: "'sinf' Scientific Inferiors lookup 3-1" oneinferior
Substitution2: "'frac' Diagonal Fractions lookup 13-1" one.numerator
Substitution2: "'smcp' Lowercase to Small Capitals lookup 16-1" one.smcp
EndChar

StartChar: two
Encoding: 50 50 140
Width: 586
VWidth: 0
Flags: W
HStem: 0 129<301.45 549.15> 612 130<165.814 473.56> 612 104.5<144.1 323.94>
LayerCount: 2
Fore
SplineSet
37.65 0 m 25xc0
 57.45 123 l 17
 168.95 190.95 474.35 398.8 492.65 514.75 c 1
 503.55 584.3 472.8 612 386.4 612 c 2xc0
 127.4 612 l 2
 144.1 716.5 l 1xa0
 237.65 732.25 318 742 447.15 742 c 3
 593.7 742 648.7 627.55 632.1 502.85 c 0
 612.35 342.8 380.1 185.45 301.45 129 c 9
 569.95 129 l 25
 549.15 0 l 25
 37.65 0 l 25xc0
EndSplineSet
Substitution2: "'dnom' Denominators lookup 0 subtable" two.denominator
Substitution2: "'sups' Superscript lookup 2 subtable" twosuperior
Substitution2: "'onum' Oldstyle Figures in Latin lookup 5-1" two.oldstyle
Substitution2: "'tnum' Tabular Numbers in Latin lookup 7-1" two.tnum
Substitution2: "'numr' Numerators lookup 9 subtable" two.numerator
Substitution2: "'sinf' Scientific Inferiors lookup 3-1" twoinferior
Substitution2: "'frac' Diagonal Fractions lookup 13-1" two.numerator
Substitution2: "'smcp' Lowercase to Small Capitals lookup 16-1" two.smcp
EndChar

StartChar: three
Encoding: 51 51 141
Width: 583
VWidth: 0
Flags: W
HStem: -7 130<51.7779 391.986> 21 102<48.65 130.581> 307.15 113<157.25 309.561> 605 129<169.868 464.468>
DStem2: 416.3 191.25 553.9 161 0.157841 0.987465<-54.3741 89.4212 254.657 397.859>
LayerCount: 2
Fore
SplineSet
31.85 21 m 1x70
 48.65 123 l 1x70
 302.65 123 l 2
 367.15 123 407.5 135.25 416.3 191.25 c 2
 421.35 223.3 l 2
 432.4 293.6 395.4 295.95 336.45 299.05 c 2
 138.45 307.15 l 2
 157.25 420.15 l 1
 357.25 429.05 l 2
 426.25 432.05 459 447.8 467.35 500.55 c 2
 472.85 536 l 2
 483.2 598.25 437.05 605 385.05 605 c 2
 118.05 605 l 1
 133.85 706 l 1
 226.85 737 345.35 736 462.35 734 c 0
 566.05 732 632.8 655.2 615.6 547 c 2
 606.8 494.5 l 2
 594.35 417.9 559.35 373.9 508.35 364 c 1
 560.2 345.2 573.15 279.5 561.15 203.5 c 2
 553.9 161 l 2
 535.8 45.4 460.35 -7 338.35 -7 c 0xb0
 224.35 -7 114.85 -10 31.85 21 c 1x70
EndSplineSet
Substitution2: "'dnom' Denominators lookup 0 subtable" three.denominator
Substitution2: "'sups' Superscript lookup 2 subtable" threesuperior
Substitution2: "'onum' Oldstyle Figures in Latin lookup 5-1" three.oldstyle
Substitution2: "'tnum' Tabular Numbers in Latin lookup 7-1" three.tnum
Substitution2: "'numr' Numerators lookup 9 subtable" three.numerator
Substitution2: "'sinf' Scientific Inferiors lookup 3-1" threeinferior
Substitution2: "'frac' Diagonal Fractions lookup 13-1" three.numerator
Substitution2: "'smcp' Lowercase to Small Capitals lookup 16-1" three.smcp
EndChar

StartChar: four
Encoding: 52 52 142
Width: 620
VWidth: 0
Flags: W
HStem: 159.5 133<258.55 415.3> 516 20G<496.197 616.4> 712 20G<377.144 546.8>
DStem2: 50.05 224 258.55 292.5 0.556774 0.830664<172.988 611.559> 390.7 2 532.05 2 0.156024 0.987753<22.054 159.409 316.08 463.037>
LayerCount: 2
Fore
SplineSet
50.05 224 m 1
 390.55 732 l 1
 546.8 732 l 1
 258.55 292.5 l 1
 436.1 292.5 l 1
 463.05 459.35 l 1
 507.9 536 l 1
 616.4 536 l 1
 577.45 292.5 l 1
 650.95 292.5 l 1
 634.25 184 l 1
 556.65 159.5 l 1
 532.05 2 l 1
 390.7 2 l 1
 415.3 159.5 l 1
 73.65 159.5 l 1
 50.05 224 l 1
EndSplineSet
Substitution2: "'dnom' Denominators lookup 0 subtable" four.denominator
Substitution2: "'sups' Superscript lookup 2 subtable" foursuperior
Substitution2: "'onum' Oldstyle Figures in Latin lookup 5-1" four.oldstyle
Substitution2: "'tnum' Tabular Numbers in Latin lookup 7-1" four.tnum
Substitution2: "'numr' Numerators lookup 9 subtable" four.numerator
Substitution2: "'sinf' Scientific Inferiors lookup 3-1" fourinferior
Substitution2: "'frac' Diagonal Fractions lookup 13-1" four.numerator
Substitution2: "'smcp' Lowercase to Small Capitals lookup 16-1" four.smcp
EndChar

StartChar: five
Encoding: 53 53 143
Width: 596
VWidth: 0
Flags: W
HStem: -4.45 134<78.65 419.57> 19.55 110<78.65 232.212> 339 123.95<283.776 448.894> 603 129<311.95 621.05>
LayerCount: 2
Fore
SplineSet
60.85 19.55 m 1x70
 78.65 129.55 l 1
 360.65 129.55 l 2
 425.8 129.55 439.5 172.45 443.85 200.55 c 2
 454.25 265.3 l 2
 459.25 296.5 459 339 399.4 339 c 1
 307.25 339 l 2
 272.1 339 243.25 321.85 236.45 280.5 c 1
 103.1 280.5 l 1
 196.85 732 l 17
 641.85 732 l 1
 621.05 603 l 1
 311.95 603 l 25
 278 438 l 1
 302.05 455.35 332.2 461.05 356 462.95 c 0
 393.7 466.3 439.15 463.05 459.35 462.5 c 0
 563.55 457 610.35 375.55 595.9 272.25 c 2
 580 160.05 l 2
 558 23.05 461.65 -4 366.35 -4.45 c 1xb0
 241.45 -4.9 190.85 -3.45 60.85 19.55 c 1x70
EndSplineSet
Substitution2: "'dnom' Denominators lookup 0 subtable" five.denominator
Substitution2: "'sups' Superscript lookup 2 subtable" fivesuperior
Substitution2: "'onum' Oldstyle Figures in Latin lookup 5-1" five.oldstyle
Substitution2: "'tnum' Tabular Numbers in Latin lookup 7-1" five.tnum
Substitution2: "'numr' Numerators lookup 9 subtable" five.numerator
Substitution2: "'sinf' Scientific Inferiors lookup 3-1" fiveinferior
Substitution2: "'frac' Diagonal Fractions lookup 13-1" five.numerator
Substitution2: "'smcp' Lowercase to Small Capitals lookup 16-1" five.smcp
EndChar

StartChar: six
Encoding: 54 54 144
Width: 608
VWidth: 0
Flags: W
HStem: -0.55 127.65<252.046 438.817> 321 123.5<259.869 468.668> 609 106.15<464.83 636.5>
LayerCount: 2
Fore
SplineSet
109.7 395 m 0
 151.7 660 250.85 727.55 338.25 735.25 c 0
 440.35 744.05 565.45 732 653.2 715.15 c 1
 636.5 609 l 1
 386 609 l 2
 297.25 609 270.35 501.45 257 423.5 c 1
 318.15 438.45 383 444.05 462.5 444.5 c 1
 603.55 445.4 620.6 347.65 607.2 262.5 c 2
 589.95 148 l 2
 570.3 26.1 492.9 -0.55 386.8 -0.55 c 2
 244.75 -0.55 l 2
 134.9 -0.55 59.7 80 109.7 395 c 0
240.3 321 m 1
 222.85 211.4 223.7 127.1 304.45 127.1 c 2
 383.6 127.1 l 2
 416.6 127.1 449.2 137.45 457.45 189.75 c 2
 468.2 257 l 2
 476.55 308.1 466.2 321 417.5 321 c 2
 240.3 321 l 1
EndSplineSet
Substitution2: "'dnom' Denominators lookup 0 subtable" six.denominator
Substitution2: "'sups' Superscript lookup 2 subtable" sixsuperior
Substitution2: "'onum' Oldstyle Figures in Latin lookup 5-1" six.oldstyle
Substitution2: "'tnum' Tabular Numbers in Latin lookup 7-1" six.tnum
Substitution2: "'numr' Numerators lookup 9 subtable" six.numerator
Substitution2: "'sinf' Scientific Inferiors lookup 3-1" sixinferior
Substitution2: "'frac' Diagonal Fractions lookup 13-1" six.numerator
Substitution2: "'smcp' Lowercase to Small Capitals lookup 16-1" six.smcp
EndChar

StartChar: seven
Encoding: 55 55 145
Width: 554
VWidth: 0
Flags: W
HStem: 0 21G<133.85 297.25> 0 21G<133.85 297.25> 603 129<138.85 454.05>
DStem2: 133.85 0 286.75 0 0.464847 0.885391<71.0751 682.735>
LayerCount: 2
Fore
SplineSet
118.05 603 m 1xa0
 138.85 732 l 1
 609.95 732 l 1
 637.2 667.5 l 1
 286.75 0 l 1
 133.85 0 l 1
 454.05 603 l 1
 118.05 603 l 1xa0
EndSplineSet
Substitution2: "'dnom' Denominators lookup 0 subtable" seven.denominator
Substitution2: "'sups' Superscript lookup 2 subtable" sevensuperior
Substitution2: "'onum' Oldstyle Figures in Latin lookup 5-1" seven.oldstyle
Substitution2: "'tnum' Tabular Numbers in Latin lookup 7-1" seven.tnum
Substitution2: "'numr' Numerators lookup 9 subtable" seven.numerator
Substitution2: "'sinf' Scientific Inferiors lookup 3-1" seveninferior
Substitution2: "'frac' Diagonal Fractions lookup 13-1" seven.numerator
Substitution2: "'smcp' Lowercase to Small Capitals lookup 16-1" seven.smcp
EndChar

StartChar: percent
Encoding: 37 37 146
Width: 964
VWidth: 0
Flags: HW
LayerCount: 2
Fore
SplineSet
106.75 487.75 m 2
 126.1 609.75 l 2
 139.1 693.85 175.65 732 281.15 732 c 2
 382.15 732 l 2
 474.75 732 507.55 682.6 494.1 594.9 c 2
 474.75 472.9 l 18
 460.85 384.3 422.5 349 320.15 349 c 2
 219.15 349 l 2
 131.5 349 93.75 403.2 106.75 487.75 c 2
207.5 496 m 2
 202.25 461.85 208.55 447 247.85 447 c 2
 321.35 447 l 2
 364.8 447 374.25 462.3 379.5 496 c 10
 393.35 585 l 2
 399.7 625.2 391.85 634 352.9 634 c 2
 279.4 634 l 2
 241.2 634 227.25 623.95 221.35 585 c 2
 207.5 496 l 2
206.3 0 m 1
 769.1 732 l 1
 869.25 732 l 1
 310.3 0 l 1
 206.3 0 l 1
586.85 137.65 m 2
 605.65 259.65 l 2
 618.65 343.75 654.65 384.65 760.15 384.65 c 2
 861.7 384.65 l 2
 954.3 384.65 986.55 333.6 973.65 245.9 c 2
 955.4 123.9 l 18
 941.5 35.3 901.6 1.65 799.25 1.65 c 2
 697.7 1.65 l 2
 610.05 1.65 573.85 53.1 586.85 137.65 c 2
687.05 148.65 m 2
 681.8 114.5 688.2 99.65 727.5 99.65 c 2
 800.45 99.65 l 2
 843.9 99.65 853.8 114.95 859.05 148.65 c 10
 872.9 237.65 l 2
 879.25 277.85 870.95 286.65 832 286.65 c 2
 759.05 286.65 l 2
 720.85 286.65 706.8 276.6 700.9 237.65 c 2
 687.05 148.65 l 2
EndSplineSet
Substitution2: "'smcp' Lowercase to Small Capitals lookup 16-1" percent.smcp
EndChar

StartChar: nine
Encoding: 57 57 147
Width: 607
VWidth: 0
Flags: W
HStem: 19.55 106.15<88.95 247.547> 290.2 123.5<257.158 466.13> 607.6 127.65<285.579 472.97>
LayerCount: 2
Fore
SplineSet
72.25 19.55 m 1
 88.95 125.7 l 1
 339.45 125.7 l 2
 428.2 125.7 455.65 233.25 469 311.2 c 1
 407.85 296.25 342.45 290.65 262.95 290.2 c 1
 121.9 289.3 105.95 392.55 119.35 477.7 c 2
 135.5 581.2 l 2
 154.6 703.1 231.45 735.25 337.55 735.25 c 2
 479.6 735.25 l 2
 592.75 735.25 665.2 643.7 615.2 328.7 c 0
 573.2 63.7 475.15 7.15 387.75 -0.55 c 0
 285.65 -9.35 166.75 0 72.25 19.55 c 1
257.8 477.7 m 2
 249.45 426.6 259.25 413.7 307.95 413.7 c 2
 485.15 413.7 l 1
 502.6 523.3 501.2 607.6 420.45 607.6 c 2
 341.85 607.6 l 2
 308.85 607.6 276.25 597.25 268 544.95 c 2
 257.8 477.7 l 2
EndSplineSet
Substitution2: "'dnom' Denominators lookup 0 subtable" nine.denominator
Substitution2: "'sups' Superscript lookup 2 subtable" ninesuperior
Substitution2: "'onum' Oldstyle Figures in Latin lookup 5-1" nine.oldstyle
Substitution2: "'tnum' Tabular Numbers in Latin lookup 7-1" nine.tnum
Substitution2: "'numr' Numerators lookup 9 subtable" nine.numerator
Substitution2: "'sinf' Scientific Inferiors lookup 3-1" nineinferior
Substitution2: "'frac' Diagonal Fractions lookup 13-1" nine.numerator
Substitution2: "'smcp' Lowercase to Small Capitals lookup 16-1" nine.smcp
EndChar

StartChar: eight
Encoding: 56 56 148
Width: 623
VWidth: 0
Flags: W
HStem: 0 123.5<234.548 438.49> 315 117<279.134 462.761> 613.5 123.5<302.029 510.995>
DStem2: 83.05 178.75 225.35 183.45 0.156532 0.987673<-19.6057 148.706 294.898 454.181> 456.85 183.45 595.1 160.05 0.15668 0.987649<-53.289 116.445 267.587 417.832>
LayerCount: 2
Fore
SplineSet
83.05 178.75 m 2
 94.2 252 l 2
 104 312.8 142.8 348.55 195.75 355.75 c 1
 128.65 386 126.3 454.85 135.4 510 c 2
 145.85 575 l 2
 167.4 712.75 252.35 737 359.85 737 c 2
 511.35 737 l 2
 620.8 737 676 672.35 657.35 552.45 c 2
 648.55 499 l 2
 645.45 474.25 622.35 404.8 552.75 393.1 c 1
 613.9 377.85 615.9 288.95 608.45 245.95 c 2
 595.1 160.05 l 2
 570.45 6.5 481.35 0 393.35 0 c 2
 242.85 0 l 2
 62.75 0 74.85 126.9 83.05 178.75 c 2
225.35 183.45 m 2
 218 138.1 235.2 123.5 287.3 123.5 c 2
 381.15 123.5 l 2
 422.9 123.5 450.6 141.05 456.85 183.45 c 2
 467.8 252.7 l 2
 474.05 292.65 455.85 315 414.6 315 c 2
 313.35 315 l 2
 269.55 315 243 295.45 236.3 252.7 c 2
 225.35 183.45 l 2
274.4 494 m 2
 266.15 442.4 297.5 432 331.5 432 c 2
 431.65 432 l 2
 488.7 432 500.45 461.3 505.9 494 c 2
 513.05 541.1 l 2
 523.3 603.5 501.2 613.5 459.2 613.5 c 2
 364.9 613.5 l 2
 311.05 613.5 290.35 597.9 281.55 541.1 c 2
 274.4 494 l 2
EndSplineSet
Substitution2: "'dnom' Denominators lookup 0 subtable" eight.denominator
Substitution2: "'sups' Superscript lookup 2 subtable" eightsuperior
Substitution2: "'onum' Oldstyle Figures in Latin lookup 5-1" eight.oldstyle
Substitution2: "'tnum' Tabular Numbers in Latin lookup 7-1" eight.tnum
Substitution2: "'numr' Numerators lookup 9 subtable" eight.numerator
Substitution2: "'sinf' Scientific Inferiors lookup 3-1" eightinferior
Substitution2: "'frac' Diagonal Fractions lookup 13-1" eight.numerator
Substitution2: "'smcp' Lowercase to Small Capitals lookup 16-1" eight.smcp
EndChar

StartChar: quotesingle
Encoding: 39 39 149
Width: 224
VWidth: 0
Flags: HW
LayerCount: 2
Fore
SplineSet
136.8 531 m 1
 146.8 665 l 1
 157.8 732 l 1
 298.8 732 l 1
 287.8 665 l 1
 256.8 531 l 1
 136.8 531 l 1
EndSplineSet
Substitution2: "'smcp' Lowercase to Small Capitals lookup 16-1" quotesingle.smcp
EndChar

StartChar: onesuperior
Encoding: 185 185 150
Width: 279
VWidth: 350
Flags: HW
LayerCount: 2
Fore
SplineSet
109.5 704.1 m 1
 120.9 778 l 1
 156.9 778 223 818.05 240.6 838.4 c 1
 346.8 838.4 l 1
 270.25 355.45 l 1
 162.05 355.45 l 1
 222.1 726.55 l 1
 199.05 708.6 144.15 704.1 109.5 704.1 c 1
EndSplineSet
EndChar

StartChar: twosuperior
Encoding: 178 178 151
Width: 398
VWidth: 350
Flags: HW
LayerCount: 2
Fore
SplineSet
67.3 355.45 m 25
 82.35 450.85 l 17
 149 492.75 339.5 612.4 351.45 687.45 c 1
 358.35 731.1 339.85 744.1 284.05 744.1 c 2
 125.25 744.1 l 2
 124.35 744.1 137.85 825.65 138.3 825.2 c 1
 200.9 835.95 248.55 844.05 335.95 844.05 c 3
 436.85 844.05 473.85 758.3 462.55 690.45 c 1
 444.95 574.55 315.15 488.7 273.5 455.4 c 9
 424.25 455.4 l 25
 408.2 355.45 l 25
 67.3 355.45 l 25
EndSplineSet
EndChar

StartChar: threesuperior
Encoding: 179 179 152
Width: 407
VWidth: 350
Flags: HW
LayerCount: 2
Fore
SplineSet
68.85 370.55 m 1
 82.35 450.4 l 1
 96.75 450.4 242.3 450.85 242.3 450.85 c 2
 288 450.85 311.9 459.05 316.7 491.5 c 2
 319.05 504.6 l 2
 324.3 539.65 300.9 547.85 261.5 549.4 c 2
 138.65 553.85 l 2
 152.15 640.9 l 1
 277.55 645.8 l 2
 323.1 647.8 345.05 657.15 349.4 687.25 c 2
 350.75 699.35 l 2
 356.65 731.45 335.4 739.55 292.3 739.55 c 2
 123.35 739.55 l 1
 135.85 818.85 l 1
 198.6 840.5 273.35 840.6 352.65 839.05 c 0
 429.65 838.05 471.8 782.05 460.6 711.6 c 2
 455.7 681.55 l 2
 447.7 633.45 423.15 600.85 385.8 593.05 c 1
 423 578.8 432.7 534.35 425.6 489.65 c 2
 421.6 466.05 l 2
 409.5 389.55 362.75 350.45 270.55 350.9 c 0
 193.25 350.9 124.5 348.9 68.85 370.55 c 1
EndSplineSet
EndChar

StartChar: ordmasculine
Encoding: 186 186 153
Width: 385
VWidth: 0
Flags: HW
LayerCount: 2
Fore
SplineSet
76.95 263.85 m 1
 87.6 332.85 l 1
 410 332.85 l 1
 399.35 263.85 l 1
 76.95 263.85 l 1
113.25 558.25 m 0
 135.8 699.1 184.45 734.8 308.4 735.25 c 1
 425.65 735.7 472.85 682.25 450.4 539.55 c 0
 429.85 410.8 386.05 372.55 254.55 372.55 c 1
 135.4 372.55 93.25 432.25 113.25 558.25 c 0
215.4 549.45 m 0
 201.8 464.7 220.9 460.3 267.5 459.85 c 1
 314.8 459.4 334.2 461.7 348.25 549.45 c 0
 362.3 640.55 353.2 647.5 297.25 647.95 c 1
 242.45 648.4 229.45 640.1 215.4 549.45 c 0
EndSplineSet
Ligature2: "'ordn' Ordinals lookup 21-1" o
Substitution2: "'smcp' Lowercase to Small Capitals lookup 16-1" ordmasculine.smcp
EndChar

StartChar: ordfeminine
Encoding: 170 170 154
Width: 364
VWidth: 0
Flags: HW
LayerCount: 2
Fore
SplineSet
63.75 262.5 m 1
 74.4 331.5 l 1
 395.45 331.5 l 1
 384.8 262.5 l 1
 63.75 262.5 l 1
97.7 572.65 m 0
 125.2 719.4 208.3 730.4 268.4 733.1 c 0
 317.55 735.35 408.65 722.85 442.2 690.3 c 9
 396.1 374.95 l 17
 324.7 374.95 l 1
 309.2 423.25 l 17
 290.05 392.2 236.7 370.4 194.95 370.4 c 3
 133.65 370.4 70.2 431.8 97.7 572.65 c 0
194.55 557.55 m 0
 184.4 492.85 196 462.55 231.2 462.55 c 3
 267.3 462.55 296.25 478.5 317.6 503 c 1
 337.85 644.15 l 1
 315.9 651.95 279.2 655.1 260.35 650.3 c 0
 235.05 644.05 205.7 632.25 194.55 557.55 c 0
EndSplineSet
Ligature2: "'ordn' Ordinals lookup 21-1" a
Substitution2: "'smcp' Lowercase to Small Capitals lookup 16-1" ordfeminine.smcp
EndChar

StartChar: slash
Encoding: 47 47 155
Width: 456
VWidth: 0
Flags: HW
LayerCount: 2
Fore
SplineSet
3.6 -72 m 1
 417.6 770 l 1
 562.6 770 l 1
 148.6 -72 l 1
 3.6 -72 l 1
EndSplineSet
Substitution2: "'numr' Numerators lookup 9 subtable" fraction
Substitution2: "'frac' Diagonal Fractions lookup 12-1" fraction
EndChar

StartChar: backslash
Encoding: 92 92 156
Width: 449
VWidth: 0
Flags: HW
LayerCount: 2
Fore
SplineSet
136.05 770 m 1
 275.8 770 l 1
 423.8 -72 l 1
 284.05 -72 l 1
 136.05 770 l 1
EndSplineSet
EndChar

StartChar: bar
Encoding: 124 124 157
Width: 247
VWidth: 0
Flags: HW
LayerCount: 2
Fore
SplineSet
53.1 -72 m 1
 186.1 770 l 1
 304.1 770 l 1
 171.1 -72 l 1
 53.1 -72 l 1
EndSplineSet
EndChar

StartChar: underscore
Encoding: 95 95 158
Width: 673
VWidth: 0
Flags: HW
LayerCount: 2
Fore
SplineSet
24.5 -1 m 1
 43.1 117 l 1
 677.1 117 l 1
 658.5 -1 l 1
 24.5 -1 l 1
EndSplineSet
EndChar

StartChar: hyphen
Encoding: 45 45 159
Width: 353
VWidth: 0
Flags: HW
LayerCount: 2
Fore
SplineSet
60.55 231 m 1
 79.15 349 l 1
 393.15 349 l 1
 374.55 231 l 1
 60.55 231 l 1
EndSplineSet
Substitution2: "'case' Case-Sensitive Forms lookup 1-1" hyphen.alt
Substitution2: "'c2sc' Capitals to Small Capitals in Latin lookup 17 subtable" hyphen.smcp
Substitution2: "'smcp' Lowercase to Small Capitals lookup 16-1" hyphen.smcp
EndChar

StartChar: numbersign
Encoding: 35 35 160
Width: 721
VWidth: 0
Flags: HW
LayerCount: 2
Fore
SplineSet
47.75 210 m 1
 77.5 306 l 1
 229.9 306 l 1
 269.25 427 l 1
 115.75 427 l 1
 146.95 523 l 1
 302.75 523 l 1
 373 732 l 1
 469 732 l 1
 398.75 523 l 1
 521.85 523 l 1
 591.1 732 l 1
 687.1 732 l 1
 617.85 523 l 1
 789.35 523 l 1
 759.25 427 l 1
 587.2 427 l 1
 547.85 305 l 1
 719.9 305 l 1
 691.25 209 l 1
 512.6 209 l 1
 442.45 0 l 1
 346.45 0 l 1
 416.6 209 l 1
 292.95 210 l 1
 222.8 0 l 1
 126.8 0 l 1
 196.95 210 l 1
 47.75 210 l 1
325.9 306 m 1
 451.85 305 l 1
 491.2 427 l 1
 365.25 427 l 1
 325.9 306 l 1
EndSplineSet
Substitution2: "'smcp' Lowercase to Small Capitals lookup 16-1" numbersign.smcp
EndChar

StartChar: dollar
Encoding: 36 36 161
Width: 569
VWidth: 0
Flags: HW
LayerCount: 2
Fore
SplineSet
67.9 21.95 m 1
 85.6 128.85 l 1
 125.05 126.65 224.55 120.1 317.55 120.1 c 0
 359.65 120.1 409.6 132.9 417.75 184.05 c 2
 423.8 223.45 l 2
 430.6 265.05 430.8 291.75 367.9 291.75 c 2
 276.4 291.75 l 2
 109.25 291.75 109.55 438.65 119.25 500.05 c 2
 128.15 563.3 l 1
 150.5 705.95 244.3 734.9 354.5 738 c 1
 367.95 824 l 1
 453.45 824 l 1
 440 736.65 l 1
 508.05 732.75 568.75 721.3 613.8 709.05 c 1
 596.55 599.9 l 1
 539.4 603.75 410.8 609.45 374.5 609.45 c 1
 313.3 610.8 276.65 599.8 266.5 538 c 2
 260.9 502.25 l 1
 253.65 455.05 263.05 431.75 329.65 431.75 c 2
 423.35 431.75 l 2
 569.05 431.75 579 304.9 566 224 c 2
 558.3 175.25 l 2
 532.45 13.6 423.05 -9.6 322 -8 c 1
 309 -90 l 1
 223.5 -90 l 1
 236.95 -5.75 l 1
 160.65 -2.05 119.85 6.3 67.9 21.95 c 1
EndSplineSet
Substitution2: "'smcp' Lowercase to Small Capitals lookup 16-1" dollar.smcp
EndChar

StartChar: zerosuperior
Encoding: 263 8304 162
Width: 438
VWidth: 350
Flags: HW
LayerCount: 2
Fore
SplineSet
68.1 474.9 m 2
 105.35 713.4 l 2
 118.9 798.5 167.3 836.6 247.5 836.6 c 2
 365.6 836.6 l 2
 457.1 836.6 489.75 783.7 478.75 716.7 c 2
 440.95 474.9 l 2
 427.05 388.25 384.35 355 305 355 c 2
 186.9 355 l 2
 117.65 355 54.2 388.15 68.1 474.9 c 2
179.5 497.6 m 2
 173.6 459.65 189.3 454.95 219.6 454.95 c 10
 284.05 454.95 l 18
 316.85 454.95 331.05 463.7 336.5 497.05 c 2
 370.55 694.55 l 2
 376 725.15 368.3 736.65 334.55 736.65 c 2
 264.6 736.65 l 2
 226.4 736.65 218 720.05 213.55 694.55 c 2
 179.5 497.6 l 2
EndSplineSet
EndChar

StartChar: foursuperior
Encoding: 264 8308 163
Width: 469
VWidth: 350
Flags: HW
LayerCount: 2
Fore
SplineSet
102.35 500 m 1
 327.05 836.6 l 1
 444.05 836.6 l 1
 261.3 556.4 l 1
 371.05 556.4 l 1
 387.3 658.7 l 1
 419.45 708.35 l 1
 500.2 708.35 l 1
 475.95 556.4 l 1
 524.05 556.4 l 1
 510.55 471.4 l 1
 458.25 454 l 1
 444.2 356.55 l 1
 338.85 356.55 l 1
 355 453.45 l 1
 123.1 453.45 l 1
 102.35 500 l 1
EndSplineSet
EndChar

StartChar: fivesuperior
Encoding: 265 8309 164
Width: 413
VWidth: 350
Flags: HW
LayerCount: 2
Fore
SplineSet
75.15 367.75 m 1
 88.65 453.15 l 1
 280.4 453.15 l 2
 316.5 453.15 328.35 465.7 331.7 493.2 c 2
 336.3 526.65 l 2
 338.75 545.9 340.6 569.4 302.45 569.4 c 1
 236.55 569.4 l 2
 213.75 569.4 199.9 559.25 195.55 534.7 c 1
 102.15 534.7 l 1
 165.25 836.6 l 17
 475.1 836.6 l 1
 459.05 736.65 l 1
 250.9 736.65 l 25
 231.9 648.15 l 1
 264.25 671.1 316.35 666.6 349.45 664.95 c 0
 432.35 660.55 453.2 593.4 444.95 533.95 c 2
 434.5 462.8 l 2
 423.35 369.7 357.9 351.1 290.35 351.55 c 1
 206.05 352 163.45 351.65 75.15 367.75 c 1
EndSplineSet
EndChar

StartChar: sixsuperior
Encoding: 266 8310 165
Width: 407
VWidth: 350
Flags: HW
LayerCount: 2
Fore
SplineSet
91.8 616.45 m 0
 121.6 802.45 181.95 835.45 242.55 840.4 c 0
 313.5 847 404.4 839.85 475.8 827.3 c 1
 462.3 743.75 l 1
 284.7 743.75 l 2
 222.4 743.75 213.1 683.7 205.3 638.05 c 1
 245.35 648.45 290.65 652.7 343.6 653.15 c 1
 434.15 653.6 457.2 588.65 447.45 529.05 c 2
 436.45 458.8 l 2
 423.8 377.45 373.25 355.45 294.65 355.45 c 2
 201.15 355.45 l 2
 125.2 355.45 59.25 412.3 91.8 616.45 c 0
192.8 563.1 m 1
 186.15 519.65 182 455.4 234 455.4 c 2
 291.3 455.4 l 2
 318.25 455.4 330.4 464.35 334.2 490.45 c 2
 340.35 528.9 l 2
 344.7 556.65 337.5 563.1 310.25 563.1 c 2
 192.8 563.1 l 1
EndSplineSet
EndChar

StartChar: sevensuperior
Encoding: 267 8311 166
Width: 431
VWidth: 350
Flags: HW
LayerCount: 2
Fore
SplineSet
110.8 737.55 m 1
 126.85 837.5 l 1
 477.3 837.5 l 1
 498 791.1 l 1
 246.1 355.45 l 1
 127.15 355.45 l 1
 348.75 737.55 l 1
 110.8 737.55 l 1
EndSplineSet
EndChar

StartChar: eightsuperior
Encoding: 268 8312 167
Width: 424
VWidth: 350
Flags: HW
LayerCount: 2
Fore
SplineSet
113.75 473.95 m 2
 121 519.3 l 2
 127.35 559.05 154.65 580 190.45 586.9 c 1
 144.3 610.1 142.65 654.05 148.2 690.1 c 2
 155.2 732.3 l 2
 170.2 825.4 232.2 841.05 303.6 841.05 c 2
 417.05 841.05 l 2
 488.65 841.05 532 798.05 519.45 718.55 c 2
 514 684.6 l 2
 511.45 668.4 496.35 623.55 447.25 615.75 c 1
 491.05 604.5 492 545.1 487.45 516.55 c 2
 479 462.4 l 2
 463.35 360.95 406.35 354.55 339.4 354.55 c 2
 226.05 354.55 l 2
 115.05 354.55 106.3 427 113.75 473.95 c 2
224.6 484 m 2
 220.7 459.7 227.7 450.55 261.5 450.55 c 2
 329.45 450.55 l 2
 358 450.55 369.55 460.45 372.9 484 c 2
 378.25 518.05 l 2
 382.05 541.85 374.1 554.65 346.75 554.65 c 2
 274.75 554.65 l 2
 245.85 554.65 234.2 543.75 230.4 518.05 c 2
 224.6 484 l 2
256.3 683.1 m 2
 251.5 652.85 267.15 646.25 289.7 646.25 c 2
 358.9 646.25 l 2
 396 646.25 401.25 664.5 404.15 683.1 c 2
 408.05 705.75 l 2
 413.85 740.55 399.65 745.5 373.75 745.5 c 2
 308.6 745.5 l 2
 278.7 745.5 265.55 739.1 260.2 705.75 c 2
 256.3 683.1 l 2
EndSplineSet
EndChar

StartChar: ninesuperior
Encoding: 269 8313 168
Width: 447
VWidth: 350
Flags: HW
LayerCount: 2
Fore
SplineSet
105.15 364.15 m 1
 118.65 448.25 l 1
 296.25 448.25 l 2
 358.55 448.25 368.4 509.4 376.75 557.25 c 1
 336.7 546.85 291.4 542.6 238.45 542.15 c 1
 147.35 541.7 125.95 611.05 135.7 671.75 c 2
 145.05 735.4 l 2
 157.15 817.85 207.15 844.8 285.75 843.7 c 2
 384.2 842.6 l 2
 462.35 842.6 522.7 778.6 489.6 571.15 c 0
 459.25 382.4 399.55 356.55 338.4 351.05 c 0
 267.45 344.45 169.8 350.7 105.15 364.15 c 1
243.25 674.1 m 2
 238.35 645.25 245 638.25 272.25 638.25 c 2
 389.7 638.25 l 1
 396.9 684.45 399.5 743.75 347.5 743.75 c 2
 290.75 743.75 l 2
 263.8 743.75 252.75 734.25 248.4 707.05 c 2
 243.25 674.1 l 2
EndSplineSet
EndChar

StartChar: zeroinferior
Encoding: 270 8320 169
Width: 457
VWidth: 0
Flags: HW
LayerCount: 2
Fore
SplineSet
94.55 -81.1 m 2
 131.8 157.4 l 2
 145.35 242.5 193.75 280.6 273.95 280.6 c 2
 392.05 280.6 l 2
 483.55 280.6 516.2 227.7 505.2 160.7 c 2
 467.4 -81.1 l 2
 453.5 -167.75 410.8 -201 331.45 -201 c 2
 213.35 -201 l 2
 144.1 -201 80.65 -167.85 94.55 -81.1 c 2
205.95 -58.4 m 2
 200.05 -96.35 215.75 -101.05 246.05 -101.05 c 10
 310.5 -101.05 l 18
 343.3 -101.05 357.5 -92.3 362.95 -58.95 c 2
 397 138.55 l 2
 402.45 169.15 394.75 180.65 361 180.65 c 2
 291.05 180.65 l 2
 252.85 180.65 244.45 164.05 240 138.55 c 2
 205.95 -58.4 l 2
EndSplineSet
EndChar

StartChar: oneinferior
Encoding: 271 8321 170
Width: 284
VWidth: 0
Flags: HW
LayerCount: 2
Fore
SplineSet
30.35 148.1 m 1
 41.75 222 l 1
 77.75 222 143.85 262.05 161.45 282.4 c 1
 267.65 282.4 l 1
 191.1 -200.55 l 1
 82.9 -200.55 l 1
 142.95 170.55 l 1
 119.9 152.6 65 148.1 30.35 148.1 c 1
EndSplineSet
EndChar

StartChar: twoinferior
Encoding: 272 8322 171
Width: 438
VWidth: 0
Flags: HW
LayerCount: 2
Fore
SplineSet
37.5 -200.55 m 25
 52.55 -105.15 l 17
 119.2 -63.25 309.7 56.4 321.65 131.45 c 1
 328.55 175.1 310.05 188.1 254.25 188.1 c 2
 95.45 188.1 l 2
 94.55 188.1 108.05 269.65 108.5 269.2 c 1
 171.1 279.95 218.75 288.05 306.15 288.05 c 3
 407.05 288.05 444.05 202.3 432.75 134.45 c 1
 415.15 18.55 285.35 -67.3 243.7 -100.6 c 9
 394.45 -100.6 l 25
 378.4 -200.55 l 25
 37.5 -200.55 l 25
EndSplineSet
EndChar

StartChar: threeinferior
Encoding: 273 8323 172
Width: 394
VWidth: 0
Flags: HW
LayerCount: 2
Fore
SplineSet
-4.15 -185.45 m 1
 8.9 -105.6 l 1
 23.3 -105.6 169.3 -105.15 169.3 -105.15 c 2
 215 -105.15 238.9 -96.95 243.7 -64.5 c 2
 246.05 -51.4 l 2
 251.3 -16.35 227.9 -8.15 188.5 -6.6 c 2
 65.65 -2.15 l 2
 79.15 84.9 l 1
 204.55 89.8 l 2
 250.1 91.8 272.05 101.15 276.4 131.25 c 2
 277.75 143.35 l 2
 283.65 175.45 262.4 183.55 219.3 183.55 c 2
 50.35 183.55 l 1
 62.85 262.85 l 1
 125.6 284.5 200.35 284.6 279.65 283.05 c 0
 356.65 282.05 398.8 226.05 387.6 155.6 c 2
 382.7 125.55 l 2
 374.7 77.45 350.15 44.85 312.8 37.05 c 1
 350 22.8 359.7 -21.65 352.6 -66.35 c 2
 348.6 -89.95 l 2
 336.5 -166.45 289.75 -205.55 197.55 -205.1 c 0
 120.25 -205.1 51.5 -207.1 -4.15 -185.45 c 1
EndSplineSet
EndChar

StartChar: fourinferior
Encoding: 274 8324 173
Width: 435
VWidth: 0
Flags: HW
LayerCount: 2
Fore
SplineSet
-2.6 -56 m 1
 222.1 280.6 l 1
 339.1 280.6 l 1
 156.35 0.400001 l 1
 266.1 0.400001 l 1
 282.35 102.7 l 1
 314.5 152.35 l 1
 395.25 152.35 l 1
 371 0.400001 l 1
 419.1 0.400001 l 1
 405.6 -84.6 l 1
 353.3 -102 l 1
 339.25 -199.45 l 1
 233.9 -199.45 l 1
 250.05 -102.55 l 1
 18.15 -102.55 l 1
 -2.6 -56 l 1
EndSplineSet
EndChar

StartChar: fiveinferior
Encoding: 275 8325 174
Width: 412
VWidth: 0
Flags: HW
LayerCount: 2
Fore
SplineSet
3.15 -188.25 m 1
 16.65 -102.85 l 1
 208.4 -102.85 l 2
 244.5 -102.85 256.35 -90.3 259.7 -62.8 c 2
 264.3 -29.35 l 2
 266.75 -10.1 268.6 13.4 230.45 13.4 c 1
 164.55 13.4 l 2
 141.75 13.4 127.9 3.25 123.55 -21.3 c 1
 30.15 -21.3 l 1
 93.25 280.6 l 17
 403.1 280.6 l 1
 387.05 180.65 l 1
 178.9 180.65 l 25
 159.9 92.15 l 1
 192.25 115.1 244.35 110.6 277.45 108.95 c 0
 360.35 104.55 381.2 37.4 372.95 -22.05 c 2
 362.5 -93.2 l 2
 351.35 -186.3 285.9 -204.9 218.35 -204.45 c 1
 134.05 -204 91.45 -204.35 3.15 -188.25 c 1
EndSplineSet
EndChar

StartChar: sixinferior
Encoding: 276 8326 175
Width: 407
VWidth: 0
Flags: HW
LayerCount: 2
Fore
SplineSet
19.8 60.45 m 0
 49.6 246.45 109.95 279.45 170.55 284.4 c 0
 241.5 291 336.9 283.85 403.8 271.3 c 1
 390.3 187.75 l 1
 212.7 187.75 l 2
 150.4 187.75 141.1 127.7 133.3 82.05 c 1
 173.35 92.45 218.65 96.7 271.6 97.15 c 1
 362.15 97.6 385.2 32.65 375.45 -26.95 c 2
 364.45 -97.2 l 2
 351.8 -178.55 301.25 -200.55 222.65 -200.55 c 2
 129.15 -200.55 l 2
 53.2 -200.55 -12.75 -143.7 19.8 60.45 c 0
120.8 7.1 m 1
 114.15 -36.35 110 -100.6 162 -100.6 c 2
 219.3 -100.6 l 2
 246.25 -100.6 258.4 -91.65 262.2 -65.55 c 2
 268.35 -27.1 l 2
 272.7 0.65 265.5 7.1 238.25 7.1 c 2
 120.8 7.1 l 1
EndSplineSet
EndChar

StartChar: seveninferior
Encoding: 277 8327 176
Width: 431
VWidth: 0
Flags: HW
LayerCount: 2
Fore
SplineSet
38.8 181.55 m 1
 54.85 281.5 l 1
 405.3 281.5 l 1
 426 235.1 l 1
 174.1 -200.55 l 1
 55.15 -200.55 l 1
 276.75 181.55 l 1
 38.8 181.55 l 1
EndSplineSet
EndChar

StartChar: eightinferior
Encoding: 278 8328 177
Width: 424
VWidth: 0
Flags: HW
LayerCount: 2
Fore
SplineSet
41.75 -82.05 m 2
 49 -36.7 l 2
 55.35 3.05 82.65 24 118.45 30.9 c 1
 72.3 54.1 70.65 98.05 76.2 134.1 c 2
 83.2 176.3 l 2
 98.2 269.4 160.2 285.05 231.6 285.05 c 2
 345.05 285.05 l 2
 416.65 285.05 460 242.05 447.45 162.55 c 2
 442 128.6 l 2
 439.45 112.4 424.35 67.55 375.25 59.75 c 1
 419.05 48.5 420 -10.9 415.45 -39.45 c 2
 407 -93.6 l 2
 391.35 -195.05 334.35 -201.45 267.4 -201.45 c 2
 154.05 -201.45 l 2
 43.05 -201.45 34.3 -129 41.75 -82.05 c 2
152.6 -72 m 2
 148.7 -96.3 155.7 -105.45 189.5 -105.45 c 2
 257.45 -105.45 l 2
 286 -105.45 297.55 -95.55 300.9 -72 c 2
 306.25 -37.95 l 2
 310.05 -14.15 302.1 -1.35 274.75 -1.35 c 2
 202.75 -1.35 l 2
 173.85 -1.35 162.2 -12.25 158.4 -37.95 c 2
 152.6 -72 l 2
184.3 127.1 m 2
 179.5 96.85 195.15 90.25 217.7 90.25 c 2
 286.9 90.25 l 2
 324 90.25 329.25 108.5 332.15 127.1 c 2
 336.05 149.75 l 2
 341.85 184.55 327.65 189.5 301.75 189.5 c 2
 236.6 189.5 l 2
 206.7 189.5 193.55 183.1 188.2 149.75 c 2
 184.3 127.1 l 2
EndSplineSet
EndChar

StartChar: nineinferior
Encoding: 279 8329 178
Width: 446
VWidth: 0
Flags: HW
LayerCount: 2
Fore
SplineSet
33.15 -191.85 m 1
 46.65 -107.75 l 1
 224.25 -107.75 l 2
 286.55 -107.75 296.4 -46.6 304.75 1.25 c 1
 264.7 -9.15 219.4 -13.4 166.45 -13.85 c 1
 75.35 -14.3 53.95 55.05 63.7 115.75 c 2
 73.05 179.4 l 2
 85.15 261.85 135.15 288.8 213.75 287.7 c 2
 312.2 286.6 l 2
 390.35 286.6 450.7 222.6 417.6 15.15 c 0
 387.25 -173.6 327.55 -199.45 266.4 -204.95 c 0
 195.45 -211.55 94.65 -205.3 33.15 -191.85 c 1
171.25 118.1 m 2
 166.35 89.25 173 82.25 200.25 82.25 c 2
 317.7 82.25 l 1
 324.9 128.45 327.5 187.75 275.5 187.75 c 2
 218.75 187.75 l 2
 191.8 187.75 180.75 178.25 176.4 151.05 c 2
 171.25 118.1 l 2
EndSplineSet
EndChar

StartChar: zero.oldstyle
Encoding: 280 -1 179
Width: 617
VWidth: 0
Flags: W
HStem: 0 129<233.35 448.597> 503 129<286.869 498.722>
DStem2: 82.5498 178.5 226.4 201.05 0.159348 0.987223<-11.1774 337.458> 471.4 200.5 607.55 178.5 0.160092 0.987102<-62.1735 287.242>
LayerCount: 2
Fore
SplineSet
82.5498 178.5 m 10
 126.05 448 l 2
 145.7 571.25 210.2 632 328 632 c 2
 492 632 l 2
 637.2 632 666.8 544.05 652.15 453.5 c 2
 607.55 178.5 l 18
 588.55 59.5 527.5 0 412.9 0 c 2
 248.9 0 l 2
 136.45 0 63 58.5 82.5498 178.5 c 10
226.4 201.05 m 2
 215.15 129.3 256.35 129 290.05 129 c 10
 386.95 129 l 18
 433.9 129 462.4 146.5 471.4 200.5 c 2
 508.3 431.5 l 2
 516.2 482.45 500 503 451.85 503 c 2
 346.7 503 l 2
 284.2 503 267.55 459.35 263.3 431.5 c 2
 226.4 201.05 l 2
EndSplineSet
Substitution2: "'tnum' Tabular Numbers in Latin lookup 7-1" zero.tosf
Substitution2: "'lnum' Lining Figures lookup 19-1" zero
EndChar

StartChar: one.oldstyle
Encoding: 281 -1 180
Width: 362
VWidth: 0
Flags: W
HStem: 0 21G<152.3 294.173> 0 21G<152.3 294.173> 459.05 91.5<91.2 158.75>
VStem: 77.15 308
DStem2: 152.3 0 291.2 0 0.147039 0.989131<20.4238 495.377>
LayerCount: 2
Fore
SplineSet
77.15 459.05 m 1xb0
 91.2 550.55 l 1
 136.2 550.55 219.85 603.1 246.25 633.35 c 1
 385.15 632 l 1
 291.2 0 l 1
 152.3 0 l 1
 226.1 489.85 l 1
 191.65 465.35 120.35 459.05 77.15 459.05 c 1xb0
EndSplineSet
Substitution2: "'tnum' Tabular Numbers in Latin lookup 7-1" one.tosf
Substitution2: "'lnum' Lining Figures lookup 19-1" one
EndChar

StartChar: two.oldstyle
Encoding: 282 -1 181
Width: 592
VWidth: 0
Flags: W
HStem: 0 129<347.3 549.3> 505.15 129.55<158.95 467.999>
LayerCount: 2
Fore
SplineSet
37.7998 0 m 25
 57.5996 123 l 17
 184.15 182.8 465.45 310.4 482.4 417.8 c 1
 493.3 484.2 468 506.05 380.25 505.15 c 1
 357.75 505.15 120.35 504.7 120.35 504.7 c 2
 137.5 609.2 l 1
 230.15 625.4 306.45 634.7 439.65 634.7 c 3
 597.9 634.7 642.1 533.5 626.4 416.9 c 1
 607.55 261.8 419.2 161.2 347.3 129 c 9
 570.1 129 l 25
 549.3 0 l 25
 37.7998 0 l 25
EndSplineSet
Substitution2: "'tnum' Tabular Numbers in Latin lookup 7-1" two.tosf
Substitution2: "'lnum' Lining Figures lookup 19-1" two
EndChar

StartChar: three.oldstyle
Encoding: 283 -1 182
Width: 587
VWidth: 0
Flags: W
HStem: -104.3 130<57.5779 397.786> -76.3 102<54.45 136.381> 209.85 113<163.05 315.361> 507.7 129<175.668 470.268>
DStem2: 422.1 93.95 559.7 63.7 0.157841 0.987465<-54.3741 89.4212 254.657 397.859>
LayerCount: 2
Fore
SplineSet
37.65 -76.3 m 1x70
 54.45 25.7 l 1
 308.45 25.7 l 2
 372.95 25.7 413.3 37.95 422.1 93.95 c 2
 427.15 126 l 2
 438.2 196.3 401.2 198.65 342.25 201.75 c 2
 144.25 209.85 l 2
 163.05 322.85 l 1
 363.05 331.75 l 2
 432.05 334.75 464.8 350.5 473.15 403.25 c 2
 478.65 438.7 l 2
 489 500.95 442.85 507.7 390.85 507.7 c 2
 123.85 507.7 l 1
 139.65 608.7 l 1
 232.65 639.7 351.15 638.7 468.15 636.7 c 0
 571.85 634.7 638.6 557.9 621.4 449.7 c 2
 612.6 397.2 l 2
 600.15 320.6 565.15 276.6 514.15 266.7 c 1
 566 247.9 578.95 182.2 566.95 106.2 c 2
 559.7 63.7 l 2
 541.6 -51.9 466.15 -104.3 344.15 -104.3 c 0xb0
 230.15 -104.3 120.65 -107.3 37.65 -76.3 c 1x70
EndSplineSet
Substitution2: "'tnum' Tabular Numbers in Latin lookup 7-1" three.tosf
Substitution2: "'lnum' Lining Figures lookup 19-1" three
EndChar

StartChar: four.oldstyle
Encoding: 284 -1 183
Width: 613
VWidth: 0
Flags: W
HStem: 59.5 133<240.4 397.15>
DStem2: 31.9 124 240.4 192.5 0.556774 0.830664<172.988 611.559> 372.55 -98 513.9 -98 0.156024 0.987753<22.054 159.409 316.08 463.037>
LayerCount: 2
Fore
SplineSet
31.9 124 m 1
 372.4 632 l 1
 528.65 632 l 1
 240.4 192.5 l 1
 417.95 192.5 l 1
 444.9 359.35 l 1
 489.75 436 l 1
 598.25 436 l 1
 559.3 192.5 l 1
 632.8 192.5 l 1
 616.1 84 l 1
 538.5 59.5 l 1
 513.9 -98 l 1
 372.55 -98 l 1
 397.15 59.5 l 1
 55.5 59.5 l 1
 31.9 124 l 1
EndSplineSet
Substitution2: "'tnum' Tabular Numbers in Latin lookup 7-1" four.tosf
Substitution2: "'lnum' Lining Figures lookup 19-1" four
EndChar

StartChar: five.oldstyle
Encoding: 285 -1 184
Width: 599
VWidth: 0
Flags: W
HStem: -103.55 134<51.85 392.603> -79.55 110<51.85 188.881> 239 123.95<257.426 422.094> 503 129<285.6 594.25>
LayerCount: 2
Fore
SplineSet
34.05 -79.55 m 1x70
 51.85 30.45 l 1
 333.85 30.45 l 2
 399 30.45 412.7 73.35 417.05 101.45 c 2
 427.45 165.3 l 2
 432.45 196.5 432.2 239 372.6 239 c 1
 280.9 239 l 2
 245.75 239 216.9 221.85 210.1 180.5 c 1
 76.3 180.5 l 1
 170.05 632 l 17
 615.05 632 l 1
 594.25 503 l 1
 285.6 503 l 25
 251.65 338 l 1
 276.15 355.35 306.3 361.05 330.1 362.95 c 0
 367.35 365.85 412.8 363.05 432.55 362.5 c 0
 536.75 357 584 275.55 569.1 172.25 c 2
 553.2 60.95 l 2
 531.2 -76.05 434.4 -101.3 339.55 -103.55 c 1xb0
 215.1 -106.7 164.05 -102.55 34.05 -79.55 c 1x70
EndSplineSet
Substitution2: "'tnum' Tabular Numbers in Latin lookup 7-1" five.tosf
Substitution2: "'lnum' Lining Figures lookup 19-1" five
EndChar

StartChar: six.oldstyle
Encoding: 286 -1 185
Width: 588
VWidth: 0
Flags: W
HStem: -0.55 127.65<203.296 390.067> 321 123.5<211.119 419.918> 609 106.15<399.027 587.75>
LayerCount: 2
Fore
SplineSet
60.95 395 m 0
 102.95 660 202.1 727.55 289.5 735.25 c 0
 391.6 744.05 510.4 729.3 604.45 715.15 c 1
 587.75 609 l 1
 337.25 609 l 2
 248.5 609 221.6 501.45 208.25 423.5 c 1
 269.4 438.45 334.25 444.05 413.75 444.5 c 1
 554.8 445.4 571.85 347.65 558.45 262.5 c 2
 541.2 148 l 2
 521.55 26.1 444.15 -0.55 338.05 -0.55 c 2
 196 -0.55 l 2
 86.15 -0.55 10.95 80 60.95 395 c 0
191.55 321 m 1
 174.1 211.4 174.95 127.1 255.7 127.1 c 2
 334.85 127.1 l 2
 367.85 127.1 400.45 137.45 408.7 189.75 c 2
 419.45 257 l 2
 427.8 308.1 417.45 321 368.75 321 c 2
 191.55 321 l 1
EndSplineSet
Substitution2: "'tnum' Tabular Numbers in Latin lookup 7-1" six.tosf
Substitution2: "'lnum' Lining Figures lookup 19-1" six
EndChar

StartChar: seven.oldstyle
Encoding: 287 -1 186
Width: 568
VWidth: 0
Flags: W
HStem: 503 129<114.4 429.6>
DStem2: 109.4 -100 262.3 -100 0.464847 0.885391<71.0751 682.735>
LayerCount: 2
Fore
SplineSet
93.6 503 m 1
 114.4 632 l 1
 585.5 632 l 1
 612.75 567.5 l 1
 262.3 -100 l 1
 109.4 -100 l 1
 429.6 503 l 1
 93.6 503 l 1
EndSplineSet
Substitution2: "'tnum' Tabular Numbers in Latin lookup 7-1" seven.tosf
Substitution2: "'lnum' Lining Figures lookup 19-1" seven
EndChar

StartChar: eight.oldstyle
Encoding: 288 -1 187
Width: 616
VWidth: 0
Flags: W
HStem: 0 123.5<234.648 438.59> 315 117<279.233 462.861> 613.5 123.5<302.129 511.095>
DStem2: 83.1504 178.75 225.45 183.45 0.156532 0.987673<-19.6056 148.706 294.898 454.181> 456.95 183.45 595.2 160.05 0.15668 0.987649<-53.2893 116.445 267.586 417.832>
LayerCount: 2
Fore
SplineSet
83.1504 178.75 m 2
 94.2998 252 l 2
 104.1 312.8 142.9 348.55 195.85 355.75 c 1
 128.75 386 126.4 454.85 135.5 510 c 2
 145.95 575 l 2
 167.5 712.75 252.45 737 359.95 737 c 2
 511.45 737 l 2
 620.9 737 676.1 672.35 657.45 552.45 c 2
 648.65 499 l 2
 645.55 474.25 622.45 404.8 552.85 393.1 c 1
 614 377.85 616 288.95 608.55 245.95 c 2
 595.2 160.05 l 2
 570.55 6.5 481.45 0 393.45 0 c 2
 242.95 0 l 2
 62.8496 0 74.9502 126.9 83.1504 178.75 c 2
225.45 183.45 m 2
 218.1 138.1 235.3 123.5 287.4 123.5 c 2
 381.25 123.5 l 2
 423 123.5 450.7 141.05 456.95 183.45 c 2
 467.9 252.7 l 2
 474.15 292.65 455.95 315 414.7 315 c 2
 313.45 315 l 2
 269.65 315 243.1 295.45 236.4 252.7 c 2
 225.45 183.45 l 2
274.5 494 m 2
 266.25 442.4 297.6 432 331.6 432 c 2
 431.75 432 l 2
 488.8 432 500.55 461.3 506 494 c 2
 513.15 541.1 l 2
 523.4 603.5 501.3 613.5 459.3 613.5 c 2
 365 613.5 l 2
 311.15 613.5 290.45 597.9 281.65 541.1 c 2
 274.5 494 l 2
EndSplineSet
Substitution2: "'tnum' Tabular Numbers in Latin lookup 7-1" eight.tosf
Substitution2: "'lnum' Lining Figures lookup 19-1" eight
EndChar

StartChar: nine.oldstyle
Encoding: 289 -1 188
Width: 600
VWidth: 0
Flags: W
HStem: -83.15 106.15<95.65 284.773> 187.5 123.5<263.858 472.83> 504.9 127.65<292.279 479.67>
LayerCount: 2
Fore
SplineSet
78.95 -83.15 m 1
 95.65 23 l 1
 346.15 23 l 2
 434.9 23 462.35 130.55 475.7 208.5 c 1
 414.55 193.55 349.15 187.95 269.65 187.5 c 1
 128.6 186.6 112.65 289.85 126.05 375 c 2
 142.2 478.5 l 2
 161.3 600.4 238.15 632.55 344.25 632.55 c 2
 486.3 632.55 l 2
 599.45 632.55 671.9 541 621.9 226 c 0
 579.9 -39 481.85 -95.55 394.45 -103.25 c 0
 292.35 -112.05 173 -97.3 78.95 -83.15 c 1
264.5 375 m 2
 256.15 323.9 265.95 311 314.65 311 c 2
 491.85 311 l 1
 509.3 420.6 507.9 504.9 427.15 504.9 c 2
 348.55 504.9 l 2
 315.55 504.9 282.95 494.55 274.7 442.25 c 2
 264.5 375 l 2
EndSplineSet
Substitution2: "'tnum' Tabular Numbers in Latin lookup 7-1" nine.tosf
Substitution2: "'lnum' Lining Figures lookup 19-1" nine
EndChar

StartChar: ampersand
Encoding: 38 38 189
Width: 672
VWidth: 0
Flags: HW
LayerCount: 2
Fore
SplineSet
85.2 83.4 m 0
 25.5 182.6 52.7 285.9 158.45 365.45 c 2
 249.05 434.05 l 1
 209.4 503.65 l 1
 146.05 612.9 228.75 717.25 315.05 728.65 c 0
 431.05 744.8 517.35 729.25 598.95 710 c 1
 582.7 609.2 l 1
 418.2 609.2 l 2
 337.7 609.2 313.25 588.9 357.35 511.4 c 2
 491.55 277.6 l 1
 627.3 394.85 l 1
 668.9 337.45 l 1
 598.45 216.15 l 1
 552.1 171.8 l 1
 651.45 0 l 1
 498.45 0 l 1
 443.9 94.5 l 1
 368.8 33.55 l 2
 297.85 -24.45 151 -27 85.2 83.4 c 0
199 158.9 m 0
 225.7 118.6 275.15 105.95 320.6 144.3 c 2
 382.05 196.75 l 1
 303.85 327.8 l 1
 238.75 279.95 l 18
 177.9 233.3 176.5 192.35 199 158.9 c 0
EndSplineSet
AlternateSubs2: "'salt' Access All Alternates in Latin lookup 4-1" ampersand.salt
Substitution2: "'smcp' Lowercase to Small Capitals lookup 16-1" ampersand.smcp
EndChar

StartChar: asterisk
Encoding: 42 42 190
Width: 427
VWidth: 0
Flags: HW
LayerCount: 2
Fore
SplineSet
126.9 566 m 1
 135.65 622.5 l 1
 278.55 646 l 1
 269.9 561 l 1
 126.9 566 l 1
160.45 416.2 m 1
 206 552.85 l 1
 285.9 532 l 1
 210.85 399.25 l 1
 160.45 416.2 l 1
263.75 466.65 m 1
 321.9 538 l 1
 419.1 448.1 l 1
 379.9 402.9 l 1
 263.75 466.65 l 1
279.1 719.75 m 1
 336.05 739.05 l 1
 384.25 616.65 l 1
 300.25 584 l 1
 279.1 719.75 l 1
329.45 571 m 1
 461.45 649.75 l 1
 484.9 602.65 l 1
 372.85 505.65 l 1
 329.45 571 l 1
EndSplineSet
Substitution2: "'smcp' Lowercase to Small Capitals lookup 16-1" asterisk.smcp
EndChar

StartChar: Euro
Encoding: 290 8364 191
Width: 704
VWidth: 0
Flags: HW
LayerCount: 2
Fore
SplineSet
56.25 249.5 m 1
 67.1 318.5 l 1
 145.55 325.5 l 1
 156.05 393.5 l 1
 80.6 401.5 l 1
 90.9 466.5 l 1
 168.9 475.5 l 1
 179.9 547.5 211.8 740 455.8 740 c 3
 507.8 740 636.6 727.95 711.75 704.5 c 1
 695.6 601.5 l 2
 695.6 601.5 551.1 616.5 469.1 616.5 c 3
 335.5 616.5 323.05 557.35 308.9 475.5 c 1
 541.9 468.5 l 1
 531.05 400.5 l 1
 296.05 393.5 l 1
 285.55 325.5 l 1
 518.1 318.5 l 1
 507.25 249.5 l 1
 507.25 249.5 269.25 244.5 272.25 242.5 c 1
 253.3 127.2 315.3 112 389.5 112 c 27
 480.45 112 625.55 134.5 625.55 134.5 c 1
 609.4 34.5 l 1
 530.45 2.7 442.8 -6 337.8 -6 c 3
 260.8 -6 96.25 16.5 132.25 242.5 c 1
 56.25 249.5 l 1
EndSplineSet
Substitution2: "'smcp' Lowercase to Small Capitals lookup 16-1" Euro.smcp
EndChar

StartChar: parenleft
Encoding: 40 40 192
Width: 377
VWidth: 27
Flags: HW
LayerCount: 2
Fore
SplineSet
108.3 309.5 m 0
 163.6 647.6 365.65 827 365.65 827 c 1
 499.3 827 l 1
 499.3 827 299.7 588.85 248.3 293 c 0
 193.35 -23.9 329.3 -243 329.3 -243 c 1
 198.8 -243 l 1
 198.8 -243 49.8 -47.45 108.3 309.5 c 0
EndSplineSet
Substitution2: "'case' Case-Sensitive Forms lookup 1-1" parenleft.alt
Substitution2: "'c2sc' Capitals to Small Capitals in Latin lookup 17 subtable" parenleft.smcp
Substitution2: "'smcp' Lowercase to Small Capitals lookup 16-1" parenleft.smcp
EndChar

StartChar: parenright
Encoding: 41 41 193
Width: 378
VWidth: 27
Flags: HW
LayerCount: 2
Fore
SplineSet
-17.95 -243 m 1
 -17.95 -243 179.45 -18.05 233.05 292.1 c 0
 285.8 594.7 151.5 827 151.5 827 c 1
 282 827 l 1
 282 827 428.8 615.5 373.05 275.6 c 0
 315 -79.55 126.7 -243 126.7 -243 c 1
 -17.95 -243 l 1
EndSplineSet
Substitution2: "'case' Case-Sensitive Forms lookup 1-1" parenright.alt
Substitution2: "'c2sc' Capitals to Small Capitals in Latin lookup 17 subtable" parenright.smcp
Substitution2: "'smcp' Lowercase to Small Capitals lookup 16-1" parenright.smcp
EndChar

StartChar: plus
Encoding: 43 43 194
Width: 483
VWidth: 0
Flags: HW
LayerCount: 2
Fore
SplineSet
80.2 297 m 1
 98.8 415 l 1
 246.8 415 l 1
 270.5 564 l 1
 388.5 564 l 1
 364.8 415 l 1
 514.8 415 l 1
 496.2 297 l 1
 346.2 297 l 1
 322.5 148 l 1
 204.5 148 l 1
 228.2 297 l 1
 80.2 297 l 1
EndSplineSet
EndChar

StartChar: endash
Encoding: 291 8211 195
Width: 453
VWidth: 0
Flags: HW
LayerCount: 2
Fore
SplineSet
59.45 228 m 1
 78.6 347 l 1
 551.6 347 l 1
 532.45 228 l 1
 59.45 228 l 1
EndSplineSet
Substitution2: "'case' Case-Sensitive Forms lookup 1-1" endash.alt
Substitution2: "'c2sc' Capitals to Small Capitals in Latin lookup 17 subtable" endash.smcp
Substitution2: "'smcp' Lowercase to Small Capitals lookup 16-1" endash.smcp
EndChar

StartChar: emdash
Encoding: 292 8212 196
Width: 736
VWidth: 0
Flags: HW
LayerCount: 2
Fore
SplineSet
61.2 230 m 1
 80.35 349 l 1
 776.35 349 l 1
 757.2 230 l 1
 61.2 230 l 1
EndSplineSet
Substitution2: "'case' Case-Sensitive Forms lookup 1-1" emdash.alt
Substitution2: "'c2sc' Capitals to Small Capitals in Latin lookup 17 subtable" emdash.smcp
Substitution2: "'smcp' Lowercase to Small Capitals lookup 16-1" emdash.smcp
EndChar

StartChar: less
Encoding: 60 60 197
Width: 450
VWidth: 0
Flags: HW
LayerCount: 2
Fore
SplineSet
83.05 287.6 m 1
 103.75 417.1 l 1
 501.55 561.5 l 1
 481.3 432 l 1
 236.2 348.9 l 1
 454.05 261.75 l 1
 433.35 134.5 l 1
 83.05 287.6 l 1
EndSplineSet
EndChar

StartChar: equal
Encoding: 61 61 198
Width: 467
VWidth: 0
Flags: HW
LayerCount: 2
Fore
SplineSet
48.6 184.5 m 1
 67.65 302.5 l 1
 494.65 302.5 l 1
 475.6 184.5 l 1
 48.6 184.5 l 1
82.25 399 m 1
 101.3 517 l 1
 528.3 517 l 1
 509.25 399 l 1
 82.25 399 l 1
EndSplineSet
EndChar

StartChar: greater
Encoding: 62 62 199
Width: 450
VWidth: 0
Flags: HW
LayerCount: 2
Fore
SplineSet
58.8 134.5 m 1
 79.5 264.9 l 1
 327.85 358.4 l 1
 105.75 436.5 l 1
 126.45 561.5 l 1
 478.2 417.1 l 1
 458.5 287.6 l 1
 58.8 134.5 l 1
EndSplineSet
EndChar

StartChar: multiply
Encoding: 215 215 200
Width: 461
VWidth: 0
Flags: HW
LayerCount: 2
Fore
SplineSet
82 251.3 m 1
 202.85 355.9 l 1
 115.5 460.6 l 1
 206.15 540.5 l 1
 294.05 435.8 l 1
 423 545.85 l 1
 493.3 461.6 l 1
 363.7 349.9 l 1
 452.5 244.85 l 1
 362.5 169.9 l 1
 275.8 272.2 l 1
 153.95 164.3 l 1
 82 251.3 l 1
EndSplineSet
EndChar

StartChar: divide
Encoding: 247 247 201
Width: 497
VWidth: 0
Flags: HW
LayerCount: 2
Fore
SplineSet
84.05 294 m 1
 102.65 412 l 1
 524.7 412 l 1
 506.1 294 l 1
 84.05 294 l 1
209.85 154.85 m 2
 221.05 221.5 l 2
 223.05 236.5 233.05 246.5 249.05 246.5 c 2
 322.7 246.5 l 2
 339.35 246.5 345.35 236.6 342.8 221.5 c 2
 331.6 154.85 l 2
 329.05 138.2 318.5 131.85 304.5 131.85 c 2
 230.85 131.85 l 2
 216.85 131.85 207.85 140.85 209.85 154.85 c 2
261.7 478.05 m 2
 271.9 544.7 l 2
 273.9 559.7 283.9 569.7 299.9 569.7 c 2
 373.55 569.7 l 2
 390.2 569.7 396.2 559.8 393.65 544.7 c 2
 383.45 478.05 l 2
 380.9 461.4 369.35 455.05 355.35 455.05 c 2
 281.7 455.05 l 2
 267.7 455.05 259.7 464.05 261.7 478.05 c 2
EndSplineSet
EndChar

StartChar: question
Encoding: 63 63 202
Width: 542
VWidth: 0
Flags: HW
LayerCount: 2
Fore
SplineSet
111.25 610.8 m 2
 127.95 713.5 l 1
 224.25 732 300.05 744 414.05 739 c 1
 557.95 739 614.9 635.5 598.9 537.5 c 2
 586.75 453 l 2
 566.6 309.8 481 272.25 330.85 285 c 1
 330.85 283.65 316.6 197.7 317.05 195 c 1
 203.55 195 l 1
 234.05 390 l 1
 260.15 389.55 322.45 389.1 348.55 390 c 0
 397.55 392 438.95 412.4 448.3 471.7 c 2
 456.6 525.4 l 2
 466.3 587.4 437.5 610.8 360.25 610.8 c 2
 111.25 610.8 l 2
165.1 23 m 2
 179.6 113 l 2
 181.6 128 191.6 138 207.6 138 c 2
 293.6 138 l 2
 311.6 138 317.6 129 314.6 113 c 2
 300.1 23 l 2
 297.1 5 286.1 0 272.1 0 c 2
 186.1 0 l 2
 172.1 0 163.1 9 165.1 23 c 2
EndSplineSet
Substitution2: "'smcp' Lowercase to Small Capitals lookup 16-1" question.smcp
EndChar

StartChar: bracketleft
Encoding: 91 91 203
Width: 334
VWidth: 27
Flags: HW
LayerCount: 2
Fore
SplineSet
62.6 -27.55 m 2
 171 642.9 l 2
 189.4 754.65 235.75 809 372.7 809 c 2
 452.7 809 l 1
 434.1 691 l 1
 381.6 691 l 2
 343.6 691 317.6 674.8 307.15 612.1 c 2
 202.6 -38 l 2
 191.25 -108.8 206.2 -125 249.6 -125 c 2
 304.85 -125 l 1
 286.25 -243 l 1
 197.45 -243 l 2
 56.3 -243 48.65 -111.5 62.6 -27.55 c 2
EndSplineSet
EndChar

StartChar: bracketright
Encoding: 93 93 204
Width: 331
VWidth: 27
Flags: HW
LayerCount: 2
Fore
SplineSet
-17.95 -243 m 1
 0.65 -125 l 1
 53.15 -125 l 2
 91.15 -125 117.7 -108.8 128.15 -46.1 c 2
 231.05 604 l 2
 242.4 674.8 225.8 691 182.4 691 c 2
 129.9 691 l 1
 149.05 809 l 1
 231.25 809 l 2
 363.05 809 385.55 701.15 371.6 602.9 c 2
 270.35 -76.35 l 2
 256.9 -168.85 220.45 -243 73.05 -243 c 2
 -17.95 -243 l 1
EndSplineSet
EndChar

StartChar: braceleft
Encoding: 123 123 205
Width: 320
VWidth: 27
Flags: HW
LayerCount: 2
Fore
SplineSet
58.75 252.25 m 1
 75.8 357.75 l 1
 109.25 359.85 150.4 362.4 157.3 406.25 c 2
 194.3 639.5 l 2
 213.3 758.15 289.8 809 438.5 809 c 1
 419.9 691 l 1
 366.2 691.45 338.4 668.2 324.4 579 c 2
 296.2 398 l 2
 286 335.7 242.9 308.7 184.55 301.9 c 1
 240.35 291.6 273 257.25 264.9 207 c 2
 229.3 -14.05 l 2
 215.7 -99.75 232.4 -132.3 290.1 -130.5 c 1
 272.05 -243 l 1
 110.9 -243 67.35 -150.15 86 -36.05 c 2
 123.25 194.75 l 2
 129.15 232.35 98.75 255.25 58.75 252.25 c 1
EndSplineSet
EndChar

StartChar: braceright
Encoding: 125 125 206
Width: 318
VWidth: 27
Flags: HW
LayerCount: 2
Fore
SplineSet
-17.95 -243 m 1
 0.1 -130.5 l 1
 56 -130.95 82.25 -101.1 94.05 -26.2 c 2
 128.75 189.45 l 2
 137.3 242.4 179.95 272.7 238.85 283.9 c 1
 182.5 289.8 149.2 320.85 158.95 380.45 c 2
 188.5 566.85 l 2
 204.3 666.85 185.4 692.8 129.9 691 c 1
 149.05 809 l 1
 303.6 809 346.6 706.8 328.5 594.9 c 2
 300.05 390.5 l 2
 294.7 350.7 328.95 333.3 365.1 333 c 1
 348.05 227.5 l 1
 310.75 228.7 274 220.65 267.1 179 c 2
 225.8 -70.2 l 2
 204.6 -195.45 137.35 -243 -17.95 -243 c 1
EndSplineSet
EndChar

StartChar: at
Encoding: 64 64 207
Width: 896
VWidth: 0
Flags: HW
LayerCount: 2
Fore
SplineSet
50.8 36.5 m 2
 127.4 521 l 2
 150.65 665.25 235.1 721 382.45 721 c 2
 746.45 721 l 2
 889.9 721 927.65 621.9 907.9 488 c 2
 859.3 161.5 l 2
 847.35 79.85 810.65 3 666.65 3 c 2
 574.15 3 l 1
 550.6 57.5 l 1
 528.4 29.55 490.15 -4.65 417.15 -4 c 0
 298.45 -2.7 235 84.85 265.15 284.35 c 0
 299.15 505.9 406.15 545.1 496.65 545.1 c 0
 593.5 545.1 672.1 528.25 723.1 479.25 c 1
 670.7 115.5 l 1
 718.7 115.5 738.75 124.5 751.2 205.5 c 2
 794.85 499 l 2
 809.2 597.65 775.95 607.5 718.9 607.5 c 2
 358.9 607.5 l 2
 263.9 607.5 246.55 544.3 239.35 499 c 2
 164.4 25.5 l 2
 155.4 -31.5 165.05 -77.5 251.05 -77.5 c 2
 637.05 -77.5 l 1
 623 -163 l 1
 573 -173 457 -190 331 -190 c 2
 238.5 -190 l 2
 74.55 -190 32.7 -80.4 50.8 36.5 c 2
376.3 265 m 0
 363.8 172.25 366.1 107.3 439.7 108.5 c 0
 494.7 109.15 532.85 126.1 564.3 174 c 1
 603.2 423.65 l 1
 560.25 433.05 524.8 433.6 492.7 433.6 c 0
 437.95 433.6 394.9 401.05 376.3 265 c 0
EndSplineSet
Substitution2: "'case' Case-Sensitive Forms lookup 1-1" at.alt
Substitution2: "'smcp' Lowercase to Small Capitals lookup 16-1" at.smcp
EndChar

StartChar: breve
Encoding: 293 728 208
Width: 249
VWidth: 0
Flags: HW
LayerCount: 2
Fore
SplineSet
56.25 644 m 1
 113.8 644 l 1
 109.45 608.15 129.2 587.55 161.65 587.55 c 0
 201.9 587.1 222.65 605.65 227.35 644 c 1
 284.9 644 l 1
 276.65 570.15 231.2 531.1 161.1 531.1 c 0
 99.3 531.1 50.25 573.3 56.25 644 c 1
EndSplineSet
EndChar

StartChar: ogonek
Encoding: 294 731 209
Width: 214
VWidth: 0
Flags: HW
LayerCount: 2
Fore
SplineSet
224.25 0 m 1
 279.75 0 l 1
 191.15 -59.75 213.2 -115.1 270.9 -110 c 9
 258.7 -186.5 l 0
 148.4 -212.4 70.85 -71.7 224.25 0 c 1
EndSplineSet
EndChar

StartChar: caron
Encoding: 295 711 210
Width: 374
VWidth: 0
Flags: HW
LayerCount: 2
Fore
SplineSet
20.45 666.5 m 1
 110.75 666.5 l 1
 155.65 601.1 l 1
 225.85 666.5 l 1
 328.95 666.5 l 1
 199.75 531 l 1
 98.5 531 l 1
 20.45 666.5 l 1
EndSplineSet
Substitution2: "'smcp' Lowercase to Small Capitals lookup 16-1" caron.smcp
EndChar

StartChar: hungarumlaut
Encoding: 296 733 211
Width: 466
VWidth: 0
Flags: HW
LayerCount: 2
Fore
SplineSet
143 531 m 25
 255.6 669.5 l 25
 378.1 669.5 l 25
 234 531 l 25
 143 531 l 25
298.9 531 m 25
 411.5 669.5 l 25
 534 669.5 l 25
 389.9 531 l 25
 298.9 531 l 25
EndSplineSet
EndChar

StartChar: dotaccent
Encoding: 297 729 212
Width: 142
VWidth: 0
Flags: HW
LayerCount: 2
Fore
SplineSet
99.05 545 m 2
 111.35 621 l 2
 113.35 636 123.35 646 139.35 646 c 2
 211.35 646 l 2
 226.35 646 232.35 635 230.35 621 c 2
 218.05 545 l 2
 216.05 530 206.05 522 192.05 522 c 2
 120.05 522 l 2
 106.05 522 97.05 531 99.05 545 c 2
EndSplineSet
EndChar

StartChar: Lcaron
Encoding: 299 317 214
Width: 529
VWidth: 0
Flags: HW
LayerCount: 2
Fore
SplineSet
82.5 142.5 m 2
 176.65 732 l 1
 316.2 732 l 1
 228.55 181 l 2
 220.55 128 254 129 283 129 c 2
 534 129 l 1
 513.65 0 l 1
 212.25 0 l 2
 132.046 0 65.85 38.05 82.5 142.5 c 2
361.65 571 m 1
 371.65 705 l 1
 382.1 772 l 1
 478.1 772 l 1
 467.65 705 l 1
 436.65 571 l 1
 361.65 571 l 1
EndSplineSet
Substitution2: "'c2sc' Capitals to Small Capitals in Latin lookup 17 subtable" lcaron.smcp
EndChar

StartChar: lcaron
Encoding: 308 318 223
Width: 365
VWidth: 0
Flags: HW
LayerCount: 2
Fore
SplineSet
74.15 189 m 2
 168.15 783 l 1
 308.15 783 l 1
 217.45 211 l 2
 204.2 128.5 219.45 117.65 248 107 c 2
 248 107 302.75 87.35 307.05 87.35 c 1
 293.1 0 l 1
 197.6 0 l 2
 108 0 52.15 48.45 74.15 189 c 2
352.15 580.55 m 1
 362.15 714.55 l 1
 373.15 781.55 l 1
 469.15 781.55 l 1
 458.15 714.55 l 1
 427.15 580.55 l 1
 352.15 580.55 l 1
EndSplineSet
Substitution2: "'smcp' Lowercase to Small Capitals lookup 16-1" lcaron.smcp
EndChar

StartChar: tcaron
Encoding: 312 357 227
Width: 395
VWidth: 0
Flags: HW
LayerCount: 2
Fore
SplineSet
69.5 425 m 1
 81.8 503 l 1
 172.25 532 l 1
 219.3 680 l 1
 335.8 680 l 1
 312.25 532 l 1
 430.95 532 l 1
 414 425 l 1
 295.3 425 l 1
 261.55 212 l 2
 248.75 128.4 262.55 117.55 291.1 106.9 c 2
 291.1 106.9 345.85 87.25 350.15 87.25 c 1
 336.65 -0.1 l 1
 240.05 -0.1 l 2
 158.7 -0.1 96.25 49.45 118.25 190 c 2
 155.3 425 l 1
 69.5 425 l 1
385.2 599.55 m 1
 396.1 733.55 l 1
 406.2 800.55 l 1
 502.65 800.55 l 1
 492.1 733.55 l 1
 460.2 599.55 l 1
 385.2 599.55 l 1
EndSplineSet
AlternateSubs2: "'salt' Access All Alternates in Latin lookup 4-1" tcaron.salt
Substitution2: "'smcp' Lowercase to Small Capitals lookup 16-1" tcaron.smcp
EndChar

StartChar: dcaron
Encoding: 338 271 253
Width: 720
VWidth: 0
Flags: HW
LayerCount: 2
Fore
SplineSet
78 274.55 m 0
 105.4 446.8 148.2 539 295.35 539 c 3
 340.35 539 405.55 526.65 450.7 504.5 c 1
 495.6 785 l 1
 634.7 785 l 1
 510.25 0 l 1
 395.1 0 l 1
 378.5 53.5 l 17
 341.25 26.8 277.35 -6 214.3 -6 c 3
 85.85 -6 51.4 109.1 78 274.55 c 0
219.1 268.5 m 0
 200.3 152.75 218.6 113.65 264.7 113.65 c 3
 317.3 113.65 360.75 127.2 393.55 146.45 c 1
 435.2 409.3 l 1
 401.1 423.45 362.55 429.25 314.15 429.25 c 1
 271.75 429.25 241.15 404 219.1 268.5 c 0
675.7 580.1 m 1
 686.15 714.1 l 1
 696.15 781.1 l 1
 792.6 781.1 l 1
 782.15 714.1 l 1
 750.7 580.1 l 1
 675.7 580.1 l 1
EndSplineSet
AlternateSubs2: "'salt' Access All Alternates in Latin lookup 4-1" dcaron.salt
Substitution2: "'smcp' Lowercase to Small Capitals lookup 16-1" dcaron.smcp
EndChar

StartChar: Lslash
Encoding: 346 321 261
Width: 530
VWidth: 0
Flags: HW
LayerCount: 2
Fore
SplineSet
29.7 305.15 m 1
 41.35 377.15 l 1
 125.3 410.4 l 1
 175.85 732 l 1
 315.4 732 l 1
 274.25 470.45 l 1
 394.1 518.35 l 1
 382 446.8 l 1
 263.05 398.9 l 1
 228.2 181 l 2
 220.2 128 253.2 129 282.2 129 c 2
 533.65 129 l 1
 513.4 0 l 1
 212.45 0 l 2
 132.246 0 65.5 38.05 82.15 142.5 c 2
 113.65 338.85 l 1
 29.7 305.15 l 1
EndSplineSet
Substitution2: "'c2sc' Capitals to Small Capitals in Latin lookup 17 subtable" lslash.smcp
EndChar

StartChar: uni00AD
Encoding: 173 173 262
Width: 353
VWidth: 0
Flags: HW
LayerCount: 2
Fore
SplineSet
56.15 231 m 1
 74.75 349 l 1
 388.75 349 l 1
 370.15 231 l 1
 56.15 231 l 1
EndSplineSet
Substitution2: "'case' Case-Sensitive Forms lookup 1-1" uni00AD.alt
Substitution2: "'c2sc' Capitals to Small Capitals in Latin lookup 17 subtable" uni00AD.smcp
Substitution2: "'smcp' Lowercase to Small Capitals lookup 16-1" uni00AD.smcp
EndChar

StartChar: lslash
Encoding: 347 322 263
Width: 344
VWidth: 0
Flags: HW
LayerCount: 2
Fore
SplineSet
55.45 350.3 m 1
 67.1 422.3 l 1
 145.25 453.65 l 1
 197.9 783 l 1
 339.25 783 l 1
 296.55 514.05 l 1
 419.85 563.5 l 1
 407.75 491.95 l 1
 285.35 442.05 l 1
 246.75 211 l 2
 233.05 128.5 248.75 117.65 277.3 107 c 1
 277.3 107 332.05 87.35 336.35 87.35 c 1
 322.85 0 l 1
 232.85 0 l 2
 143.25 0 81.45 48.45 103.45 189 c 2
 134.15 382.1 l 1
 55.45 350.3 l 1
EndSplineSet
Substitution2: "'smcp' Lowercase to Small Capitals lookup 16-1" lslash.smcp
EndChar

StartChar: dcroat
Encoding: 349 273 265
Width: 553
VWidth: 0
Flags: HW
LayerCount: 2
Fore
SplineSet
78 275.65 m 0
 105.4 447.9 148.2 539 295.35 539 c 0
 340.35 539 405.55 526.65 450.7 504.5 c 1
 466.5 605 l 1
 359.9 605 l 1
 370.55 670 l 1
 477.15 670 l 1
 495.6 785 l 1
 634.7 785 l 1
 616.7 670 l 1
 681.55 670 l 1
 670.9 605 l 1
 606.05 605 l 1
 510.25 0 l 1
 395.1 0 l 1
 378.5 53.5 l 1
 341.25 26.8 277.35 -6 214.3 -6 c 0
 85.85 -6 51.4 110.2 78 275.65 c 0
219.1 268.5 m 0
 200.3 152.75 218.6 113.65 264.7 113.65 c 0
 317.3 113.65 360.75 127.2 393.55 146.45 c 1
 435.2 409.3 l 1
 401.1 423.45 362.55 429.25 314.15 429.25 c 0
 271.75 429.25 241.15 404 219.1 268.5 c 0
EndSplineSet
AlternateSubs2: "'salt' Access All Alternates in Latin lookup 4-1" dcroat.salt
Substitution2: "'smcp' Lowercase to Small Capitals lookup 16-1" dcroat.smcp
EndChar

StartChar: questiondown
Encoding: 191 191 266
Width: 540
VWidth: 0
Flags: HW
LayerCount: 2
Fore
SplineSet
17.75 -60.25 m 2
 29.35 13.25 l 2
 51.7 155.9 135.1 198.4 285.25 185.65 c 1
 285.25 187 300.05 272.95 299.6 275.65 c 1
 413.1 275.65 l 1
 382.15 80.65 l 1
 356.05 81.1 293.75 81.55 267.65 80.65 c 0
 218.65 78.65 177.7 58.25 168.35 -1.05 c 2
 159.5 -54.75 l 2
 149.8 -116.75 178.7 -140.15 255.95 -140.15 c 2
 504.95 -140.15 l 2
 488.7 -242.85 l 1
 392.4 -261.35 316.15 -273.35 202.15 -268.35 c 1
 58.25 -268.35 1.75 -158.25 17.75 -60.25 c 2
304.2 357.65 m 2
 318.15 447.65 l 2
 320.7 464.3 331.8 470.65 345.8 470.65 c 2
 432.7 470.65 l 2
 446.7 470.65 455.15 461.65 453.15 447.65 c 2
 439.2 357.65 l 2
 437.2 342.65 427.2 332.65 411.2 332.65 c 2
 324.3 332.65 l 2
 307.65 332.65 301.65 342.55 304.2 357.65 c 2
EndSplineSet
Substitution2: "'case' Case-Sensitive Forms lookup 1-1" questiondown.alt
Substitution2: "'smcp' Lowercase to Small Capitals lookup 16-1" questiondown.smcp
EndChar

StartChar: at.alt
Encoding: 350 -1 267
Width: 812
VWidth: 0
Flags: HW
LayerCount: 2
Fore
SplineSet
66.1 104.5 m 2
 142.7 589 l 2
 165.95 733.25 250.4 789 397.75 789 c 2
 761.75 789 l 2
 905.2 789 942.95 689.9 923.2 556 c 2
 874.6 229.5 l 2
 862.65 147.85 825.95 71 681.95 71 c 2
 589.45 71 l 1
 565.9 125.5 l 1
 543.7 97.55 505.45 63.35 432.45 64 c 0
 313.75 65.3 250.3 152.85 280.45 352.35 c 0
 314.45 573.9 421.45 613.1 511.95 613.1 c 0
 608.8 613.1 687.4 596.25 738.4 547.25 c 1
 686 183.5 l 1
 734 183.5 754.05 192.5 766.5 273.5 c 2
 810.15 567 l 2
 824.5 665.65 791.25 675.5 734.2 675.5 c 2
 374.2 675.5 l 2
 279.2 675.5 261.85 612.3 254.65 567 c 2
 179.7 93.5 l 2
 170.7 36.5 180.35 -9.5 266.35 -9.5 c 2
 652.35 -9.5 l 1
 638.3 -95 l 1
 588.3 -105 472.3 -122 346.3 -122 c 2
 253.8 -122 l 2
 89.85 -122 48 -12.4 66.1 104.5 c 2
391.6 333 m 0
 379.1 240.25 381.4 175.3 455 176.5 c 0
 510 177.15 548.15 194.1 579.6 242 c 1
 618.5 491.65 l 1
 575.55 501.05 540.1 501.6 508 501.6 c 0
 453.25 501.6 410.2 469.05 391.6 333 c 0
EndSplineSet
EndChar

StartChar: questiondown.alt
Encoding: 351 -1 268
Width: 540
VWidth: 0
Flags: HW
LayerCount: 2
Fore
SplineSet
58.75 204.7 m 2
 70.35 278.2 l 2
 91.8 415.9 176.1 462.8 326.25 450.05 c 1
 326.25 451.4 341.05 537.35 340.6 540.05 c 1
 454.1 540.05 l 1
 423.15 345.05 l 1
 397.05 345.5 334.75 345.95 308.65 345.05 c 0
 259.65 343.05 218.7 322.65 209.35 263.35 c 2
 200.5 209.65 l 2
 191.25 152.15 219.7 124.25 296.95 124.25 c 2
 545.95 124.25 l 2
 529.7 21.55 l 1
 433.4 3.05 357.15 -8.95 243.15 -3.95 c 1
 99.25 -3.95 42.75 106.7 58.75 204.7 c 2
345.2 622.05 m 2
 359.15 712.05 l 2
 361.7 728.7 372.8 735.05 386.8 735.05 c 2
 473.7 735.05 l 2
 487.7 735.05 496.15 726.05 494.15 712.05 c 2
 480.2 622.05 l 2
 478.2 607.05 468.2 597.05 452.2 597.05 c 2
 365.3 597.05 l 2
 348.65 597.05 342.65 606.95 345.2 622.05 c 2
EndSplineSet
EndChar

StartChar: oe
Encoding: 352 339 269
Width: 873
VWidth: 0
Flags: HW
LayerCount: 2
Fore
SplineSet
71.1 273.1 m 0
 105.1 490.1 176.5 537.65 356 537.65 c 0
 429.65 537.65 480.95 520.1 511.7 484.55 c 1
 549.8 521.65 606.4 540.45 697.05 541 c 0
 811.5 541.55 913.5 510.05 905.1 388 c 0
 889.75 145.9 596 192.75 559 207.75 c 1
 545.7 126.65 565.25 105.25 636.25 105.25 c 0
 695.75 105.25 791.3 111.55 853.35 122 c 1
 836.55 22 l 1
 756.4 -2.1 670.65 -13.6 559.6 -7 c 0
 512.85 -5.35 480.55 10.4 460 40.7 c 1
 418.45 7.3 360.2 -5 276.3 -5 c 0
 96.05 -5 41.1 83.1 71.1 273.1 c 0
211.1 258 m 0
 188.7 122.85 215 107.5 289.4 107.5 c 0
 366.9 107.5 392.2 118.2 415.6 258 c 0
 438.55 398.2 423.2 425.15 339.75 425.15 c 0
 256.9 425.15 234.95 403.5 211.1 258 c 0
570.3 300.25 m 1
 570.3 300.25 744.85 271.45 761.8 368.75 c 0
 770.5 418.3 743 429.05 687 428.5 c 0
 592.35 427.4 582.7 365.95 570.3 300.25 c 1
EndSplineSet
Substitution2: "'smcp' Lowercase to Small Capitals lookup 16-1" oe.smcp
EndChar

StartChar: OE
Encoding: 353 338 270
Width: 1038
VWidth: 0
Flags: HW
LayerCount: 2
Fore
SplineSet
86.95 374.75 m 0
 140.95 717.75 264.75 737 435.9 737 c 0
 514.3 737 579.85 726.3 622.5 680.85 c 1
 655.85 725.5 705.5 735 758.9 732 c 2
 758.9 732 1004.7 724.8 1067.95 716 c 1
 1049.6 600.25 l 1
 771.1 600.25 l 2
 720.9 600.25 714.1 571.25 710.1 544.25 c 2
 692.85 432.25 l 1
 975.3 421.7 l 1
 957.5 306.6 l 1
 671.6 297.15 l 1
 652.8 180.75 l 2
 644.7 127.75 677.7 128.75 706.7 128.75 c 2
 975.2 128.75 l 1
 956.95 14 l 1
 898.65 6.3 652.9 -3 652.9 -3 c 2
 611.8 -5.45 562.35 7.3 535.7 44.45 c 1
 479.7 3.05 410.1 -4 327.45 -4 c 0
 155.55 -4 33.95 41.75 86.95 374.75 c 0
226.95 361 m 0
 195.3 161.2 221.8 125 343.2 125 c 0
 454.4 125 503.65 163.7 534.95 361 c 0
 570.95 589.05 526 608 420.15 608 c 0
 311.9 608 263.5 594 226.95 361 c 0
EndSplineSet
EndChar

StartChar: guillemotright
Encoding: 187 187 272
Width: 576
VWidth: 0
Flags: HW
LayerCount: 2
Fore
SplineSet
72.75 224.2 m 1
 232.1 362.6 l 1
 121.45 489.1 l 1
 201.85 557 l 1
 377.1 351.75 l 1
 141.3 146 l 1
 72.75 224.2 l 1
289.85 224.2 m 1
 449.2 362.6 l 1
 338 489.1 l 1
 418.4 557 l 1
 594.2 351.75 l 1
 358.4 146 l 1
 289.85 224.2 l 1
EndSplineSet
EndChar

StartChar: cent
Encoding: 162 162 273
Width: 485
VWidth: 0
Flags: HW
LayerCount: 2
Fore
SplineSet
71.2 282.5 m 0
 109.6 513.45 190.25 539.15 295.4 536.9 c 1
 311.4 634 l 1
 397.8 634 l 1
 381.35 533.55 l 1
 428.15 528.65 482.3 519.65 528.6 504.5 c 1
 514.65 417.5 l 1
 514.65 417.5 420.1 424.4 331.1 424.4 c 0
 267.15 424.4 237.95 421.9 210.2 263.1 c 0
 187.6 128.95 211.35 106.6 280.2 106.6 c 0
 372.2 106.6 473.75 115.95 473.75 115.95 c 1
 459.8 28.05 l 1
 404.3 2.8 349.25 -4.2 293.6 -5.55 c 1
 280.05 -95.45 l 1
 193.65 -95.45 l 1
 207.75 -5.45 l 1
 105.8 -3.9 37.4 77.5 71.2 282.5 c 0
EndSplineSet
EndChar

StartChar: sterling
Encoding: 163 163 274
Width: 582
VWidth: 0
Flags: HW
LayerCount: 2
Fore
SplineSet
37.9 0 m 1
 55.15 108.5 l 1
 125.2 129 l 1
 154.2 313.5 l 1
 87.7 313.5 l 1
 99.1 386 l 1
 169.15 408.5 l 1
 183.85 499.5 l 2
 219.4 723.8 323.1 732 475.9 732 c 3
 532.9 732 657.9 716 657.9 716 c 1
 640.65 604 l 1
 455.3 604 l 2
 364.45 604 337.7 589.8 322.75 495.1 c 2
 309.15 408.5 l 1
 527.65 391.5 l 1
 515.7 313.5 l 1
 294.2 313.5 l 1
 265.2 129 l 1
 564.7 129 l 1
 543.9 0 l 1
 37.9 0 l 1
EndSplineSet
Substitution2: "'smcp' Lowercase to Small Capitals lookup 16-1" sterling.smcp
EndChar

StartChar: yen
Encoding: 165 165 275
Width: 634
VWidth: 0
Flags: HW
LayerCount: 2
Fore
SplineSet
119.2 139.25 m 1
 132.05 220.25 l 1
 269.55 220.25 l 1
 274.9 256.5 l 1
 137.85 256.5 l 1
 151.15 337.5 l 1
 251.85 337.5 l 1
 130.5 732 l 1
 281.65 732 l 1
 364 403.95 l 1
 567.4 732 l 1
 734.5 732 l 1
 463.85 337.5 l 1
 578.15 337.5 l 1
 564.85 256.5 l 1
 414.9 256.5 l 1
 409.55 220.25 l 1
 559.05 220.25 l 1
 546.2 139.25 l 1
 397.6 139.25 l 1
 377.6 0 l 1
 237.6 0 l 1
 257.6 139.25 l 1
 119.2 139.25 l 1
EndSplineSet
Substitution2: "'smcp' Lowercase to Small Capitals lookup 16-1" yen.smcp
EndChar

StartChar: section
Encoding: 167 167 276
Width: 540
VWidth: 0
Flags: HW
LayerCount: 2
Fore
SplineSet
79.8 11 m 1
 95.4 110 l 1
 332.8 110 l 2
 360.2 110 377 114.55 381.8 141.35 c 2
 387.85 180.8 l 2
 392.1 207.4 381.15 213.5 351.6 213.5 c 2
 229.75 213.5 l 2
 141 213.5 80.5 256 95.05 347.5 c 2
 100.65 382 l 2
 107 422.1 116.05 467.3 179.45 486 c 1
 127.75 515.6 129.9 568.2 135.35 601 c 2
 141.95 649 l 2
 155.3 745.65 215.75 784 305.8 784 c 3
 381.75 784 531 776.15 582.3 765 c 1
 567.15 666 l 1
 326.15 666 l 2
 299.3 666 285.1 656 280.85 630.3 c 2
 275.35 595.5 l 2
 272.1 573.45 284.15 560.6 310.15 560.6 c 2
 433.05 560.6 l 2
 533.45 560.6 580.8 511.65 568.15 429.2 c 2
 562.55 394.7 l 2
 557.45 360.65 543.6 307.3 487.2 292.5 c 1
 535.95 280.7 533.95 216 528.95 183 c 2
 520.7 126.5 l 2
 501.95 9.45 440.85 -8 359.3 -8 c 3
 276.2 -8 127.25 -0.7 79.8 11 c 1
239 366.2 m 2
 233.1 330 248.9 326 277.65 326 c 2
 363.7 326 l 2
 407.3 326 413.05 339.2 417.05 367.2 c 2
 418.05 368.2 423.2 405 423.2 405 c 2
 427.55 431.75 428 448 383 448 c 2
 296.95 448 l 2
 257.8 448 250.4 436.05 245.15 403 c 2
 239 366.2 l 2
EndSplineSet
EndChar

StartChar: g.salt
Encoding: 355 -1 277
Width: 517
VWidth: 0
Flags: HW
LayerCount: 2
Fore
SplineSet
14.05 -105 m 0
 56.85 114 l 0
 61.85 150 83.85 200 133.85 200 c 1
 81.75 232.4 80.85 307.5 88.85 360.5 c 0
 110.5 499.3 199 535 298.85 533 c 2
 398.35 531 l 2
 466.35 530.45 564.95 491.05 540.35 327.5 c 0
 529.25 250.5 475.35 148 333.35 148 c 2
 241.35 148 l 2
 225.35 148 200.9 153 195.9 129.25 c 0
 191.35 107.65 212.55 103.05 233 99.5 c 2
 374.1 76.15 l 2
 441.55 63.3 510.75 18 495.55 -77.5 c 2
 488.35 -121.5 l 2
 475.7 -201.95 444.85 -270 297.85 -270 c 2
 175.35 -270 l 2
 42.55 -270 -4.95 -201 14.05 -105 c 0
155.6 -99.5 m 2
 146.2 -147.35 168.85 -155.4 204.85 -155.4 c 2
 294.35 -155.4 l 2
 334.1 -155.4 345.75 -136.05 350.55 -105 c 2
 353.35 -86.35 l 2
 358.7 -49.8 342.1 -38.35 305.4 -32 c 2
 173.05 -12 l 1
 155.6 -99.5 l 2
228.85 344 m 0
 220.85 295 222.9 256 277.35 256 c 2
 328.85 256 l 2
 379.65 256 394.9 308.2 400.35 344 c 0
 409.35 399 405.2 426 355.4 426 c 2
 303.9 426 l 2
 250.5 426 237.85 396 228.85 344 c 0
EndSplineSet
EndChar

StartChar: guillemotleft
Encoding: 171 171 278
Width: 578
VWidth: 0
Flags: HW
LayerCount: 2
Fore
SplineSet
93.9 354 m 1
 331.9 557 l 1
 397.7 480.45 l 1
 240 345.35 l 1
 356.15 210.05 l 1
 271.9 146 l 1
 93.9 354 l 1
309.2 354 m 1
 547.2 557 l 1
 613 480.45 l 1
 455.3 345.35 l 1
 571.45 210.05 l 1
 487.2 146 l 1
 309.2 354 l 1
EndSplineSet
EndChar

StartChar: paragraph
Encoding: 182 182 279
Width: 576
VWidth: 0
Flags: HW
LayerCount: 2
Fore
SplineSet
108.65 511.1 m 2
 122.65 604.1 l 2
 139 707.65 215.2 732 301.55 732 c 2
 677.55 732 l 1
 661.15 628.5 l 1
 608.65 628.5 l 1
 509.05 0 l 1
 407.55 0 l 1
 507.7 630.5 l 1
 441.2 630.5 l 1
 298.6 -270 l 1
 197.1 -270 l 1
 298.55 372 l 1
 292.55 370 271.35 355 240.3 355 c 3
 128.55 355 97.55 440.3 108.65 511.1 c 2
212.25 510.9 m 2
 204 457.95 235.45 456.5 261.65 456.5 c 10
 311.5 456.5 l 25
 339.7 631.85 l 25
 291.2 631.85 l 2
 239.95 631.85 228.4 613.95 221.85 572.4 c 10
 212.25 510.9 l 2
EndSplineSet
EndChar

StartChar: macron
Encoding: 175 175 280
Width: 367
VWidth: 0
Flags: HW
LayerCount: 2
Fore
SplineSet
121.9 531 m 1
 134.65 610.5 l 1
 426.65 610.5 l 1
 413.9 531 l 1
 121.9 531 l 1
EndSplineSet
Substitution2: "'smcp' Lowercase to Small Capitals lookup 16-1" macron.smcp
EndChar

StartChar: copyright
Encoding: 169 169 281
Width: 797
VWidth: 0
Flags: HW
LayerCount: 2
Fore
SplineSet
97.9 379 m 0
 127.1 566.35 196.95 732 409.3 732 c 2
 636.3 732 l 2
 834.35 732 843.1 525.55 815.4 351.5 c 0
 778.9 122.2 678.55 0 527.55 0 c 2
 300.55 0 l 2
 108 0 71.45 209.3 97.9 379 c 0
189.4 368 m 0
 165.3 216.2 194.6 86 308.6 86 c 2
 532.8 86 l 2
 617.4 86 691.9 164 723.9 368 c 0
 742.9 488 759.05 646 628.05 646 c 2
 396.55 646 l 2
 308 646 225.2 595.15 189.4 368 c 0
279.4 374.35 m 0
 306.75 542.55 371.45 583 457.4 583 c 3
 498.4 583 582.35 575.6 636.9 559 c 1
 625.6 485 l 1
 563.6 494 499.1 497 466.1 497 c 3
 412.1 497 385.8 461.5 369.9 362 c 0
 356.9 278 371 233 428.1 233 c 27
 492.95 233 555.45 242.35 594.2 249 c 1
 582.9 175 l 17
 521.95 151.5 460.35 147 393.35 147 c 3
 314.35 147 252.75 207.7 279.4 374.35 c 0
EndSplineSet
EndChar

StartChar: registered
Encoding: 174 174 282
Width: 797
VWidth: 0
Flags: HW
LayerCount: 2
Fore
SplineSet
97.9 379 m 0
 127.1 566.35 196.95 732 409.3 732 c 2
 636.3 732 l 2
 834.35 732 843.1 525.55 815.4 351.5 c 0
 778.9 122.2 678.55 0 527.55 0 c 2
 300.55 0 l 2
 108 0 71.45 209.3 97.9 379 c 0
189.4 368 m 0
 165.3 216.2 194.6 86 308.6 86 c 2
 532.8 86 l 2
 617.4 86 691.9 164 723.9 368 c 0
 742.9 488 759.05 646 628.05 646 c 2
 396.55 646 l 2
 308 646 225.2 595.15 189.4 368 c 0
269.35 153 m 1
 337.35 580 l 1
 519.85 580 l 2
 579.55 580 648.05 554.35 632.3 443.8 c 0
 619.4 345.2 575.5 327.45 533.35 315.5 c 1
 594.6 153 l 1
 495.65 153 l 1
 437.7 312 l 1
 388.2 324 l 1
 360.85 153 l 1
 269.35 153 l 1
398.5 390 m 1
 473.5 390 l 2
 525.5 390 533.45 398.05 540.8 445.5 c 0
 548.05 491.45 526.45 494 490 494 c 2
 415 494 l 1
 398.5 390 l 1
EndSplineSet
EndChar

StartChar: plusminus
Encoding: 177 177 283
Width: 500
VWidth: 0
Flags: HW
LayerCount: 2
Fore
SplineSet
53.6 70.5 m 1
 72.2 188.5 l 1
 488.2 188.5 l 1
 469.6 70.5 l 1
 53.6 70.5 l 1
103.8 381.5 m 1
 121.95 499.5 l 1
 269.95 499.5 l 1
 293.65 648.5 l 1
 411.65 648.5 l 1
 387.95 499.5 l 1
 537.95 499.5 l 1
 519.8 381.5 l 1
 369.8 381.5 l 1
 345.65 232.5 l 1
 227.65 232.5 l 1
 251.8 381.5 l 1
 103.8 381.5 l 1
EndSplineSet
EndChar

StartChar: logicalnot
Encoding: 172 172 284
Width: 493
VWidth: 0
Flags: HW
LayerCount: 2
Fore
SplineSet
70.75 239.5 m 1
 88.8 352 l 1
 515.8 352 l 1
 506.8 295 493.95 216 484.95 159 c 1
 372.45 159 l 1
 385.25 239.5 l 1
 70.75 239.5 l 1
EndSplineSet
EndChar

StartChar: guilsinglleft
Encoding: 356 8249 285
Width: 288
VWidth: 0
Flags: HW
LayerCount: 2
Fore
SplineSet
19.85 354 m 1
 257.85 557 l 1
 323.65 480.45 l 1
 171.45 350.85 l 1
 282.1 221.05 l 1
 197.85 146 l 1
 19.85 354 l 1
EndSplineSet
EndChar

StartChar: guilsinglright
Encoding: 357 8250 286
Width: 358
VWidth: 0
Flags: HW
LayerCount: 2
Fore
SplineSet
93.9 224.2 m 1
 246.65 354.9 l 1
 137.1 483.6 l 1
 223 557 l 1
 398.25 351.75 l 1
 157.5 146 l 1
 93.9 224.2 l 1
EndSplineSet
EndChar

StartChar: perthousand
Encoding: 358 8240 287
Width: 1338
VWidth: 0
Flags: HW
LayerCount: 2
Fore
SplineSet
75.3 487.75 m 2
 94.65 609.75 l 2
 107.65 693.85 144.2 732 249.7 732 c 2
 350.7 732 l 2
 443.3 732 476.1 680.95 462.65 593.25 c 2
 443.3 471.25 l 18
 429.4 382.65 391.05 349 288.7 349 c 2
 187.7 349 l 2
 100.05 349 62.3 403.2 75.3 487.75 c 2
176.05 496 m 2
 170.8 461.85 177.1 447 216.4 447 c 2
 289.9 447 l 2
 333.35 447 342.8 462.3 348.05 496 c 10
 361.9 585 l 2
 368.25 625.2 360.4 634 321.45 634 c 2
 247.95 634 l 2
 209.75 634 195.8 623.95 189.9 585 c 2
 176.05 496 l 2
174.85 0 m 1
 737.65 732 l 1
 837.8 732 l 1
 278.85 0 l 1
 174.85 0 l 1
554.85 140.4 m 2
 574.2 262.4 l 2
 587.2 346.5 623.2 384.65 728.7 384.65 c 2
 830.25 384.65 l 2
 922.85 384.65 955.65 333.6 942.2 245.9 c 2
 922.85 123.9 l 18
 908.95 35.3 870.15 1.65 767.8 1.65 c 2
 666.25 1.65 l 2
 578.6 1.65 541.85 55.85 554.85 140.4 c 2
655.6 148.65 m 2
 650.35 114.5 656.75 99.65 696.05 99.65 c 2
 769 99.65 l 2
 812.45 99.65 822.35 114.95 827.6 148.65 c 10
 841.45 237.65 l 2
 847.8 277.85 839.5 286.65 800.55 286.65 c 2
 727.6 286.65 l 2
 689.4 286.65 675.35 276.6 669.45 237.65 c 2
 655.6 148.65 l 2
971.15 140.4 m 2
 990.5 262.4 l 2
 1003.5 346.5 1040.05 384.65 1145.55 384.65 c 2
 1246.55 384.65 l 2
 1339.15 384.65 1371.95 333.6 1358.5 245.9 c 2
 1339.15 123.9 l 18
 1325.25 35.3 1286.45 1.65 1184.1 1.65 c 2
 1083.1 1.65 l 2
 995.45 1.65 958.15 55.85 971.15 140.4 c 2
1071.9 148.65 m 2
 1066.65 114.5 1073.05 99.65 1112.35 99.65 c 2
 1185.85 99.65 l 2
 1229.3 99.65 1238.65 114.95 1243.9 148.65 c 10
 1257.75 237.65 l 2
 1264.1 277.85 1256.35 286.65 1217.4 286.65 c 2
 1143.9 286.65 l 2
 1105.7 286.65 1091.65 276.6 1085.75 237.65 c 2
 1071.9 148.65 l 2
EndSplineSet
Substitution2: "'smcp' Lowercase to Small Capitals lookup 16-1" perthousand.smcp
EndChar

StartChar: dagger
Encoding: 359 8224 288
Width: 519
VWidth: 0
Flags: HW
LayerCount: 2
Fore
SplineSet
104.2 453.25 m 1
 121.45 561.75 l 1
 256.45 574.5 l 1
 298.45 770 l 1
 421.95 770 l 1
 401.45 574.5 l 1
 531.45 561.75 l 1
 514.2 453.25 l 1
 380.2 440.5 l 1
 286.95 -72 l 1
 163.45 -72 l 1
 235.2 440.5 l 1
 104.2 453.25 l 1
EndSplineSet
EndChar

StartChar: daggerdbl
Encoding: 360 8225 289
Width: 489
VWidth: 0
Flags: HW
LayerCount: 2
Fore
SplineSet
86.55 146.5 m 1
 103.8 255 l 1
 241.45 269.95 l 1
 265.9 440.5 l 1
 135.45 453.25 l 1
 152.15 561.75 l 1
 287.7 574.5 l 1
 329.15 770 l 1
 452.2 770 l 1
 432.7 574.5 l 1
 562.15 561.75 l 1
 545.45 453.25 l 1
 410.9 440.5 l 1
 380.8 269.4 l 1
 513.8 255 l 1
 496.55 146.5 l 1
 354.8 132.65 l 1
 318.2 -72 l 1
 194.7 -72 l 1
 222.75 131.55 l 1
 86.55 146.5 l 1
EndSplineSet
EndChar

StartChar: trademark
Encoding: 361 8482 290
Width: 628
VWidth: 0
Flags: HW
LayerCount: 2
Fore
SplineSet
37.65 651.5 m 1
 50.4 732 l 1
 331.4 732 l 1
 318.65 651.5 l 1
 224.4 651.5 l 1
 182.15 383 l 1
 90.65 383 l 1
 132.9 651.5 l 1
 37.65 651.5 l 1
293.4 383 m 1
 386.4 732 l 1
 479.05 732 l 1
 505.25 530.6 l 1
 587.6 732 l 1
 687.4 732 l 1
 674.4 383 l 1
 582.9 383 l 1
 593.5 567.4 l 1
 526.95 383 l 1
 446.45 383 l 1
 428.6 566.75 l 1
 384.9 383 l 1
 293.4 383 l 1
EndSplineSet
EndChar

StartChar: notequal
Encoding: 362 8800 291
Width: 535
VWidth: 0
Flags: HW
LayerCount: 2
Fore
SplineSet
117.85 184.5 m 1
 136.9 304.75 l 1
 287.2 304.75 l 1
 356.8 396.75 l 1
 151.5 396.75 l 1
 170.55 517 l 1
 444.85 517 l 1
 494.6 582.65 l 1
 566.6 582.65 l 1
 516.85 517 l 1
 597.55 517 l 1
 578.5 396.75 l 1
 428.8 396.75 l 1
 359.2 304.75 l 1
 563.9 304.75 l 1
 544.85 184.5 l 1
 270.15 184.5 l 1
 212.95 107.85 l 1
 140.95 107.85 l 1
 198.15 184.5 l 1
 117.85 184.5 l 1
EndSplineSet
EndChar

StartChar: infinity
Encoding: 363 8734 292
Width: 668
VWidth: 0
Flags: HW
LayerCount: 2
Fore
SplineSet
46.3 352 m 0
 57.15 442.6 105.8 514 243.8 514 c 3
 315.3 514 365.35 478 398.75 418.9 c 1
 446.3 481.3 512.8 514 588.8 514 c 3
 723.2 514 744.05 417.45 732.3 330 c 0
 719.55 235.3 664.85 169 533.8 169 c 3
 470.35 169 412.6 188 372.9 264.9 c 1
 323.25 196.1 270 169 188.8 169 c 3
 65.4 169 35.35 265.4 46.3 352 c 0
152.75 341 m 0
 147.85 303.1 156.35 269.95 212.35 269.95 c 3
 262.1 269.95 295.4 305.75 324.85 341 c 1
 307.45 377.25 275.25 413.05 235.1 413.05 c 3
 171.75 413.05 157.65 380.7 152.75 341 c 0
451 340.45 m 1
 468.85 305.2 492.2 269.95 541.95 269.95 c 3
 596.4 269.95 619.6 300.85 625.85 341 c 0
 632.1 381.15 627.5 413.05 564.7 413.05 c 3
 519.05 413.05 480 376.7 451 340.45 c 1
EndSplineSet
EndChar

StartChar: lessequal
Encoding: 364 8804 293
Width: 530
VWidth: 0
Flags: HW
LayerCount: 2
Fore
SplineSet
87.9 81.45 m 1
 104.85 188.45 l 1
 479.75 188.45 l 1
 462.8 81.45 l 1
 87.9 81.45 l 1
133.8 373 m 1
 154.5 502.5 l 1
 550.55 635.9 l 1
 529.85 506.4 l 1
 287.4 431.55 l 1
 506.9 355.95 l 1
 486.2 230.9 l 1
 133.8 373 l 1
EndSplineSet
EndChar

StartChar: greaterequal
Encoding: 365 8805 294
Width: 428
VWidth: 0
Flags: HW
LayerCount: 2
Fore
SplineSet
50.05 81.45 m 1
 67 188.45 l 1
 442.45 188.45 l 1
 425.5 81.45 l 1
 50.05 81.45 l 1
72.9 229.1 m 1
 93.6 359.5 l 1
 340.85 440.9 l 1
 116.55 511.3 l 1
 137.25 634.1 l 1
 491.2 500.7 l 1
 470.5 371.2 l 1
 72.9 229.1 l 1
EndSplineSet
EndChar

StartChar: circumflex
Encoding: 366 710 295
Width: 317
VWidth: 0
Flags: HW
LayerCount: 2
Fore
SplineSet
50.05 531 m 1
 179.25 666.5 l 1
 283.25 666.5 l 1
 358.55 531 l 1
 268.25 531 l 1
 225.55 596.4 l 1
 153.15 531 l 1
 50.05 531 l 1
EndSplineSet
Substitution2: "'smcp' Lowercase to Small Capitals lookup 16-1" circumflex.smcp
EndChar

StartChar: tilde
Encoding: 367 732 296
Width: 421
VWidth: 0
Flags: HW
LayerCount: 2
Fore
SplineSet
121.9 586.3 m 17
 159.2 620.95 204.5 655.8 253.75 655.8 c 1
 300.45 654.45 319.15 621.7 353.75 621.25 c 1
 386.55 619.7 436.75 644.1 453.75 658.55 c 9
 468.2 598.95 l 17
 434 568.65 391.15 531 343.3 531.45 c 1
 294.45 531.9 274.55 566.45 236.9 566 c 1
 195.65 565.55 171.1 550.5 137.45 531 c 9
 121.9 586.3 l 17
EndSplineSet
Substitution2: "'smcp' Lowercase to Small Capitals lookup 16-1" tilde.smcp
EndChar

StartChar: ring
Encoding: 368 730 297
Width: 276
VWidth: 0
Flags: HW
LayerCount: 2
Fore
SplineSet
130.232 632 m 0
 135.226 689 184.137 733.35 240.137 733.35 c 0
 296.137 733.35 338.226 689 333.232 632 c 0
 328.238 575 280.916 531.1 224.916 531.1 c 0
 168.916 531.1 125.238 575 130.232 632 c 0
188.782 632 m 24
 186.501 608.05 204.506 589.55 228.456 589.55 c 27
 252.406 589.55 272.401 608.05 274.682 632 c 24
 276.963 655.95 259.997 675.45 236.047 675.45 c 27
 212.097 675.45 191.063 655.95 188.782 632 c 24
EndSplineSet
Substitution2: "'smcp' Lowercase to Small Capitals lookup 16-1" ring.smcp
EndChar

StartChar: ellipsis
Encoding: 369 8230 298
Width: 783
VWidth: 0
Flags: HW
LayerCount: 2
Fore
SplineSet
133.061 23 m 2
 147.548 113 l 2
 149.829 128 159.566 138 175.566 138 c 2
 261.566 138 l 2
 279.566 138 285.308 129 282.548 113 c 2
 268.061 23 l 2
 264.994 5 253.9 0 239.9 0 c 2
 153.9 0 l 2
 139.9 0 131.158 9 133.061 23 c 2
405.061 23 m 2
 419.548 113 l 2
 421.829 128 431.566 138 447.566 138 c 2
 533.566 138 l 2
 551.566 138 557.308 129 554.548 113 c 2
 540.061 23 l 2
 536.994 5 525.9 0 511.9 0 c 2
 425.9 0 l 2
 411.9 0 403.158 9 405.061 23 c 2
677.061 23 m 2
 691.548 113 l 2
 693.829 128 703.566 138 719.566 138 c 2
 805.566 138 l 2
 823.566 138 829.308 129 826.548 113 c 2
 812.061 23 l 2
 808.994 5 797.9 0 783.9 0 c 2
 697.9 0 l 2
 683.9 0 675.158 9 677.061 23 c 2
EndSplineSet
EndChar

StartChar: fraction
Encoding: 370 8260 299
Width: 322
VWidth: 0
Flags: HW
LayerCount: 2
Fore
SplineSet
-68.55 0 m 1
 408.598 752.9 l 1
 509.898 752.9 l 1
 32.75 0 l 1
 -68.55 0 l 1
EndSplineSet
EndChar

StartChar: dotlessi
Encoding: 371 305 300
Width: 226
VWidth: 0
Flags: HW
LayerCount: 2
Fore
SplineSet
38 0 m 1
 122 531 l 1
 262 531 l 1
 178 0 l 1
 38 0 l 1
EndSplineSet
EndChar

StartChar: fi
Encoding: 372 64257 301
Width: 598
VWidth: 0
Flags: HW
LayerCount: 2
Fore
SplineSet
45.7 424 m 1
 60.2 514 l 1
 146.8 531 l 1
 157.55 587.3 l 2
 177 711 267.15 783.8 404.25 786 c 1
 455.05 786.55 591.85 775.25 632.8 757.5 c 1
 619.3 674.4 l 1
 618.3 674.4 436.65 679.9 436.65 679.9 c 2
 383.05 681.7 307.95 664.95 292.05 565.3 c 2
 286.8 531 l 1
 632.15 521 l 1
 549.6 0 l 1
 409.15 0 l 1
 476.2 424 l 1
 268.95 424 l 1
 201.9 0 l 1
 61.9 0 l 1
 128.95 424 l 1
 45.7 424 l 1
EndSplineSet
Ligature2: "'liga' Standard Ligatures lookup 15-1" f i
EndChar

StartChar: fl
Encoding: 373 64258 302
Width: 690
VWidth: 0
Flags: HW
LayerCount: 2
Fore
SplineSet
81.55 424 m 1
 96.05 513.1 l 1
 183.55 531 l 1
 191.75 574.15 l 2
 218.95 746.55 315.15 785.1 433.35 785.1 c 1
 724.1 783.45 l 1
 633.4 211 l 2
 620.15 128.5 635.4 117.65 663.95 107 c 1
 663.95 107 718.7 87.35 723 87.35 c 1
 709.05 0 l 1
 619.05 0 l 2
 529.45 0 468.1 48.45 490.1 189 c 2
 567.6 678.45 l 1
 542.85 678.45 433.75 679 433.75 679 c 2
 375.2 679 341.6 654.05 328.45 568.65 c 2
 323.55 531 l 1
 451.7 531 l 1
 434.75 424 l 1
 306.15 424 l 1
 237.3 0 l 1
 97.3 0 l 1
 165.7 424 l 1
 81.55 424 l 1
EndSplineSet
Ligature2: "'liga' Standard Ligatures lookup 15-1" f l
EndChar

StartChar: exclamdown.alt
Encoding: 374 -1 303
Width: 321
VWidth: 0
Flags: HW
LayerCount: 2
Fore
SplineSet
81.55 -148.05 m 1
 179.8 385.15 l 1
 294.4 385.15 l 1
 223.9 -148.05 l 1
 81.55 -148.05 l 1
185.3 472.4 m 2
 198.8 559.95 l 2
 200.8 573.95 212.8 581.95 226.8 582.95 c 1
 311.55 582.95 l 1
 323.55 581.95 333.55 570.95 331.55 556.95 c 2
 318.05 472.4 l 1
 315.6 459.85 308.6 448.1 292.95 446.3 c 1
 203.95 446.3 l 1
 190.95 446.75 183.2 455.65 185.3 472.4 c 2
EndSplineSet
EndChar

StartChar: ampersand.salt
Encoding: 375 -1 304
Width: 978
VWidth: 0
Flags: HW
LayerCount: 2
Fore
SplineSet
84.05 330.55 m 2
 96.4 416.25 l 2
 120.5 585 212.7 601.4 376.95 602.5 c 1
 806.95 602.5 l 1
 844.65 727.3 l 1
 966.65 727.3 l 1
 946.95 601.4 l 1
 1057.95 601.4 l 1
 1042.9 506.6 l 1
 928.9 487.15 l 1
 885.9 201.85 l 2
 857.5 24 724.55 -1.1 590.9 -1.1 c 2
 428.7 -1.1 l 0
 331.35 -0.55 230.85 37.6 248.05 162.25 c 1
 143.25 162.25 65 210.35 84.05 330.55 c 2
223.5 324.5 m 2
 216.6 283.65 227.8 271.55 265.1 271.1 c 1
 284.65 393.3 362.3 436 481.55 436 c 2
 555.55 436 l 1
 639.5 436 726.05 410.6 708.2 289.15 c 1
 689 168.3 617.5 165.65 511.5 165.65 c 2
 389.15 165.65 l 1
 382.65 120.35 409.1 116.6 447.8 115.25 c 1
 609.05 115.25 l 2
 692.05 115.25 736.1 153.9 746.45 220 c 2
 788.35 486.6 l 1
 363.85 486.6 l 0
 268.65 485.7 247.2 471.4 236.4 405.25 c 2
 223.5 324.5 l 2
405.1 270 m 1
 526.35 270 l 2
 554.55 270 565.05 271.3 569.85 301.25 c 0
 573.65 326.95 567 331.2 536.4 331.2 c 2
 470.65 331.2 l 2
 435.3 331.2 414.7 327.6 405.1 270 c 1
EndSplineSet
EndChar

StartChar: a.superior
Encoding: 376 -1 305
Width: 401
VWidth: 0
Flags: HW
LayerCount: 2
Fore
SplineSet
106.1 568.4 m 0
 134.6 717.85 220.9 729.9 283.55 731.7 c 0
 339.15 733.5 433.8 720.7 468.9 687.7 c 1
 422 366.25 l 1
 342.55 366.25 l 1
 324.15 413.65 l 17
 305.8 385.3 263.5 361.25 206.45 361.25 c 3
 130.35 361.25 79.8 425.85 106.1 568.4 c 0
206.9 553.4 m 0
 197.3 488.45 199.95 452.5 239.7 452.5 c 3
 276.7 452.5 310.2 468.45 332 489.25 c 1
 354.75 640.25 l 1
 328.05 647.4 294.7 650.3 274.5 647.3 c 0
 250.45 643.75 217.95 631.95 206.9 553.4 c 0
EndSplineSet
EndChar

StartChar: b.superior
Encoding: 377 -1 306
Width: 414
VWidth: 0
Flags: HW
LayerCount: 2
Fore
SplineSet
97.55 370.3 m 1
 180.55 893.75 l 1
 288.2 893.75 l 1
 258.85 709 l 1
 297.2 726.25 340.6 735.15 373.5 735.15 c 3
 482 735.15 485.8 634.2 472.1 533.1 c 0
 456.95 420.45 411.3 366.3 314.95 366.3 c 3
 268.35 366.3 233.5 390.85 212.2 410.9 c 9
 183.75 370.3 l 1
 97.55 370.3 l 1
223.05 479.3 m 1
 243.35 467.5 261.6 459.1 299.7 459.1 c 3
 332.2 459.1 356.35 485.55 365 552.35 c 0
 376 637.45 362.05 649.5 330 649.5 c 1
 294.55 649.5 276.7 645.15 248 635.8 c 1
 223.05 479.3 l 1
EndSplineSet
Ligature2: "'ordn' Ordinals lookup 21-1" b
EndChar

StartChar: c.superior
Encoding: 378 -1 307
Width: 356
VWidth: 0
Flags: HW
LayerCount: 2
Fore
SplineSet
116.15 558.3 m 0
 140.4 709.35 197.95 728.2 271.75 728.2 c 3
 309.65 728.2 387.55 721.05 440.75 703.9 c 1
 429.9 636.45 l 1
 429.9 636.45 369.3 640.9 306.7 640.9 c 3
 261.7 640.9 239.6 639.45 223.9 545.85 c 0
 210.55 464.25 226.25 453.7 276.95 453.7 c 3
 341.55 453.7 407.15 459.05 407.15 459.05 c 1
 395.85 392.25 l 17
 338.45 370.85 298.3 365.85 219.25 366.4 c 0
 144.3 366.95 94.15 423 116.15 558.3 c 0
EndSplineSet
Ligature2: "'ordn' Ordinals lookup 21-1" c
EndChar

StartChar: d.superior
Encoding: 379 -1 308
Width: 414
VWidth: 0
Flags: HW
LayerCount: 2
Fore
SplineSet
116.7 563.8 m 0
 132.45 661.4 165.35 735.6 273.85 735.6 c 3
 306.75 735.6 347.7 726.7 381.15 709.45 c 1
 410.5 894.65 l 1
 517.25 894.65 l 1
 433.8 370.3 l 1
 347.6 370.3 l 1
 332.5 410.9 l 17
 302.3 387.7 266.85 366.3 220.25 366.3 c 3
 121.65 366.3 101 471.05 116.7 563.8 c 0
225.45 552.8 m 0
 215 479.25 227.95 459.1 260.45 459.1 c 3
 298.55 459.1 319.05 467.5 343.8 484.25 c 1
 368.3 638.5 l 1
 340.25 646.95 326.65 649.95 291.2 649.95 c 1
 259.15 649.95 237.8 637 225.45 552.8 c 0
EndSplineSet
Ligature2: "'ordn' Ordinals lookup 21-1" d
EndChar

StartChar: e.superior
Encoding: 380 -1 309
Width: 392
VWidth: 0
Flags: HW
LayerCount: 2
Fore
SplineSet
118.6 565.5 m 0
 138.15 678 171.15 729.75 305.9 730.3 c 1
 387.9 730.85 468.45 707.4 461.3 623.15 c 0
 448.35 467.55 240.4 496.9 215.95 507.45 c 1
 207.9 459.5 228.3 449.2 269 448.75 c 1
 309 446.95 380.75 452.4 422.75 458.75 c 1
 410.15 383.25 l 17
 354.8 365.6 288.55 356.1 211.2 362.15 c 0
 123.1 368.2 95.95 434.7 118.6 565.5 c 0
222.05 568 m 0
 222.05 568 345.8 539.95 358.5 606.45 c 0
 364.3 639.05 334.65 643.15 300.8 643.15 c 1
 237.8 643.15 230.1 612.2 222.05 568 c 0
EndSplineSet
Ligature2: "'ordn' Ordinals lookup 21-1" e
EndChar

StartChar: f.superior
Encoding: 381 -1 310
Width: 310
VWidth: 0
Flags: HW
LayerCount: 2
Fore
SplineSet
117.7 642.85 m 1
 129 713.3 l 1
 190.05 727.6 l 1
 199.25 774.65 l 2
 212.4 838.15 247.25 894.75 336.7 894.75 c 0
 373.15 894.75 403.05 889.95 433.65 877.2 c 1
 421.9 812.55 l 1
 421.35 812.55 353.8 813.1 353.8 813.1 c 2
 311.3 813.65 308.7 785.45 303.7 752.8 c 2
 299.35 726.3 l 1
 387.1 726.3 l 1
 373.8 642.85 l 1
 285.15 642.85 l 9
 242 370.3 l 17
 133.8 370.3 l 1
 176.95 642.85 l 1
 117.7 642.85 l 1
EndSplineSet
Ligature2: "'ordn' Ordinals lookup 21-1" f
EndChar

StartChar: g.superior
Encoding: 382 -1 311
Width: 404
VWidth: 0
Flags: HW
LayerCount: 2
Fore
SplineSet
82.05 200.1 m 1
 94 273.35 l 1
 257.25 273.35 l 2
 296.15 273.35 322.6 293.25 329.05 333.6 c 2
 338.2 393.15 l 1
 304.8 372.6 271.55 364.6 238.1 364.6 c 3
 131.15 364.6 101.45 450.9 121.1 569.4 c 0
 142.55 695.35 203.85 734.6 294.05 734.6 c 3
 372.95 734.6 461.3 722.25 497.4 711.55 c 1
 435.25 315.8 l 2
 419.7 219.5 357.5 173.6 258.2 184.1 c 2
 82.05 200.1 l 1
229.85 556 m 0
 220.65 502.75 215.7 450.35 271.4 450.35 c 3
 303.75 450.35 315.3 451.8 349.05 461.95 c 1
 378.9 650.6 l 2
 303.25 650.6 l 2
 245.8 650.6 236.75 593 229.85 556 c 0
EndSplineSet
Ligature2: "'ordn' Ordinals lookup 21-1" g
EndChar

StartChar: h.superior
Encoding: 383 -1 312
Width: 422
VWidth: 0
Flags: HW
LayerCount: 2
Fore
SplineSet
101.15 370.3 m 1
 184.15 892.2 l 1
 291.8 892.2 l 1
 258.9 683.9 l 1
 295.15 707.7 328.75 733.5 388.65 733.5 c 3
 479.65 733.5 495.5 676.3 484.85 607.95 c 2
 447.5 370.3 l 9
 339.3 370.3 l 17
 375.2 598.6 l 2
 380.55 632.8 365.2 645.65 340.75 645.65 c 3
 303.25 645.65 282.55 636.95 248.6 616.8 c 1
 209.35 370.3 l 1
 101.15 370.3 l 1
EndSplineSet
Ligature2: "'ordn' Ordinals lookup 21-1" h
EndChar

StartChar: i.superior
Encoding: 384 -1 313
Width: 193
VWidth: 0
Flags: HW
LayerCount: 2
Fore
SplineSet
99.7 370.3 m 1
 155.7 726.3 l 1
 263.9 726.3 l 1
 207.9 370.3 l 1
 99.7 370.3 l 1
163.25 778.65 m 2
 174.1 846.4 l 2
 176.1 857.4 183.1 865.4 195.1 865.4 c 2
 275.25 865.4 l 2
 286.25 865.4 290.7 857.4 288.7 846.4 c 2
 277.85 778.65 l 2
 275.85 767.65 269.4 761.65 258.4 761.65 c 2
 178.25 761.65 l 2
 167.25 761.65 161.25 767.65 163.25 778.65 c 2
EndSplineSet
Ligature2: "'ordn' Ordinals lookup 21-1" i
EndChar

StartChar: j.superior
Encoding: 385 -1 314
Width: 193
VWidth: 0
Flags: HW
LayerCount: 2
Fore
SplineSet
71.8 187.75 m 1
 156.8 724.75 l 1
 265.9 724.75 l 1
 208.9 366.75 l 2
 200.9 308.75 188.45 244.25 153.65 187.75 c 1
 71.8 187.75 l 1
163.7 778 m 2
 174.55 846.3 l 2
 176.55 857.3 183.55 865.3 195.55 865.3 c 2
 275.7 865.3 l 2
 286.7 865.3 291.7 857.3 289.7 846.3 c 2
 278.85 778 l 2
 276.85 767 269.85 760.55 258.85 760.55 c 2
 178.7 760.55 l 2
 167.7 760.55 161.7 767 163.7 778 c 2
EndSplineSet
Ligature2: "'ordn' Ordinals lookup 21-1" j
EndChar

StartChar: k.superior
Encoding: 386 -1 315
Width: 397
VWidth: 0
Flags: HW
LayerCount: 2
Fore
SplineSet
101.15 370.3 m 1
 184.15 891.3 l 1
 292.35 891.3 l 1
 244.45 596.85 l 1
 304.45 615.95 366.2 668.75 384.9 726.35 c 1
 498.9 726.35 l 1
 474.6 639.05 404.45 583.05 363.4 561.95 c 1
 475.6 370.3 l 1
 353.15 370.3 l 1
 261.1 534 l 1
 235.15 533.45 l 9
 209.35 370.3 l 17
 101.15 370.3 l 1
EndSplineSet
Ligature2: "'ordn' Ordinals lookup 21-1" k
EndChar

StartChar: l.superior
Encoding: 387 -1 316
Width: 242
VWidth: 0
Flags: HW
LayerCount: 2
Fore
SplineSet
121.15 498.55 m 2
 183.15 892.3 l 1
 291.9 892.3 l 1
 232.55 519.15 l 2
 224.65 468.75 231.2 458.85 253.4 450.85 c 2
 253.4 450.85 294.45 436.85 299.45 436.85 c 1
 289.15 370.3 l 1
 215 370.3 l 2
 148.15 370.3 106.15 404.55 121.15 498.55 c 2
EndSplineSet
Ligature2: "'ordn' Ordinals lookup 21-1" l
EndChar

StartChar: m.superior
Encoding: 388 -1 317
Width: 661
VWidth: 0
Flags: HW
LayerCount: 2
Fore
SplineSet
97.55 370.3 m 1
 153.55 723.75 l 1
 240 723.75 l 1
 251.55 680.25 l 1
 291.1 705.7 321.4 729.4 380.05 729.4 c 1
 430.7 729.4 463 709.6 474.55 677.55 c 1
 513.6 703.5 563.05 729.4 624 729.4 c 1
 704.65 729.4 733.3 675 722.2 604.95 c 2
 684.85 370.3 l 1
 576.65 370.3 l 1
 612.55 595.6 l 2
 617.45 627.55 602.45 642.1 578 642.1 c 1
 540.7 642.1 513.95 635.3 483.6 615.45 c 1
 483.05 612.7 480.25 595.55 479.7 592.25 c 2
 444.8 370.3 l 1
 336.6 370.3 l 1
 372.5 595.6 l 2
 377.4 627.55 361.5 642.1 337.05 642.1 c 1
 299.1 642.1 277.95 633.4 244 613.25 c 1
 205.75 370.3 l 1
 97.55 370.3 l 1
EndSplineSet
Ligature2: "'ordn' Ordinals lookup 21-1" m
EndChar

StartChar: n.superior
Encoding: 389 -1 318
Width: 422
VWidth: 0
Flags: HW
LayerCount: 2
Fore
SplineSet
101.15 370.3 m 1
 157.15 723.75 l 1
 241.8 723.75 l 1
 255.7 681.6 l 1
 293.6 706.5 326 730.75 386.45 730.75 c 3
 478.55 730.75 495.5 674.1 484.85 606.3 c 2
 447.5 370.3 l 9
 339.3 370.3 l 17
 375.65 597.4 l 2
 381 631.6 365.55 643.9 341.1 643.9 c 3
 303.15 643.9 282 634.75 248.05 614.6 c 1
 209.35 370.3 l 1
 101.15 370.3 l 1
EndSplineSet
Ligature2: "'ordn' Ordinals lookup 21-1" n
EndChar

StartChar: o.superior
Encoding: 390 -1 319
Width: 397
VWidth: 0
Flags: HW
LayerCount: 2
Fore
SplineSet
116.7 551.65 m 0
 137 692.95 181.45 728.65 312.75 728.65 c 3
 444.25 728.65 474.5 669.35 453.85 532.95 c 0
 433.75 401.5 397 365.95 260.7 365.95 c 3
 130.55 365.95 98.5 423.85 116.7 551.65 c 0
218.85 542.85 m 0
 205.25 457.65 224.35 453.25 271.4 453.25 c 3
 324.55 453.25 337.2 456 351.7 542.85 c 0
 366.2 630.8 358 641.35 301.15 641.35 c 3
 245 641.35 232.9 633.95 218.85 542.85 c 0
EndSplineSet
EndChar

StartChar: p.superior
Encoding: 391 -1 320
Width: 410
VWidth: 0
Flags: HW
LayerCount: 2
Fore
SplineSet
72.15 189.6 m 1
 155.15 711.25 l 1
 209.2 725.55 277.45 731.95 362 731.95 c 3
 455.75 731.95 489.3 654.75 472.8 540.6 c 0
 457.7 430.6 423.05 358.55 313.05 358.55 c 3
 281.05 358.55 236.6 367.45 210.55 388.55 c 1
 179 189.6 l 1
 72.15 189.6 l 1
221.95 459 m 1
 246.05 448.65 264.7 444.75 295.7 444.75 c 3
 334.75 444.75 352 464.85 365.7 550.5 c 0
 374.85 608.65 370.5 648.4 327 648.4 c 0
 252.35 648.4 l 1
 221.95 459 l 1
EndSplineSet
Ligature2: "'ordn' Ordinals lookup 21-1" p
EndChar

StartChar: q.superior
Encoding: 392 -1 321
Width: 413
VWidth: 0
Flags: HW
LayerCount: 2
Fore
SplineSet
120.3 563.35 m 0
 142.3 693.7 203.6 732.4 293.8 732.4 c 3
 372.7 732.4 455.45 720.6 491.55 709.9 c 1
 409.1 184.65 l 17
 300.9 184.65 l 9
 332.9 387.65 l 1
 299.5 366.55 268.2 359 236.2 358.55 c 1
 129.8 358.55 100.65 444.85 120.3 563.35 c 0
227.95 550.5 m 0
 218.75 497.25 214.35 444.3 270.05 444.3 c 1
 302.85 443.85 310 446.85 343.75 458.1 c 1
 374.15 648.4 l 2
 303 648.4 l 2
 245.55 648.4 234.85 587.5 227.95 550.5 c 0
EndSplineSet
Ligature2: "'ordn' Ordinals lookup 21-1" q
EndChar

StartChar: r.superior
Encoding: 393 -1 322
Width: 312
VWidth: 0
Flags: HW
LayerCount: 2
Fore
SplineSet
97.55 370.3 m 1
 153.55 723.75 l 1
 245.3 723.75 l 1
 249.9 673.3 l 1
 281.2 699.85 320.45 727.75 367.9 727.75 c 27
 384.95 727.75 401.15 726.85 410.25 722.85 c 1
 393.65 618.85 l 1
 383.55 619.75 361.75 620.65 340.3 620.65 c 27
 299.8 620.65 270.8 614.8 239.6 584.2 c 1
 205.75 370.3 l 1
 97.55 370.3 l 1
EndSplineSet
Ligature2: "'ordn' Ordinals lookup 21-1" r
EndChar

StartChar: s.superior
Encoding: 394 -1 323
Width: 362
VWidth: 0
Flags: W
HStem: 363.7 90.5<113.6 312.191> 508.25 75.75<221.599 315.816> 640.4 90.05<223.53 419.9>
VStem: 103.3 327.35
LayerCount: 2
Fore
SplineSet
103.3 386.3 m 9
 113.6 454.2 l 17
 286.05 454.2 l 18
 292.65 454.2 311.4 453.5 314.1 475.1 c 1
 315.9 486.9 l 2
 317.25 501.2 314.55 508.25 295 508.25 c 10
 211.75 508.25 l 2
 148.75 508.25 113.2 549.75 122.75 611.6 c 10
 127.2 643.3 l 18
 136.1 698.9 166.65 730.45 236.1 730.45 c 3
 305.1 730.45 406.1 727.5 430.65 709.75 c 9
 419.9 640.4 l 17
 254.8 640.4 l 2
 230.95 640.4 225.3 633.2 223.4 619.35 c 10
 221.6 605.8 l 18
 218.8 585.55 230.65 584 246.3 584 c 2
 331.2 584 l 2
 400.8 584 424.5 535.55 417.5 491.55 c 1
 410.95 452.9 l 2
 398.4 376.7 353.2 363.7 307.95 363.7 c 3
 240.4 363.7 125.45 367.9 103.3 386.3 c 9
EndSplineSet
Ligature2: "'ordn' Ordinals lookup 21-1" s
EndChar

StartChar: t.superior
Encoding: 395 -1 324
Width: 282
VWidth: 0
Flags: W
HStem: 370.75 67.45<269.174 317.9> 643.4 83.45<300 369.55> 643.4 66.15<127.35 153.198>
VStem: 117.7 265.15
DStem2: 154.8 494.2 266.2 515.5 0.157041 0.987592<-20.2247 151.071>
LayerCount: 2
Fore
SplineSet
117.7 643.4 m 1xb0
 127.35 709.55 l 1xb0
 194 727.6 l 1
 226.1 825.85 l 1
 315.55 825.85 l 1
 300 726.85 l 1
 382.85 726.85 l 1
 369.55 643.4 l 1xd0
 286.7 643.4 l 1
 266.2 515.5 l 2
 257.85 463.5 264.95 457.75 287.5 450.75 c 2
 287.5 450.75 325.55 438.2 328.75 438.2 c 1
 317.9 370.75 l 1
 243.5 370.75 l 2
 183.7 370.75 140.35 403.3 154.8 494.2 c 2
 178.5 643.4 l 1
 117.7 643.4 l 1xb0
EndSplineSet
Ligature2: "'ordn' Ordinals lookup 21-1" t
EndChar

StartChar: u.superior
Encoding: 396 -1 325
Width: 419
VWidth: 0
Flags: HW
LayerCount: 2
Fore
SplineSet
112.5 490.45 m 2
 149.85 723.75 l 9
 258.05 723.75 l 17
 221.7 496.65 l 2
 216.8 464.25 232.25 450.6 256.25 450.6 c 3
 292.85 450.6 311.75 458.4 345.7 478.55 c 1
 384.4 723.75 l 1
 492.6 723.75 l 1
 436.6 370.3 l 1
 351.5 370.3 l 1
 338.15 414.65 l 1
 298.05 385.35 271.35 363.3 210.9 363.3 c 3
 118.8 363.3 101.85 422.65 112.5 490.45 c 2
EndSplineSet
Ligature2: "'ordn' Ordinals lookup 21-1" u
EndChar

StartChar: v.superior
Encoding: 397 -1 326
Width: 385
VWidth: 0
Flags: HW
LayerCount: 2
Fore
SplineSet
129.45 723.75 m 25
 235.05 723.75 l 17
 276.85 490.85 l 1
 360.8 649.5 l 2
 370.7 667.05 378.2 689.4 381.65 724.85 c 9
 483.4 724.85 l 17
 492.6 686.9 478.85 647.1 464.45 620.05 c 1
 318.45 370.3 l 9
 206.95 370.3 l 25
 129.45 723.75 l 25
EndSplineSet
Ligature2: "'ordn' Ordinals lookup 21-1" v
EndChar

StartChar: w.superior
Encoding: 398 -1 327
Width: 593
VWidth: 0
Flags: HW
LayerCount: 2
Fore
SplineSet
129.45 723.75 m 1
 233.6 723.75 l 1
 274.95 493.1 l 1
 359.9 649.95 l 2
 369.8 667.5 377.3 689.4 380.75 724.85 c 1
 482.5 724.85 l 1
 489.5 697.35 485.1 669.65 474.55 644.25 c 1
 473.45 641.5 454.8 610.05 453.7 607.3 c 1
 482.6 493.1 l 1
 566.65 649.5 l 2
 576.55 667.05 584.5 689.4 587.95 724.85 c 1
 689.7 724.85 l 1
 698.9 686.9 684.6 647.1 670.2 620.05 c 1
 525.1 370.3 l 1
 416.7 370.3 l 1
 384.2 494.55 l 1
 317.9 370.3 l 1
 206.4 370.3 l 1
 129.45 723.75 l 1
EndSplineSet
Ligature2: "'ordn' Ordinals lookup 21-1" w
EndChar

StartChar: x.superior
Encoding: 399 -1 328
Width: 402
VWidth: 0
Flags: HW
LayerCount: 2
Fore
SplineSet
74 366.7 m 1
 227.1 552.1 l 1
 127.75 723.3 l 1
 244.85 723.3 l 1
 297.95 617.55 l 1
 381.65 723.3 l 1
 502.45 723.3 l 1
 347.25 535.2 l 1
 444.5 366.7 l 1
 330.15 366.7 l 1
 277.95 470.3 l 1
 195.6 366.7 l 1
 74 366.7 l 1
EndSplineSet
Ligature2: "'ordn' Ordinals lookup 21-1" x
EndChar

StartChar: y.superior
Encoding: 400 -1 329
Width: 415
VWidth: 0
Flags: HW
LayerCount: 2
Fore
SplineSet
139.25 161.25 m 0
 139.25 229.65 l 0
 206.85 273.5 251.6 343.95 265.35 370.9 c 1
 208.05 372.25 176.8 409.15 172 455.2 c 2
 131.25 724.75 l 1
 239.7 724.75 l 1
 271.7 480.75 l 2
 274.05 462 285.7 453.4 300.75 452.85 c 1
 390.6 637.85 l 2
 399.05 658.6 405.7 683.9 410.25 724.85 c 9
 512 724.85 l 17
 521.2 686.35 509.65 646.55 496.9 618.4 c 1
 377.65 369.55 l 2
 288.75 188.5 183.75 167.6 139.25 161.25 c 0
EndSplineSet
Ligature2: "'ordn' Ordinals lookup 21-1" y
EndChar

StartChar: z.superior
Encoding: 401 -1 330
Width: 361
VWidth: 0
Flags: HW
LayerCount: 2
Fore
SplineSet
96.9 371.3 m 25
 111.3 461.9 l 25
 297.15 632.05 l 17
 127.5 632.05 l 17
 142.45 723.75 l 25
 449.15 723.75 l 25
 436.3 642.05 l 25
 249.15 463 l 17
 407.1 463 l 17
 408.1 462 392.7 371.3 392.7 371.3 c 25
 96.9 371.3 l 25
EndSplineSet
Ligature2: "'ordn' Ordinals lookup 21-1" z
EndChar

StartChar: zero.tnum
Encoding: 402 -1 331
Width: 611
VWidth: 0
Flags: W
HStem: 0 129<222.253 437.496> 603 129<290.657 508.299>
DStem2: 71.45 178.5 215.3 201.05 0.157547 0.987511<-11.1701 438.633> 459.75 200.5 596.45 178.5 0.156706 0.987645<-62.054 392.201>
LayerCount: 2
Fore
SplineSet
71.45 178.5 m 10
 130.4 548 l 2
 150.05 671.25 214.55 732 332.35 732 c 2
 496.35 732 l 2
 630.55 732 670.6 644.05 655.95 553.5 c 2
 596.45 178.5 l 18
 577.45 59.5 516.4 0 401.8 0 c 2
 237.8 0 l 2
 125.35 0 52.45 58.5 71.45 178.5 c 10
215.3 201.05 m 2
 204.05 129.3 245.25 129 278.95 129 c 10
 375.85 129 l 18
 422.8 129 450.75 146.5 459.75 200.5 c 2
 512.65 531.5 l 2
 520.55 582.45 503.8 603 455.65 603 c 2
 350.5 603 l 2
 286.35 603 271.9 559.35 267.65 531.5 c 2
 215.3 201.05 l 2
EndSplineSet
Substitution2: "'onum' Oldstyle Figures in Latin lookup 5-1" zero.tosf
Substitution2: "'lnum' Lining Figures lookup 19-1" zero
EndChar

StartChar: one.tnum
Encoding: 403 -1 332
Width: 611
VWidth: 0
Flags: W
HStem: 0 119.8<138.9 285.6 426.05 552.3> 557.7 91.5<229.05 296.6> 712 20G<370.9 523.45>
DStem2: 285.6 119.8 426.05 119.8 0.157123 0.987579<22.0679 474.383>
LayerCount: 2
Fore
SplineSet
120.3 0 m 5
 138.9 119.8 l 5
 285.6 119.8 l 5
 361.65 588.05 l 5
 327.2 563.55 258.2 557.7 215 557.7 c 5
 229.05 649.2 l 5
 274.05 649.2 357.7 701.75 384.1 732 c 5
 523.45 732 l 5
 426.05 119.8 l 5
 570.9 119.8 l 5
 552.3 0 l 5
 120.3 0 l 5
EndSplineSet
Substitution2: "'onum' Oldstyle Figures in Latin lookup 5-1" one.tosf
Substitution2: "'lnum' Lining Figures lookup 19-1" one
EndChar

StartChar: two.tnum
Encoding: 404 -1 333
Width: 611
VWidth: 0
Flags: W
HStem: 0 129<313.05 560.75> 612 130<177.414 485.16> 612 104.5<155.7 335.54>
LayerCount: 2
Fore
SplineSet
49.25 0 m 25xc0
 69.05 123 l 17
 180.55 190.95 485.95 398.8 504.25 514.75 c 1
 515.15 584.3 484.4 612 398 612 c 2xc0
 139 612 l 2
 155.7 716.5 l 1xa0
 249.25 732.25 329.6 742 458.75 742 c 3
 605.3 742 660.3 627.55 643.7 502.85 c 0
 623.95 342.8 391.7 185.45 313.05 129 c 9
 581.55 129 l 25
 560.75 0 l 25
 49.25 0 l 25xc0
EndSplineSet
Substitution2: "'onum' Oldstyle Figures in Latin lookup 5-1" two.tosf
Substitution2: "'lnum' Lining Figures lookup 19-1" two
EndChar

StartChar: three.tnum
Encoding: 405 -1 334
Width: 611
VWidth: 0
Flags: W
HStem: -7 130<78.5279 418.736> 21 102<75.4 157.331> 307.15 113<184 336.311> 605 129<196.618 491.218>
DStem2: 443.05 191.25 580.65 161 0.157841 0.987465<-54.3741 89.4212 254.657 397.859>
LayerCount: 2
Fore
SplineSet
58.6 21 m 1x70
 75.4 123 l 1x70
 329.4 123 l 2
 393.9 123 434.25 135.25 443.05 191.25 c 2
 448.1 223.3 l 2
 459.15 293.6 422.15 295.95 363.2 299.05 c 2
 165.2 307.15 l 2
 184 420.15 l 1
 384 429.05 l 2
 453 432.05 485.75 447.8 494.1 500.55 c 2
 499.6 536 l 2
 509.95 598.25 463.8 605 411.8 605 c 2
 144.8 605 l 1
 160.6 706 l 1
 253.6 737 372.1 736 489.1 734 c 0
 592.8 732 659.55 655.2 642.35 547 c 2
 633.55 494.5 l 2
 621.1 417.9 586.1 373.9 535.1 364 c 1
 586.95 345.2 599.9 279.5 587.9 203.5 c 2
 580.65 161 l 2
 562.55 45.4 487.1 -7 365.1 -7 c 0xb0
 251.1 -7 141.6 -10 58.6 21 c 1x70
EndSplineSet
Substitution2: "'onum' Oldstyle Figures in Latin lookup 5-1" three.tosf
Substitution2: "'lnum' Lining Figures lookup 19-1" three
EndChar

StartChar: four.tnum
Encoding: 406 -1 335
Width: 611
VWidth: 0
Flags: W
HStem: 159.5 133<264.9 421.65> 516 20G<502.547 622.75> 712 20G<383.494 553.15>
DStem2: 56.4 224 264.9 292.5 0.556774 0.830664<172.988 611.559> 397.05 2 538.4 2 0.156024 0.987753<22.054 159.409 316.08 463.037>
LayerCount: 2
Fore
SplineSet
56.4 224 m 1
 396.9 732 l 1
 553.15 732 l 1
 264.9 292.5 l 1
 442.45 292.5 l 1
 469.4 459.35 l 1
 514.25 536 l 1
 622.75 536 l 1
 583.8 292.5 l 1
 657.3 292.5 l 1
 640.6 184 l 1
 563 159.5 l 1
 538.4 2 l 1
 397.05 2 l 1
 421.65 159.5 l 1
 80 159.5 l 1
 56.4 224 l 1
EndSplineSet
Substitution2: "'onum' Oldstyle Figures in Latin lookup 5-1" four.tosf
Substitution2: "'lnum' Lining Figures lookup 19-1" four
EndChar

StartChar: five.tnum
Encoding: 407 -1 336
Width: 611
VWidth: 0
Flags: W
HStem: -2.65 134<78.65 419.403> 21.35 110<78.65 215.681> 339.9 123.95<283.023 448.894> 603.9 129<312.4 621.05>
LayerCount: 2
Fore
SplineSet
60.85 21.35 m 1x70
 78.65 131.35 l 1
 360.65 131.35 l 2
 425.8 131.35 439.5 174.25 443.85 202.35 c 2
 454.25 266.2 l 2
 459.25 297.4 459 339.9 399.4 339.9 c 1
 307.7 339.9 l 2
 272.55 339.9 243.7 322.75 236.9 281.4 c 1
 103.1 281.4 l 1
 196.85 732.9 l 17
 641.85 732.9 l 1
 621.05 603.9 l 1
 312.4 603.9 l 25
 278.45 438.9 l 1
 302.5 456.25 332.2 461.95 356 463.85 c 0
 393.7 467.2 439.15 463.95 459.35 463.4 c 0
 563.55 457.9 610.8 376.45 595.9 273.15 c 2
 580 161.85 l 2
 558 24.85 461.2 -0.4 366.35 -2.65 c 1xb0
 241.9 -5.8 190.85 -1.65 60.85 21.35 c 1x70
EndSplineSet
Substitution2: "'onum' Oldstyle Figures in Latin lookup 5-1" five.tosf
Substitution2: "'lnum' Lining Figures lookup 19-1" five
EndChar

StartChar: six.tnum
Encoding: 408 -1 337
Width: 611
VWidth: 0
Flags: W
HStem: -0.55 127.65<248.596 435.367> 321 123.5<256.419 465.218> 609 106.15<474.779 633.05>
LayerCount: 2
Fore
SplineSet
106.25 395 m 0
 148.25 660 247.4 727.55 334.8 735.25 c 0
 436.9 744.05 555.25 734.25 649.75 715.15 c 1
 633.05 609 l 1
 382.55 609 l 2
 293.8 609 266.9 501.45 253.55 423.5 c 1
 314.7 438.45 379.55 444.05 459.05 444.5 c 1
 600.1 445.4 617.15 347.65 603.75 262.5 c 2
 586.5 148 l 2
 566.85 26.1 489.45 -0.55 383.35 -0.55 c 2
 241.3 -0.55 l 2
 131.45 -0.55 56.25 80 106.25 395 c 0
236.85 321 m 1
 219.4 211.4 220.25 127.1 301 127.1 c 2
 380.15 127.1 l 2
 413.15 127.1 445.75 137.45 454 189.75 c 2
 464.75 257 l 2
 473.1 308.1 462.75 321 414.05 321 c 2
 236.85 321 l 1
EndSplineSet
Substitution2: "'onum' Oldstyle Figures in Latin lookup 5-1" six.tosf
Substitution2: "'lnum' Lining Figures lookup 19-1" six
EndChar

StartChar: seven.tnum
Encoding: 409 -1 338
Width: 611
VWidth: 0
Flags: W
HStem: 0 21G<162.05 325.45> 0 21G<162.05 325.45> 603 129<167.05 482.25>
DStem2: 162.05 0 314.95 0 0.464847 0.885391<71.0751 682.735>
LayerCount: 2
Fore
SplineSet
146.25 603 m 1xa0
 167.05 732 l 1
 638.15 732 l 1
 665.4 667.5 l 1
 314.95 0 l 1
 162.05 0 l 1
 482.25 603 l 1
 146.25 603 l 1xa0
EndSplineSet
Substitution2: "'onum' Oldstyle Figures in Latin lookup 5-1" seven.tosf
Substitution2: "'lnum' Lining Figures lookup 19-1" seven
EndChar

StartChar: eight.tnum
Encoding: 410 -1 339
Width: 611
VWidth: 0
Flags: W
HStem: 0 123.5<229.198 433.14> 315 117<273.784 457.411> 613.5 123.5<296.679 505.645>
DStem2: 77.7 178.75 220 183.45 0.156532 0.987673<-19.6057 148.706 294.898 454.181> 451.5 183.45 589.75 160.05 0.15668 0.987649<-53.289 116.445 267.587 417.832>
LayerCount: 2
Fore
SplineSet
77.7 178.75 m 2
 88.85 252 l 2
 98.65 312.8 137.45 348.55 190.4 355.75 c 1
 123.3 386 120.95 454.85 130.05 510 c 2
 140.5 575 l 2
 162.05 712.75 247 737 354.5 737 c 2
 506 737 l 2
 615.45 737 670.65 672.35 652 552.45 c 2
 643.2 499 l 2
 640.1 474.25 617 404.8 547.4 393.1 c 1
 608.55 377.85 610.55 288.95 603.1 245.95 c 2
 589.75 160.05 l 2
 565.1 6.5 476 0 388 0 c 2
 237.5 0 l 2
 57.4 0 69.5 126.9 77.7 178.75 c 2
220 183.45 m 2
 212.65 138.1 229.85 123.5 281.95 123.5 c 2
 375.8 123.5 l 2
 417.55 123.5 445.25 141.05 451.5 183.45 c 2
 462.45 252.7 l 2
 468.7 292.65 450.5 315 409.25 315 c 2
 308 315 l 2
 264.2 315 237.65 295.45 230.95 252.7 c 2
 220 183.45 l 2
269.05 494 m 2
 260.8 442.4 292.15 432 326.15 432 c 2
 426.3 432 l 2
 483.35 432 495.1 461.3 500.55 494 c 2
 507.7 541.1 l 2
 517.95 603.5 495.85 613.5 453.85 613.5 c 2
 359.55 613.5 l 2
 305.7 613.5 285 597.9 276.2 541.1 c 2
 269.05 494 l 2
EndSplineSet
Substitution2: "'onum' Oldstyle Figures in Latin lookup 5-1" eight.tosf
Substitution2: "'lnum' Lining Figures lookup 19-1" eight
EndChar

StartChar: nine.tnum
Encoding: 411 -1 340
Width: 611
VWidth: 0
Flags: W
HStem: 19.55 106.15<89.4 246.107> 290.2 123.5<257.608 466.58> 607.6 127.65<286.029 473.42>
LayerCount: 2
Fore
SplineSet
72.7 19.55 m 1
 89.4 125.7 l 1
 339.9 125.7 l 2
 428.65 125.7 456.1 233.25 469.45 311.2 c 1
 408.3 296.25 342.9 290.65 263.4 290.2 c 1
 122.35 289.3 106.4 392.55 119.8 477.7 c 2
 135.95 581.2 l 2
 155.05 703.1 231.9 735.25 338 735.25 c 2
 480.05 735.25 l 2
 593.2 735.25 665.65 643.7 615.65 328.7 c 0
 573.65 63.7 475.6 7.15 388.2 -0.55 c 0
 286.1 -9.35 161.35 0 72.7 19.55 c 1
258.25 477.7 m 2
 249.9 426.6 259.7 413.7 308.4 413.7 c 2
 485.6 413.7 l 1
 503.05 523.3 501.65 607.6 420.9 607.6 c 2
 342.3 607.6 l 2
 309.3 607.6 276.7 597.25 268.45 544.95 c 2
 258.25 477.7 l 2
EndSplineSet
Substitution2: "'onum' Oldstyle Figures in Latin lookup 5-1" nine.tosf
Substitution2: "'lnum' Lining Figures lookup 19-1" nine
EndChar

StartChar: zero.tosf
Encoding: 412 -1 341
Width: 611
VWidth: 0
Flags: W
HStem: 0 129<222.249 437.496> 503 129<275.769 487.622>
DStem2: 71.45 178.5 215.3 201.05 0.159348 0.987223<-11.1774 337.458> 460.3 200.5 596.45 178.5 0.16009 0.987102<-62.1735 287.241>
LayerCount: 2
Fore
SplineSet
71.45 178.5 m 10
 114.95 448 l 2
 134.6 571.25 199.1 632 316.9 632 c 2
 480.9 632 l 2
 626.1 632 655.7 544.05 641.05 453.5 c 2
 596.45 178.5 l 18
 577.45 59.5 516.4 0 401.8 0 c 2
 237.8 0 l 2
 125.35 0 51.9 58.5 71.45 178.5 c 10
215.3 201.05 m 2
 204.05 129.3 245.25 129 278.95 129 c 10
 375.85 129 l 18
 422.8 129 451.3 146.5 460.3 200.5 c 2
 497.2 431.5 l 2
 505.1 482.45 488.9 503 440.75 503 c 2
 335.6 503 l 2
 273.1 503 256.45 459.35 252.2 431.5 c 2
 215.3 201.05 l 2
EndSplineSet
Substitution2: "'lnum' Lining Figures lookup 19-1" zero
EndChar

StartChar: one.tosf
Encoding: 413 -1 342
Width: 611
VWidth: 0
Flags: W
HStem: 0 119.8<150.35 292 434.2 554.75> 457.7 91.5<215.3 282.688>
DStem2: 292 119.8 434.2 119.8 0.142423 0.989806<20.2525 372.529>
LayerCount: 2
Fore
SplineSet
131.75 0 m 5
 150.35 119.8 l 5
 292 119.8 l 5
 348.4 488.05 l 5
 315.3 464.9 244 457.7 200.8 457.7 c 5
 215.3 549.2 l 5
 260.3 549.2 343.5 601.75 369.9 632 c 5
 507.9 632 l 5
 434.2 119.8 l 5
 573.35 119.8 l 5
 554.75 0 l 5
 131.75 0 l 5
EndSplineSet
Substitution2: "'lnum' Lining Figures lookup 19-1" one
EndChar

StartChar: two.tosf
Encoding: 414 -1 343
Width: 611
VWidth: 0
Flags: W
HStem: 0 129<358.3 560.3> 505.15 129.55<169.95 478.999>
LayerCount: 2
Fore
SplineSet
48.8 0 m 25
 68.6 123 l 17
 195.15 182.8 476.45 310.4 493.4 417.8 c 1
 504.3 484.2 479 506.05 391.25 505.15 c 1
 368.75 505.15 131.35 504.7 131.35 504.7 c 2
 148.5 609.2 l 1
 241.15 625.4 317.45 634.7 450.65 634.7 c 3
 608.9 634.7 653.1 533.5 637.4 416.9 c 1
 618.55 261.8 430.2 161.2 358.3 129 c 9
 581.1 129 l 25
 560.3 0 l 25
 48.8 0 l 25
EndSplineSet
Substitution2: "'lnum' Lining Figures lookup 19-1" two
EndChar

StartChar: three.tosf
Encoding: 415 -1 344
Width: 611
VWidth: 0
Flags: W
HStem: -104.3 130<63.5279 403.736> -76.3 102<60.4 142.331> 209.85 113<169 321.311> 507.7 129<181.618 476.218>
DStem2: 428.05 93.95 565.65 63.7 0.157841 0.987465<-54.3741 89.4212 254.657 397.859>
LayerCount: 2
Fore
SplineSet
43.6 -76.3 m 1x70
 60.4 25.7 l 1
 314.4 25.7 l 2
 378.9 25.7 419.25 37.95 428.05 93.95 c 2
 433.1 126 l 2
 444.15 196.3 407.15 198.65 348.2 201.75 c 2
 150.2 209.85 l 2
 169 322.85 l 1
 369 331.75 l 2
 438 334.75 470.75 350.5 479.1 403.25 c 2
 484.6 438.7 l 2
 494.95 500.95 448.8 507.7 396.8 507.7 c 2
 129.8 507.7 l 1
 145.6 608.7 l 1
 238.6 639.7 357.1 638.7 474.1 636.7 c 0
 577.8 634.7 644.55 557.9 627.35 449.7 c 2
 618.55 397.2 l 2
 606.1 320.6 571.1 276.6 520.1 266.7 c 1
 571.95 247.9 584.9 182.2 572.9 106.2 c 2
 565.65 63.7 l 2
 547.55 -51.9 472.1 -104.3 350.1 -104.3 c 0xb0
 236.1 -104.3 126.6 -107.3 43.6 -76.3 c 1x70
EndSplineSet
Substitution2: "'lnum' Lining Figures lookup 19-1" three
EndChar

StartChar: four.tosf
Encoding: 416 -1 345
Width: 611
VWidth: 0
Flags: W
HStem: 59.5 133<248.9 405.65>
DStem2: 40.4 124 248.9 192.5 0.556774 0.830664<172.988 611.559> 381.05 -98 522.4 -98 0.156024 0.987753<22.054 159.409 316.08 463.037>
LayerCount: 2
Fore
SplineSet
40.4 124 m 1
 380.9 632 l 1
 537.15 632 l 1
 248.9 192.5 l 1
 426.45 192.5 l 1
 453.4 359.35 l 1
 498.25 436 l 1
 606.75 436 l 1
 567.8 192.5 l 1
 641.3 192.5 l 1
 624.6 84 l 1
 547 59.5 l 1
 522.4 -98 l 1
 381.05 -98 l 1
 405.65 59.5 l 1
 64 59.5 l 1
 40.4 124 l 1
EndSplineSet
Substitution2: "'lnum' Lining Figures lookup 19-1" four
EndChar

StartChar: five.tosf
Encoding: 417 -1 346
Width: 611
VWidth: 0
Flags: W
HStem: -103.55 134<62.65 403.403> -79.55 110<62.65 199.681> 239 123.95<267.023 432.894> 503 129<296.4 605.05>
LayerCount: 2
Fore
SplineSet
44.85 -79.55 m 1x70
 62.65 30.45 l 1
 344.65 30.45 l 2
 409.8 30.45 423.5 73.35 427.85 101.45 c 2
 438.25 165.3 l 2
 443.25 196.5 443 239 383.4 239 c 1
 291.7 239 l 2
 256.55 239 227.7 221.85 220.9 180.5 c 1
 87.1 180.5 l 1
 180.85 632 l 17
 625.85 632 l 1
 605.05 503 l 1
 296.4 503 l 25
 262.45 338 l 1
 286.5 355.35 316.2 361.05 340 362.95 c 0
 377.7 366.3 423.15 363.05 443.35 362.5 c 0
 547.55 357 594.8 275.55 579.9 172.25 c 2
 564 60.95 l 2
 542 -76.05 445.2 -101.3 350.35 -103.55 c 1xb0
 225.9 -106.7 174.85 -102.55 44.85 -79.55 c 1x70
EndSplineSet
Substitution2: "'lnum' Lining Figures lookup 19-1" five
EndChar

StartChar: six.tosf
Encoding: 418 -1 347
Width: 611
VWidth: 0
Flags: W
HStem: -0.55 127.65<248.596 435.367> 321 123.5<256.419 465.218> 609 106.15<463.401 633.05>
LayerCount: 2
Fore
SplineSet
106.25 395 m 0
 148.25 660 247.4 727.55 334.8 735.25 c 0
 436.9 744.05 551.2 733.35 649.75 715.15 c 1
 633.05 609 l 1
 382.55 609 l 2
 293.8 609 266.9 501.45 253.55 423.5 c 1
 314.7 438.45 379.55 444.05 459.05 444.5 c 1
 600.1 445.4 617.15 347.65 603.75 262.5 c 2
 586.5 148 l 2
 566.85 26.1 489.45 -0.55 383.35 -0.55 c 2
 241.3 -0.55 l 2
 131.45 -0.55 56.25 80 106.25 395 c 0
236.85 321 m 1
 219.4 211.4 220.25 127.1 301 127.1 c 2
 380.15 127.1 l 2
 413.15 127.1 445.75 137.45 454 189.75 c 2
 464.75 257 l 2
 473.1 308.1 462.75 321 414.05 321 c 2
 236.85 321 l 1
EndSplineSet
Substitution2: "'lnum' Lining Figures lookup 19-1" six
EndChar

StartChar: seven.tosf
Encoding: 419 -1 348
Width: 611
VWidth: 0
Flags: W
HStem: 503 129<151.05 466.25>
DStem2: 146.05 -100 298.95 -100 0.464847 0.885391<71.0751 682.735>
LayerCount: 2
Fore
SplineSet
130.25 503 m 1
 151.05 632 l 1
 622.15 632 l 1
 649.4 567.5 l 1
 298.95 -100 l 1
 146.05 -100 l 1
 466.25 503 l 1
 130.25 503 l 1
EndSplineSet
Substitution2: "'lnum' Lining Figures lookup 19-1" seven
EndChar

StartChar: eight.tosf
Encoding: 420 -1 349
Width: 611
VWidth: 0
Flags: W
HStem: 0 123.5<229.198 433.14> 315 117<273.784 457.411> 613.5 123.5<296.679 505.645>
DStem2: 77.7 178.75 220 183.45 0.156532 0.987673<-19.6057 148.706 294.898 454.181> 451.5 183.45 589.75 160.05 0.15668 0.987649<-53.289 116.445 267.587 417.832>
LayerCount: 2
Fore
SplineSet
77.7 178.75 m 2
 88.85 252 l 2
 98.65 312.8 137.45 348.55 190.4 355.75 c 1
 123.3 386 120.95 454.85 130.05 510 c 2
 140.5 575 l 2
 162.05 712.75 247 737 354.5 737 c 2
 506 737 l 2
 615.45 737 670.65 672.35 652 552.45 c 2
 643.2 499 l 2
 640.1 474.25 617 404.8 547.4 393.1 c 1
 608.55 377.85 610.55 288.95 603.1 245.95 c 2
 589.75 160.05 l 2
 565.1 6.5 476 0 388 0 c 2
 237.5 0 l 2
 57.4 0 69.5 126.9 77.7 178.75 c 2
220 183.45 m 2
 212.65 138.1 229.85 123.5 281.95 123.5 c 2
 375.8 123.5 l 2
 417.55 123.5 445.25 141.05 451.5 183.45 c 2
 462.45 252.7 l 2
 468.7 292.65 450.5 315 409.25 315 c 2
 308 315 l 2
 264.2 315 237.65 295.45 230.95 252.7 c 2
 220 183.45 l 2
269.05 494 m 2
 260.8 442.4 292.15 432 326.15 432 c 2
 426.3 432 l 2
 483.35 432 495.1 461.3 500.55 494 c 2
 507.7 541.1 l 2
 517.95 603.5 495.85 613.5 453.85 613.5 c 2
 359.55 613.5 l 2
 305.7 613.5 285 597.9 276.2 541.1 c 2
 269.05 494 l 2
EndSplineSet
Substitution2: "'lnum' Lining Figures lookup 19-1" eight
EndChar

StartChar: nine.tosf
Encoding: 421 -1 350
Width: 611
VWidth: 0
Flags: W
HStem: -83.15 106.15<73.4 217.183> 187.5 123.5<241.608 450.58> 504.9 127.65<270.029 457.42>
LayerCount: 2
Fore
SplineSet
56.7 -83.15 m 1
 73.4 23 l 1
 323.9 23 l 2
 412.65 23 440.1 130.55 453.45 208.5 c 1
 392.3 193.55 326.9 187.95 247.4 187.5 c 1
 106.35 186.6 90.4 289.85 103.8 375 c 2
 119.95 478.5 l 2
 139.05 600.4 215.9 632.55 322 632.55 c 2
 464.05 632.55 l 2
 577.2 632.55 649.65 541 599.65 226 c 0
 557.65 -39 459.6 -95.55 372.2 -103.25 c 0
 270.1 -112.05 152.55 -105.4 56.7 -83.15 c 1
242.25 375 m 2
 233.9 323.9 243.7 311 292.4 311 c 2
 469.6 311 l 1
 487.05 420.6 485.65 504.9 404.9 504.9 c 2
 326.3 504.9 l 2
 293.3 504.9 260.7 494.55 252.45 442.25 c 2
 242.25 375 l 2
EndSplineSet
Substitution2: "'lnum' Lining Figures lookup 19-1" nine
EndChar

StartChar: partialdiff
Encoding: 422 8706 351
Width: 631
VWidth: 0
Flags: HW
LayerCount: 2
Fore
SplineSet
77.8 238 m 1
 101.8 389 206.7 465 355.55 465 c 3
 406.55 465 464.9 452.25 494.8 408 c 1
 513.6 558.1 476.15 611 387.3 611 c 3
 310.65 611 234.05 583 193.05 560 c 1
 186.3 662 l 1
 260.3 706 323.85 740 411.1 740 c 3
 590.8 740 665.9 579.65 632.35 365 c 0
 596.7 137.85 497.75 -5 299.4 -5 c 3
 163.9 -5 56.85 94.4 77.8 238 c 1
217.25 230 m 0
 206.2 159.55 255.1 122.35 315.85 122.35 c 3
 415.9 122.35 461.7 260.15 470.3 310.85 c 1
 449.2 323.8 409.1 337.65 358.4 337.65 c 3
 267.95 337.65 226.85 290.4 217.25 230 c 0
EndSplineSet
EndChar

StartChar: summation
Encoding: 423 8721 352
Width: 572
VWidth: 0
Flags: HW
LayerCount: 2
Fore
SplineSet
-1.35 -200 m 1
 19.45 -68 l 1
 286.65 270 l 1
 125.85 603 l 1
 146.65 732 l 1
 672.65 732 l 1
 651.85 603 l 9
 294.05 603 l 17
 457.6 263.25 l 9
 205.05 -68 l 25
 545.45 -68 l 17
 524.65 -200 l 1
 -1.35 -200 l 1
EndSplineSet
EndChar

StartChar: product
Encoding: 424 8719 353
Width: 651
VWidth: 0
Flags: HW
LayerCount: 2
Fore
SplineSet
90.05 0 m 1
 185.25 603 l 1
 110.25 603 l 1
 131.05 732 l 1
 751.55 732 l 1
 730.75 603 l 1
 654.75 603 l 1
 559.55 0 l 1
 419.55 0 l 1
 514.75 603 l 1
 325.25 603 l 1
 230.05 0 l 1
 90.05 0 l 1
EndSplineSet
EndChar

StartChar: pi
Encoding: 425 960 354
Width: 644
VWidth: 0
Flags: HW
LayerCount: 2
Fore
SplineSet
78.25 402 m 1
 99.05 531 l 1
 665.55 531 l 1
 644.75 402 l 1
 554.25 402 l 1
 520.35 188 l 2
 510 122.25 528.9 108.5 577.1 108.5 c 2
 646.6 108.5 l 1
 633.55 26 l 1
 605.55 9 568.95 -5 509.55 -5 c 3
 416.5 -5 358.25 50.5 379.25 182.5 c 2
 414.25 402 l 1
 293.25 402 l 1
 229.5 0 l 1
 89.5 0 l 1
 153.25 402 l 1
 78.25 402 l 1
EndSplineSet
EndChar

StartChar: integral
Encoding: 426 8747 355
Width: 443
VWidth: 0
Flags: HW
LayerCount: 2
Fore
SplineSet
-12.95 -179 m 1
 1.1 -91.5 l 1
 63.6 -91.5 l 1
 133.6 -91.5 150.85 4.95 164.55 88 c 9
 230.55 506 l 18
 256.65 669.95 316.05 800 433.05 800 c 3
 511.1 800 533.05 782 550.05 775 c 1
 536 687.5 l 1
 475.5 687.5 l 1
 406.5 687.5 385.9 598.4 370.55 506 c 1
 304.55 88 l 2
 277.35 -85.85 226.05 -204 106.05 -204 c 3
 47.45 -204 6.05 -193 -12.95 -179 c 1
EndSplineSet
EndChar

StartChar: Omega
Encoding: 427 937 356
Width: 762
VWidth: 0
Flags: HW
LayerCount: 2
Fore
SplineSet
55.05 0 m 1
 73.75 117.5 l 1
 186.75 127.5 l 1
 97.8 196.7 96.5 321.05 112.7 415.5 c 0
 138.95 569.05 231.8 739 493.8 739 c 3
 731.9 739 800.1 570.5 771.1 388.5 c 0
 752.1 271.5 718.55 196.3 628.25 126.5 c 1
 733.25 116.5 l 1
 714.55 0 l 1
 464.55 0 l 1
 485.25 127.5 l 1
 591.65 200.6 613.4 276.2 630.55 385 c 0
 646.4 486 634.5 610 478.5 610 c 3
 322.4 610 265.45 485.1 249.05 380 c 0
 231.9 272.75 230.65 213.8 317.75 127.5 c 1
 297.05 0 l 1
 55.05 0 l 1
EndSplineSet
EndChar

StartChar: radical
Encoding: 428 8730 357
Width: 659
VWidth: 0
Flags: HW
LayerCount: 2
Fore
SplineSet
52.45 240 m 1
 73.25 369 l 1
 234.9 369 l 1
 290.35 191 l 1
 619.85 800 l 1
 770.3 800 l 1
 342.35 0 l 1
 205.6 0 l 1
 120.65 240 l 1
 52.45 240 l 1
EndSplineSet
EndChar

StartChar: florin
Encoding: 429 402 358
Width: 526
VWidth: 0
Flags: HW
LayerCount: 2
Fore
SplineSet
-12.95 -179 m 1
 11.1 -91.5 l 1
 73.6 -91.5 l 2
 143.6 -91.5 169.35 4.95 188.2 88 c 2
 256.55 375 l 1
 169.95 375 l 1
 198.9 482.45 l 1
 285.5 482.45 l 1
 290.5 506 l 2
 327.05 658.4 390.3 794.5 507.3 800 c 1
 579.4 804.4 621.6 779.75 633.1 775 c 1
 609.6 687.5 l 1
 549.1 687.5 l 1
 479.65 687.5 454.9 598.4 431.85 506 c 2
 426.85 482 l 1
 542.55 482 l 1
 513.6 375 l 1
 397.9 375 l 1
 329.55 88 l 2
 291.9 -67.15 234.2 -197.4 109.35 -204 c 1
 51.1 -207.85 -0.9 -188.5 -12.95 -179 c 1
EndSplineSet
EndChar

StartChar: approxequal
Encoding: 430 8776 359
Width: 509
VWidth: 0
Flags: HW
LayerCount: 2
Fore
SplineSet
78.55 259.9 m 17
 119.7 292.35 172.55 330.9 236.55 330.9 c 27
 296.55 330.9 319.55 293.9 379.55 293.9 c 27
 426.55 293.9 452.85 309.95 499.55 332.9 c 9
 514 270.55 l 17
 472.1 236.95 423.8 196.9 362.7 196.9 c 3
 310.95 196.9 279.7 234.9 219.7 234.9 c 27
 168.7 234.9 140.15 211.9 89.7 196.9 c 25
 78.55 259.9 l 17
107.1 440.75 m 17
 148.25 473.2 201.1 511.75 265.1 511.75 c 27
 325.1 511.75 348.65 474.75 408.65 474.75 c 27
 455.65 474.75 481.4 490.8 528.1 513.75 c 9
 542.55 451.4 l 17
 500.65 417.8 452.35 377.75 391.25 377.75 c 3
 339.5 377.75 308.25 415.75 248.25 415.75 c 27
 197.25 415.75 168.7 392.75 118.25 377.75 c 25
 107.1 440.75 l 17
EndSplineSet
EndChar

StartChar: uni2206
Encoding: 431 8710 360
Width: 715
VWidth: 0
Flags: HW
LayerCount: 2
Fore
SplineSet
15.05 0 m 1
 442.05 732 l 1
 517.85 732 l 1
 700.85 0 l 1
 15.05 0 l 1
230 123.5 m 1
 558.65 123.5 l 1
 458.4 523.25 l 1
 230 123.5 l 1
EndSplineSet
EndChar

StartChar: lozenge
Encoding: 432 9674 361
Width: 512
VWidth: 0
Flags: HW
LayerCount: 2
Fore
SplineSet
74.05 373 m 1
 338.05 732 l 1
 412.05 732 l 1
 556.05 373 l 1
 296.05 0 l 1
 222.05 0 l 1
 74.05 373 l 1
209.4 367.8 m 1
 279.6 178.45 l 1
 425.7 381.35 l 1
 352.5 558.35 l 1
 209.4 367.8 l 1
EndSplineSet
EndChar

StartChar: onequarter
Encoding: 188 188 362
Width: 967
VWidth: 0
Flags: HW
LayerCount: 2
Fore
SplineSet
109.5 604.1 m 1
 120.9 678 l 1
 156.9 678 223 718.05 240.6 738.4 c 1
 346.8 738.4 l 1
 270.25 255.45 l 1
 162.05 255.45 l 1
 222.1 626.55 l 1
 199.05 608.6 144.15 604.1 109.5 604.1 c 1
191.8 0 m 1
 724.8 770 l 1
 829.8 770 l 1
 296.8 0 l 1
 191.8 0 l 1
561.45 144 m 1
 786.15 481.05 l 1
 903.6 481.05 l 1
 720.85 200.4 l 1
 830.15 200.4 l 1
 846.4 302.7 l 1
 878.55 352.35 l 1
 959.3 352.35 l 1
 935.05 200.4 l 1
 983.6 200.4 l 1
 970.1 115.4 l 1
 917.35 98 l 1
 903.85 0.55 l 1
 798.95 0.55 l 1
 814.1 97.45 l 1
 582.65 97.45 l 1
 561.45 144 l 1
EndSplineSet
Ligature2: "'frac' Diagonal Fractions lookup 11 subtable" one slash four
Ligature2: "'frac' Diagonal Fractions lookup 11 subtable" one fraction four
EndChar

StartChar: brokenbar
Encoding: 166 166 363
Width: 248
VWidth: 0
Flags: HW
LayerCount: 2
Fore
SplineSet
53.1 -72 m 1
 105.1 256 l 1
 223.1 256 l 1
 171.1 -72 l 1
 53.1 -72 l 1
132.1 429 m 1
 186.1 770 l 1
 304.1 770 l 1
 250.1 429 l 1
 132.1 429 l 1
EndSplineSet
EndChar

StartChar: currency
Encoding: 164 164 364
Width: 449
VWidth: 0
Flags: HW
LayerCount: 2
Fore
SplineSet
69.1 179.75 m 1
 124.4 227.6 l 1
 113.25 252.85 107 279.65 111.9 311.7 c 0
 116.35 341.3 126.9 369 144.5 392.25 c 1
 103.65 438.45 l 1
 159.55 487.1 l 1
 198.4 442.35 l 1
 226.85 460.25 259.3 470.7 292.2 470.7 c 0
 325.8 470.7 358.1 460.8 381 443.1 c 1
 435.35 490.65 l 1
 479.8 440.35 l 1
 422.6 390.6 l 1
 432.95 367.15 437.3 337.45 432.85 308.1 c 0
 427.3 273.1 413.1 240.65 390.55 214.2 c 1
 431.8 166.7 l 1
 376.1 116.5 l 1
 331.7 167.7 l 1
 307.1 153.75 277.35 147.85 248.95 147.85 c 0
 217.6 147.85 187.9 158.2 165.9 174.55 c 1
 112.8 127.35 l 1
 69.1 179.75 l 1
191.6 310.8 m 0
 184.25 265.45 214.55 228 259 227.55 c 0
 311.55 227.1 345.35 264.1 354.05 309 c 0
 362.75 352.55 333.35 392.35 284.85 391.9 c 0
 235 391.45 198.95 355.25 191.6 310.8 c 0
EndSplineSet
EndChar

StartChar: onehalf
Encoding: 189 189 365
Width: 1014
VWidth: 0
Flags: HW
LayerCount: 2
Fore
SplineSet
109.5 604.1 m 1
 120.9 678 l 1
 156.9 678 223 718.05 240.6 738.4 c 1
 346.8 738.4 l 1
 270.25 255.45 l 1
 162.05 255.45 l 1
 222.1 626.55 l 1
 199.05 608.6 144.15 604.1 109.5 604.1 c 1
186.3 0 m 1
 719.3 770 l 1
 824.3 770 l 1
 291.3 0 l 1
 186.3 0 l 1
643.9 -0.55 m 25
 658.95 94.85 l 17
 725.6 136.75 916.1 256.4 928.05 331.45 c 1
 934.95 375.1 917 388.1 861.2 388.1 c 2
 702.4 388.1 l 2
 701.5 388.1 714.45 469.65 714.9 469.2 c 1
 777.5 479.95 825.15 488.05 912.55 488.05 c 3
 1013.45 488.05 1050.45 402.3 1039.15 334.45 c 1
 1021.55 218.55 891.75 132.7 850.1 99.4 c 9
 1000.85 99.4 l 25
 984.8 -0.55 l 25
 643.9 -0.55 l 25
EndSplineSet
Ligature2: "'frac' Diagonal Fractions lookup 11 subtable" one slash two
Ligature2: "'frac' Diagonal Fractions lookup 11 subtable" one fraction two
EndChar

StartChar: threequarters
Encoding: 190 190 366
Width: 1079
VWidth: 0
Flags: HW
LayerCount: 2
Fore
SplineSet
68.85 270.55 m 1
 82.35 350.4 l 1
 96.75 350.4 242.3 350.85 242.3 350.85 c 2
 288 350.85 311.9 359.05 316.7 391.5 c 2
 319.05 404.6 l 2
 324.3 439.65 300.9 447.85 261.5 449.4 c 2
 138.65 453.85 l 2
 152.15 540.9 l 1
 277.55 545.8 l 2
 323.1 547.8 345.05 557.15 349.4 587.25 c 2
 350.75 599.35 l 2
 356.65 631.45 335.4 639.55 292.3 639.55 c 2
 123.35 639.55 l 1
 135.85 718.85 l 1
 198.6 740.5 273.35 740.6 352.65 739.05 c 0
 429.65 738.05 471.8 682.05 460.6 611.6 c 2
 455.7 581.55 l 2
 447.7 533.45 423.15 500.85 385.8 493.05 c 1
 423 478.8 432.7 434.35 425.6 389.65 c 2
 421.6 366.05 l 2
 409.5 289.55 362.75 250.45 270.55 250.9 c 0
 193.25 250.9 124.5 248.9 68.85 270.55 c 1
292 0 m 1
 825 770 l 1
 930 770 l 1
 397 0 l 1
 292 0 l 1
650.3 144 m 1
 875.55 481.05 l 1
 992.55 481.05 l 1
 809.25 200.4 l 1
 919 200.4 l 1
 935.25 302.7 l 1
 967.4 352.35 l 1
 1048.15 352.35 l 1
 1023.9 200.4 l 1
 1072 200.4 l 1
 1059.05 115.4 l 1
 1006.2 98 l 1
 992.7 0.55 l 1
 887.35 0.55 l 1
 902.95 97.45 l 1
 671.05 97.45 l 1
 650.3 144 l 1
EndSplineSet
Ligature2: "'frac' Diagonal Fractions lookup 11 subtable" three slash four
Ligature2: "'frac' Diagonal Fractions lookup 11 subtable" three fraction four
EndChar

StartChar: Hbar
Encoding: 435 294 369
Width: 661
VWidth: 0
Flags: HW
LayerCount: 2
Fore
SplineSet
63.55 0 m 1
 145.55 516.45 l 1
 82.35 516.45 l 1
 92 581.9 l 1
 155.2 581.9 l 1
 179.55 732 l 1
 319.55 732 l 1
 295.2 581.9 l 1
 546.2 581.9 l 1
 570.55 732 l 1
 710.55 732 l 1
 686.2 581.9 l 1
 748.5 581.9 l 1
 738.85 516.45 l 1
 676.55 516.45 l 1
 594.55 0 l 1
 454.55 0 l 1
 501.05 289.95 l 1
 250.05 289.95 l 1
 203.55 0 l 1
 63.55 0 l 1
269.95 419.4 m 1
 520.95 419.4 l 1
 536.55 516.45 l 1
 285.55 516.45 l 1
 269.95 419.4 l 1
EndSplineSet
Substitution2: "'c2sc' Capitals to Small Capitals in Latin lookup 17 subtable" hbar.smcp
EndChar

StartChar: hbar
Encoding: 440 295 374
Width: 561
VWidth: 0
Flags: HW
LayerCount: 2
Fore
SplineSet
60 0 m 1
 155.9 604.5 l 1
 88.25 604.5 l 1
 98.45 669.5 l 1
 166.1 669.5 l 1
 184 782.9 l 1
 324.8 782.9 l 1
 306.9 669.5 l 1
 419.45 669.5 l 1
 409.25 604.5 l 1
 296.7 604.5 l 1
 275.9 474.5 l 1
 333.55 506.2 377.1 540.45 451.35 540 c 0
 574.95 540 596.3 454.7 580.1 353.5 c 2
 523.85 0 l 1
 383.85 0 l 1
 440.1 355.7 l 2
 448.45 408.5 428.2 427.95 393.15 427.5 c 0
 348.5 427.05 308.1 413 261.95 381.5 c 1
 201.35 0 l 1
 60 0 l 1
EndSplineSet
Substitution2: "'smcp' Lowercase to Small Capitals lookup 16-1" hbar.smcp
EndChar

StartChar: jcircumflex
Encoding: 442 309 376
Width: 239
VWidth: 0
Flags: HW
LayerCount: 2
Fore
SplineSet
11.7 -270 m 1
 138.7 531 l 1
 280.95 531 l 1
 195.95 -4 l 2
 182.95 -90 164.95 -185.7 116.95 -270 c 1
 11.7 -270 l 1
56.65 595.35 m 1
 185.4 732.65 l 1
 289.4 732.65 l 1
 365.15 595.35 l 1
 273.05 595.35 l 1
 226.55 659.4 l 1
 156.05 595.35 l 1
 56.65 595.35 l 1
EndSplineSet
Substitution2: "'smcp' Lowercase to Small Capitals lookup 16-1" jcircumflex.smcp
EndChar

StartChar: f_f
Encoding: 457 64256 391
Width: 799
VWidth: 0
Flags: HW
LayerCount: 2
Fore
SplineSet
81.55 424 m 1
 96.05 514 l 1
 197.5 531 l 1
 211.5 620 l 2
 221.6 683.9 261.5 776 381.5 776 c 0
 430.5 776 476.2 769.1 516.6 752.45 c 1
 503.1 668.8 l 1
 502.55 668.8 414.55 669.35 414.55 669.35 c 2
 361.45 669.9 355.1 638.85 347.1 590.85 c 2
 337.5 531 l 1
 578.15 531 l 1
 593.7 630 l 2
 608.2 720.85 655.25 786 775.25 786 c 0
 824.25 786 863.8 780.2 904.75 762.45 c 1
 891.25 679.35 l 1
 890.7 679.35 796.65 679.9 796.65 679.9 c 2
 740.8 680.45 737.3 652.7 728.2 597 c 2
 718.15 531 l 1
 837.75 531 l 1
 820.8 424 l 1
 700.3 424 l 1
 633.25 0 l 1
 493.25 0 l 1
 560.3 424 l 1
 318.55 424 l 1
 251.5 0 l 1
 111.5 0 l 1
 178.55 424 l 1
 81.55 424 l 1
EndSplineSet
Ligature2: "'dlig' Discretionary Ligatures lookup 14-1" f f
EndChar

StartChar: f_f_i
Encoding: 458 64259 392
Width: 1007
VWidth: 0
Flags: HW
LayerCount: 2
Fore
SplineSet
81.55 424 m 1
 96.05 514 l 1
 197.5 531 l 1
 211.5 620 l 2
 221.6 683.9 261.5 776 381.5 776 c 0
 430.5 776 476.2 769.1 516.6 752.45 c 1
 503.1 668.8 l 1
 502.55 668.8 414.55 669.35 414.55 669.35 c 2
 361.45 669.9 356.65 638.85 346.55 590.85 c 2
 336.05 531 l 1
 559.7 531 l 1
 565.5 570.8 l 2
 584.95 694.95 682.2 783.8 816.6 786 c 1
 875.95 786.55 1003.75 780.2 1044.7 762.45 c 1
 1031.75 679.35 l 1
 1031.2 679.35 849.55 679.9 849.55 679.9 c 2
 793.25 679.9 720.85 664.5 704.95 565.3 c 2
 699.7 531 l 1
 1044.05 521 l 1
 962.05 0 l 1
 821.6 0 l 1
 888.65 424 l 1
 681.85 424 l 1
 614.8 0 l 1
 474.8 0 l 1
 541.85 424 l 1
 319.1 424 l 1
 252.05 0 l 1
 111.5 0 l 1
 178.55 424 l 1
 81.55 424 l 1
EndSplineSet
Ligature2: "'dlig' Discretionary Ligatures lookup 14-1" f f i
EndChar

StartChar: ffl
Encoding: 459 64260 393
Width: 1099
VWidth: 0
Flags: HW
LayerCount: 2
Fore
SplineSet
81.55 424 m 1
 96.05 514 l 1
 197.5 531 l 1
 211.5 620 l 2
 221.6 683.9 261.5 776 381.5 776 c 0
 430.5 776 476.2 769.1 516.6 752.45 c 1
 503.1 668.8 l 1
 502.55 668.8 414.55 669.35 414.55 669.35 c 2
 361.45 669.9 355.55 638.85 346.55 590.85 c 2
 336.05 531 l 1
 562.45 531 l 1
 569.35 576.3 l 2
 592.95 726.65 676.3 784.2 799 786 c 1
 1096.6 784.35 l 1
 1006.45 211 l 2
 994.1 133.9 1006.2 119 1035.65 107 c 1
 1035.65 107 1092.1 86 1099.1 86 c 1
 1085.6 0 l 1
 986.6 0 l 2
 892.05 0 840.6 48 862.6 189 c 2
 939.75 679.35 l 1
 915 679.35 809.95 679.9 809.95 679.9 c 2
 753.65 679.9 722.5 659 709.35 576.3 c 2
 702.45 531 l 1
 822.05 531 l 1
 804.55 424 l 1
 684.05 424 l 1
 617 0 l 1
 477 0 l 1
 544.05 424 l 1
 319.1 424 l 1
 252.05 0 l 1
 111.5 0 l 1
 178.55 424 l 1
 81.55 424 l 1
EndSplineSet
Ligature2: "'dlig' Discretionary Ligatures lookup 14-1" f f l
EndChar

StartChar: c_t
Encoding: 460 -1 394
Width: 853
VWidth: 0
Flags: HW
LayerCount: 2
Fore
SplineSet
70.65 279.75 m 0
 110.8 521.2 195.75 531.65 294.15 531.65 c 0
 665.6 531.9 l 1
 712.55 679.45 l 1
 829.05 679.45 l 1
 805.6 531.45 l 1
 924.3 531.45 l 1
 907.35 423.55 l 1
 788.65 423.55 l 1
 754.9 211.45 l 2
 741.65 127.85 754.1 117.45 784.9 106.35 c 2
 784.9 106.35 839.65 86.7 843.95 86.7 c 1
 830 -0.65 l 1
 728.9 -0.65 l 2
 642.15 -0.65 589.6 48.9 611.6 189.45 c 2
 648.65 423.55 l 1
 337.15 423 l 3
 277.6 423 239.05 430.15 209.65 259.25 c 0
 186.5 121.8 213 105.5 281.85 105.5 c 3
 373.85 105.5 475.4 114.85 475.4 114.85 c 1
 461.45 26.95 l 17
 378.1 -0.45 317.2 -7 208.35 -6.55 c 0
 106.35 -6.1 34.55 61.15 70.65 279.75 c 0
EndSplineSet
Ligature2: "'dlig' Discretionary Ligatures lookup 14-1" c t
EndChar

StartChar: s_t
Encoding: 461 64262 395
Width: 887
VWidth: 0
Flags: HW
LayerCount: 2
Fore
SplineSet
55.75 21.2 m 9
 69.7 108.65 l 17
 320.05 108.65 l 18
 329.4 108.65 355.35 109.8 360.95 142.3 c 2
 365.55 167.55 l 2
 369.35 189.9 363.65 202.2 335.05 202.2 c 10
 216.2 202.2 l 2
 122.2 202.2 70.55 254.1 86.55 355.75 c 10
 92.9 402.2 l 18
 104.05 486.55 155.5 531.45 258.5 531.45 c 1
 694.65 531.45 l 1
 741.15 679.45 l 1
 857.65 679.45 l 1
 834.65 531.45 l 1
 953.35 531.45 l 1
 935.85 425.35 l 1
 817.15 425.35 l 1
 783.95 211.45 l 2
 771.15 127.85 782.7 117.45 813.5 106.35 c 2
 813.5 106.35 868.15 86.7 872.45 86.7 c 1
 858.5 -0.65 l 1
 757.4 -0.65 l 2
 670.65 -0.65 618.1 48.9 640.1 189.45 c 2
 676.6 419.3 l 1
 278.3 419.3 l 1
 242.35 419.3 234.25 400.85 231.25 382.4 c 10
 227.1 357.95 l 18
 220.5 319 243.65 323.5 262.85 323.5 c 2
 385.35 323.5 l 2
 486.65 323.5 519.2 252.45 506.65 175.25 c 1
 499.3 116.25 l 2
 485.05 6.7 407.5 -7.7 347.1 -7.7 c 3
 273.9 -7.7 88.9 -3.15 55.75 21.2 c 9
EndSplineSet
Ligature2: "'dlig' Discretionary Ligatures lookup 14-1" s t
EndChar

StartChar: t_t
Encoding: 462 -1 396
Width: 755
VWidth: 0
Flags: HW
LayerCount: 2
Fore
SplineSet
82.1 425 m 1
 94.4 503 l 1
 184.85 532 l 1
 231.9 680 l 1
 348.4 680 l 1
 324.85 532 l 1
 565.85 532 l 1
 612.9 680 l 1
 729.4 680 l 1
 705.85 532 l 1
 824.55 532 l 1
 807.6 425 l 1
 688.9 425 l 1
 655.7 212 l 2
 642.45 128.4 656.15 117.55 684.7 106.9 c 1
 684.7 106.9 739.45 87.25 743.75 87.25 c 1
 730.25 -0.1 l 1
 633.65 -0.1 l 2
 552.3 -0.1 489.85 49.45 511.85 190 c 2
 548.9 425 l 1
 307.9 425 l 1
 273.7 212 l 2
 260.45 128.4 274.7 117.55 303.25 106.9 c 1
 303.25 106.9 358 87.25 362.3 87.25 c 1
 348.8 -0.1 l 1
 252.2 -0.1 l 2
 170.85 -0.1 108.4 49.45 130.85 190 c 2
 167.9 425 l 1
 82.1 425 l 1
EndSplineSet
Ligature2: "'dlig' Discretionary Ligatures lookup 14-1" t t
EndChar

StartChar: f_t
Encoding: 463 -1 397
Width: 759
VWidth: 0
Flags: HW
LayerCount: 2
Fore
SplineSet
81.55 424 m 1
 96.05 514 l 1
 182.65 531 l 1
 198.2 630 l 2
 212.7 720.85 259.75 786 379.75 786 c 0
 428.75 786 468.3 780.2 509.25 762.45 c 1
 495.75 679.35 l 1
 495.2 679.35 401.15 679.9 401.15 679.9 c 2
 345.3 680.45 341.8 652.7 332.7 597 c 2
 322.65 532 l 1
 570.75 532 l 1
 617.25 680 l 1
 733.75 680 l 1
 710.75 532 l 1
 829.45 532 l 1
 812.5 425 l 1
 693.8 425 l 1
 660.95 212 l 2
 648.15 128.4 661.95 117.55 690.5 106.9 c 1
 690.5 106.9 745.15 87.25 749.45 87.25 c 1
 736.05 -0.1 l 1
 639.45 -0.1 l 2
 558.1 -0.1 496.1 49.45 517.65 190 c 2
 553.8 425 l 1
 304.8 425 l 1
 237.75 0 l 1
 97.75 0 l 1
 164.8 424 l 1
 81.55 424 l 1
EndSplineSet
Ligature2: "'dlig' Discretionary Ligatures lookup 14-1" f t
EndChar

StartChar: t_y
Encoding: 464 -1 398
Width: 941
VWidth: 0
Flags: HW
LayerCount: 2
Fore
SplineSet
82.1 425 m 1
 94.4 503 l 1
 184.85 532 l 1
 231.9 680 l 1
 348.4 680 l 1
 324.85 532 l 1
 470.75 532 l 1
 579.95 531.55 628.5 486.55 636.35 401.35 c 2
 662.4 160.35 l 2
 666.55 121.25 703.3 121.9 714.85 121.35 c 1
 850.8 421.45 l 2
 862.6 449 871.35 480.4 876.8 533.35 c 1
 1006.55 533.35 l 1
 1018.65 476.15 1000.55 417.2 982.25 375.75 c 1
 810.85 1.35 l 2
 706.1 -229.45 575.9 -273.05 495.15 -287.35 c 1
 495.15 -188.7 l 1
 584.4 -140.65 630.2 -71.75 667.2 0.9 c 1
 588.85 0.9 536.6 41.7 526.55 136.2 c 2
 496.75 359.55 l 2
 491.4 414.5 471.2 425 412.55 425 c 1
 307.9 425 l 1
 274.15 211.55 l 2
 260.9 127.95 275.15 117.1 303.7 106.45 c 2
 303.7 106.45 358.45 86.8 362.75 86.8 c 1
 349.25 -0.55 l 1
 252.65 -0.55 l 2
 171.3 -0.55 108.85 49 130.85 189.55 c 2
 167.9 425 l 1
 82.1 425 l 1
EndSplineSet
Ligature2: "'dlig' Discretionary Ligatures lookup 14-1" t y
EndChar

StartChar: f_y
Encoding: 465 -1 399
Width: 952
VWidth: 0
Flags: HW
LayerCount: 2
Fore
SplineSet
81.55 424 m 1
 96.05 514 l 1
 182.65 531 l 1
 198.2 630 l 2
 212.7 720.85 259.75 786 379.75 786 c 0
 428.75 786 468.3 780.2 509.25 762.45 c 1
 495.75 679.35 l 1
 495.2 679.35 401.15 679.9 401.15 679.9 c 2
 345.3 680.45 341.8 652.7 332.7 597 c 2
 322.65 531 l 1
 481.55 531 l 1
 593.5 531.55 642.5 484.3 650.35 399.55 c 2
 677.4 158.55 l 2
 682 119.45 721.35 120.1 730.15 119.55 c 1
 862.5 419.65 l 2
 873.85 447.2 882.6 478.6 888.05 531.55 c 1
 1017.8 531.55 l 1
 1029.9 474.35 1012.25 415.4 993.95 373.95 c 1
 822.1 -0.45 l 2
 717.35 -231.25 587.6 -274.85 506.85 -289.15 c 1
 506.85 -190.5 l 1
 596.1 -142.45 642.45 -73.55 679.45 -0.9 c 1
 604.4 -0.9 551.95 39.9 540.55 134.4 c 2
 511.2 357.75 l 2
 505.4 412.7 484.75 424.55 425.55 424 c 1
 304.8 424 l 1
 237.75 0 l 1
 97.75 0 l 1
 164.8 424 l 1
 81.55 424 l 1
EndSplineSet
Ligature2: "'dlig' Discretionary Ligatures lookup 14-1" f y
EndChar

StartChar: kgreenlandic
Encoding: 466 312 400
Width: 568
VWidth: 0
Flags: W
HStem: 0 21G<45.7 189.467 378.812 544.95> 0 21G<45.7 189.467 378.812 544.95> 209.5 107<236.45 283.7> 511 20G<126.536 270.25 455.569 637.1>
DStem2: 45.7 0 186.25 0 0.156249 0.987718<21.9608 234.153 342.417 537.603> 414.65 253.65 283.7 209.5 0.456936 -0.8895<0 213.833>
LayerCount: 2
Fore
SplineSet
45.7 0 m 1xb0
 129.7 531 l 1
 270.25 531 l 1
 236.45 316.5 l 1
 291.4 316.5 l 1
 472.45 531 l 1
 637.1 531 l 1
 414.65 253.65 l 1
 544.95 0 l 1
 388.85 0 l 1
 283.7 209.5 l 1
 219.95 209.5 l 9
 186.25 0 l 17
 45.7 0 l 1xb0
EndSplineSet
EndChar

StartChar: Tbar
Encoding: 472 358 406
Width: 599
VWidth: 0
Flags: HW
LayerCount: 2
Fore
SplineSet
121.95 603 m 1
 142.75 732 l 1
 683.75 732 l 1
 662.95 603 l 1
 459.45 603 l 1
 432.6 433 l 1
 530.6 433 l 1
 520.4 368 l 1
 422.4 368 l 1
 364.25 0 l 1
 224.25 0 l 1
 282.4 368 l 1
 184.4 368 l 1
 194.6 433 l 1
 292.6 433 l 1
 319.45 603 l 1
 121.95 603 l 1
EndSplineSet
Substitution2: "'c2sc' Capitals to Small Capitals in Latin lookup 17 subtable" tbar.smcp
EndChar

StartChar: gcommaaccent
Encoding: 477 291 411
Width: 603
VWidth: 0
Flags: HW
LayerCount: 2
Fore
SplineSet
32.5 -248 m 1
 47.1 -155 l 1
 272.1 -155 l 2
 322.4 -155 362.1 -124 372.1 -60 c 2
 387.6 37.25 l 1
 342.7 10.15 294.5 -0.75 249.5 -0.75 c 3
 93.35 -0.75 65.9 119.2 93.65 295.9 c 0
 122.3 475.45 207.7 540.3 326.85 540.3 c 3
 432.85 540.3 555.3 524.05 604.05 510.15 c 1
 511 -76.5 l 2
 489.35 -212.6 409.85 -286.6 270 -272 c 2
 32.5 -248 l 1
234.2 280.65 m 0
 219.8 187.1 207.65 109.1 287.55 109.1 c 3
 331.85 109.1 355.7 113.1 402.1 130.8 c 1
 450.55 433.3 l 2
 342.8 433.3 l 2
 262.75 433.3 242.85 333.9 234.2 280.65 c 0
333 624.7 m 2
 349.95 735.4 l 2
 366.15 835.7 476.65 804.85 476.65 804.85 c 1
 469.45 761 l 0
 442.45 762 439.45 747.4 438 737.95 c 2
 435.65 725.4 l 1
 445.65 725.4 l 2
 458.65 725.4 466.65 718.4 464.65 703.4 c 2
 452.7 624.7 l 2
 449.7 608.7 440.15 600.7 425.7 600.7 c 2
 350 600.7 l 2
 334 600.7 331 610.7 333 624.7 c 2
EndSplineSet
AlternateSubs2: "'salt' Access All Alternates in Latin lookup 4-1" gcommaaccent.salt
Substitution2: "'smcp' Lowercase to Small Capitals lookup 16-1" gcommaaccent.smcp
EndChar

StartChar: gcommaaccent.salt
Encoding: 478 -1 412
Width: 517
VWidth: 0
Flags: HW
LayerCount: 2
Fore
SplineSet
14.05 -105 m 0
 56.85 114 l 0
 61.85 150 83.85 200 133.85 200 c 1
 81.75 232.4 80.85 307.5 88.85 360.5 c 0
 110.5 499.3 199 535 298.85 533 c 2
 398.35 531 l 2
 466.35 530.45 564.95 491.05 540.35 327.5 c 0
 529.25 250.5 475.35 148 333.35 148 c 2
 241.35 148 l 2
 225.35 148 200.9 153 195.9 129.25 c 0
 191.35 107.65 212.55 103.05 233 99.5 c 2
 374.1 76.15 l 2
 441.55 63.3 510.75 18 495.55 -77.5 c 2
 488.35 -121.5 l 2
 475.7 -201.95 444.85 -270 297.85 -270 c 2
 175.35 -270 l 2
 42.55 -270 -4.95 -201 14.05 -105 c 0
155.6 -99.5 m 2
 146.2 -147.35 168.4 -154.5 204.4 -154.5 c 2
 293.9 -154.5 l 2
 333.65 -154.5 345.75 -136.05 350.55 -105 c 2
 353.35 -86.35 l 2
 358.7 -49.8 342.1 -38.35 305.4 -32 c 2
 173.05 -12 l 1
 155.6 -99.5 l 2
228.85 344 m 0
 220.85 295 222.9 256 277.35 256 c 2
 328.85 256 l 2
 379.65 256 394.9 308.2 400.35 344 c 0
 409.35 399 405.2 426 355.4 426 c 2
 303.9 426 l 2
 250.5 426 237.85 396 228.85 344 c 0
297.8 619.2 m 2
 315.2 729.9 l 2
 331.4 830.2 440.9 799.35 440.9 799.35 c 1
 434.7 755.5 l 0
 407.7 756.5 404.25 741.9 402.8 732.45 c 2
 400.9 719.9 l 1
 410.9 719.9 l 2
 423.9 719.9 431.9 712.9 429.9 697.9 c 2
 417.5 619.2 l 2
 414.5 603.2 405.4 595.2 390.95 595.2 c 2
 315.25 595.2 l 2
 299.25 595.2 295.8 605.2 297.8 619.2 c 2
EndSplineSet
EndChar

StartChar: tbar
Encoding: 479 359 413
Width: 371
VWidth: 0
Flags: HW
LayerCount: 2
Fore
SplineSet
65.15 257 m 1
 75.8 322 l 1
 146.35 322 l 1
 162.4 425 l 1
 76.6 425 l 1
 88.9 503 l 1
 179.35 532 l 1
 225.85 680 l 1
 342.35 680 l 1
 319.35 532 l 1
 438.05 532 l 1
 421.1 425 l 1
 302.4 425 l 1
 286.35 322 l 1
 368.8 322 l 1
 358.15 257 l 1
 275.7 257 l 1
 268.65 212 l 2
 255.4 128.4 269.65 117.55 298.2 106.9 c 1
 298.2 106.9 353.4 87.25 357.7 87.25 c 1
 343.75 -0.1 l 1
 247.15 -0.1 l 2
 165.8 -0.1 103.35 49.45 125.35 190 c 2
 135.7 257 l 1
 65.15 257 l 1
EndSplineSet
AlternateSubs2: "'salt' Access All Alternates in Latin lookup 4-1" tbar.salt
Substitution2: "'smcp' Lowercase to Small Capitals lookup 16-1" tbar.smcp
EndChar

StartChar: Eng
Encoding: 480 330 414
Width: 669
VWidth: 0
Flags: HW
LayerCount: 2
Fore
SplineSet
60.75 0 m 1
 176.75 732 l 1
 316.95 732 l 1
 525 259 l 1
 599.75 732 l 1
 739.75 732 l 1
 624.2 1.8 l 1
 612.4 -73 l 1
 584.55 -247.55 448.25 -264.15 330.25 -257 c 1
 346.4 -156 l 1
 401.9 -148.25 459.8 -150.4 473.3 -64.5 c 1
 484.2 2.7 l 1
 275.95 467.5 l 1
 201.75 0 l 1
 60.75 0 l 1
EndSplineSet
Substitution2: "'c2sc' Capitals to Small Capitals in Latin lookup 17 subtable" eng.smcp
EndChar

StartChar: eng
Encoding: 481 331 415
Width: 557
VWidth: 0
Flags: HW
LayerCount: 2
Fore
SplineSet
45.7 0 m 1
 129.7 531 l 1
 242.2 531 l 1
 260.8 474.5 l 1
 318.45 506.2 359.2 540 440.2 540 c 3
 563.8 540 585.15 454.7 568.95 353.5 c 2
 512.7 0 l 1
 501 -68 l 1
 472.1 -226.55 339.95 -260.1 273.7 -268 c 1
 250.25 -191.5 l 1
 301.85 -172.9 346 -156 361 -72 c 1
 372.7 0 l 1
 428.95 355.7 l 2
 437.3 408.5 417.05 427.5 382 427.5 c 3
 325.65 427.5 292.45 413 246.3 381.5 c 1
 185.7 0 l 1
 45.7 0 l 1
EndSplineSet
Substitution2: "'smcp' Lowercase to Small Capitals lookup 16-1" eng.smcp
EndChar

StartChar: exclam.smcp
Encoding: 502 -1 436
Width: 270
VWidth: 0
Flags: HW
LayerCount: 2
Fore
SplineSet
69.05 23 m 2
 83.55 113 l 2
 85.55 128 95.55 138 111.55 138 c 2
 199.55 138 l 2
 214.55 138 220.55 127 218.55 113 c 2
 204.05 23 l 2
 202.05 8 192.05 0 178.05 0 c 2
 90.05 0 l 2
 76.05 0 67.05 9 69.05 23 c 2
103.8 183.5 m 1
 153.1 570 l 1
 293.8 570 l 1
 217.3 183.5 l 1
 103.8 183.5 l 1
EndSplineSet
EndChar

StartChar: quotedbl.smcp
Encoding: 503 -1 437
Width: 443
VWidth: 0
Flags: HW
LayerCount: 2
Fore
SplineSet
139.15 399.7 m 1
 148.6 533.7 l 1
 159.6 600.7 l 1
 294.1 600.7 l 1
 283.1 533.7 l 1
 252.1 399.7 l 1
 139.15 399.7 l 1
318.7 399.7 m 1
 329.25 533.7 l 1
 340.25 600.7 l 1
 474.75 600.7 l 1
 463.75 533.7 l 1
 432.75 399.7 l 1
 318.7 399.7 l 1
EndSplineSet
EndChar

StartChar: numbersign.smcp
Encoding: 504 -1 438
Width: 609
VWidth: 0
Flags: HW
LayerCount: 2
Fore
SplineSet
38.2 150.9 m 1
 67.95 246.45 l 1
 188.2 246.45 l 1
 219.4 340.25 l 1
 98.25 340.25 l 1
 127.55 435.8 l 1
 249.15 435.8 l 1
 296.7 582.65 l 1
 392.7 582.65 l 1
 345.15 435.8 l 1
 441.1 435.8 l 1
 488.2 582.65 l 1
 584.2 582.65 l 1
 537.1 435.8 l 1
 664.65 435.8 l 1
 635.35 340.25 l 1
 507.35 340.25 l 1
 476.6 246.45 l 1
 603.95 245.9 l 1
 575.3 150.35 l 1
 446.3 150.35 l 1
 397.1 -0.45 l 1
 301.1 -0.45 l 1
 349.85 150.35 l 1
 254.35 150.9 l 1
 205.15 -0.45 l 1
 109.15 -0.45 l 1
 157.9 150.9 l 1
 38.2 150.9 l 1
284.65 246.45 m 1
 380.6 246.45 l 1
 410.9 340.25 l 1
 315.4 340.25 l 1
 284.65 246.45 l 1
EndSplineSet
EndChar

StartChar: dollar.smcp
Encoding: 505 -1 439
Width: 520
VWidth: 0
Flags: HW
LayerCount: 2
Fore
SplineSet
59.65 13.75 m 1
 75.25 113.2 l 1
 88.75 113.2 214.35 109.8 303.05 109.8 c 0
 330.75 109.8 358.6 122.6 363.55 152.75 c 1
 367.9 177.55 l 2
 373.15 210.3 356.4 220.95 324.2 220.95 c 2
 235 220.95 l 2
 107.3 220.95 84.4 309.65 96.7 388.55 c 2
 102.25 422.85 l 1
 119.4 531.55 189.05 572.35 295.4 573.9 c 1
 307.05 648.8 l 1
 395.25 648.8 l 1
 383.15 570.8 l 1
 435.75 566.8 502.85 558.9 543.4 552.05 c 1
 527.8 451.05 l 1
 527.8 451.05 369.75 456 307.05 456 c 1
 274.4 456 247.75 444.65 241.7 406.35 c 2
 238.35 385.8 l 1
 233.2 353.8 249.35 343.1 284.55 343.1 c 2
 382.4 343.1 l 2
 497.35 343.1 521.55 249.4 508.9 169.3 c 2
 503.45 135.7 l 2
 481.15 -4.65 404.85 -8.65 291.15 -8.65 c 1
 279.5 -80.55 l 1
 191.75 -80.55 l 1
 203.4 -5.2 l 1
 148.6 -1.3 78.1 5.7 59.65 13.75 c 1
EndSplineSet
EndChar

StartChar: percent.smcp
Encoding: 506 -1 440
Width: 956
VWidth: 0
Flags: HW
LayerCount: 2
Fore
SplineSet
75.9 357.4 m 2
 91.2 456.9 l 2
 104.2 541 136.9 581.9 242.4 581.9 c 2
 323.15 581.9 l 2
 415.75 581.9 452.4 533.6 438.95 445.9 c 2
 423.65 346.4 l 18
 410.2 257.8 376.45 221.4 274.1 221.4 c 2
 193.35 221.4 l 2
 105.7 221.4 63.35 272.85 75.9 357.4 c 2
176.65 368.4 m 2
 171.85 334.25 178.25 319.4 217.55 319.4 c 2
 270.8 319.4 l 2
 314.25 319.4 323.6 334.7 328.4 368.4 c 10
 338.75 434.9 l 2
 345.1 475.1 337.25 483.9 298.3 483.9 c 2
 245.05 483.9 l 2
 206.85 483.9 192.9 473.85 187 434.9 c 2
 176.65 368.4 l 2
275.8 0 m 1
 663.4 570 l 1
 764.1 570 l 1
 379.8 0 l 1
 275.8 0 l 1
607.95 136.45 m 2
 623.25 235.95 l 2
 636.25 320.05 668.4 360.95 773.9 360.95 c 2
 854.65 360.95 l 2
 947.25 360.95 984.45 312.65 971 224.95 c 2
 955.7 125.45 l 18
 942.7 36.85 908.5 0.45 806.15 0.45 c 2
 725.4 0.45 l 2
 637.75 0.45 595.4 51.9 607.95 136.45 c 2
708.7 147.45 m 2
 703.9 113.3 709.3 98.45 748.6 98.45 c 2
 801.85 98.45 l 2
 845.3 98.45 855.65 113.75 860.45 147.45 c 10
 870.25 213.95 l 2
 876.6 254.15 868.75 262.95 829.8 262.95 c 2
 776.55 262.95 l 2
 738.35 262.95 724.4 252.9 718.5 213.95 c 2
 708.7 147.45 l 2
EndSplineSet
EndChar

StartChar: ampersand.smcp
Encoding: 507 -1 441
Width: 578
VWidth: 0
Flags: HW
LayerCount: 2
Fore
SplineSet
70.35 79.65 m 0
 23.1 175.2 59.6 246.65 142.85 310.65 c 2
 203 356.2 l 1
 182.5 391.4 l 1
 132 478.6 199.15 561.7 268.1 570.1 c 0
 346.8 579.5 431.1 567.4 488.4 550.7 c 1
 472.8 453.7 l 1
 357.7 453.7 l 2
 314.8 453.7 297 434.65 318.25 398.6 c 2
 408.85 241.85 l 1
 522.3 321.4 l 1
 567.55 261.25 l 1
 500.9 168.2 l 1
 468.1 141.9 l 1
 554.75 0 l 1
 411.35 0 l 1
 369.75 68.1 l 1
 324.3 31.1 l 1
 265.2 -13.75 125.55 -33.55 70.35 79.65 c 0
183.85 140.65 m 0
 199.25 116.65 225.8 101.85 261.9 128.8 c 1
 309.85 167.3 l 1
 257.6 256 l 1
 206.4 219.3 l 18
 166.65 190.4 169.45 163.75 183.85 140.65 c 0
EndSplineSet
EndChar

StartChar: quotesingle.smcp
Encoding: 508 -1 442
Width: 263
VWidth: 0
Flags: HW
LayerCount: 2
Fore
SplineSet
138.6 399.7 m 1
 148.6 533.7 l 1
 159.6 600.7 l 1
 294.1 600.7 l 1
 283.1 533.7 l 1
 252.1 399.7 l 1
 138.6 399.7 l 1
EndSplineSet
EndChar

StartChar: asterisk.smcp
Encoding: 509 -1 443
Width: 426
VWidth: 0
Flags: HW
LayerCount: 2
Fore
SplineSet
100.8 399.75 m 1
 109.55 456.25 l 1
 252.45 479.75 l 1
 243.35 394.75 l 1
 100.8 399.75 l 1
133.9 249.95 m 1
 179.9 386.6 l 1
 259.8 365.75 l 1
 184.3 233 l 1
 133.9 249.95 l 1
237.65 300.4 m 1
 295.8 372.2 l 1
 393 281.85 l 1
 353.8 236.65 l 1
 237.65 300.4 l 1
253 553.5 m 1
 309.95 572.8 l 1
 358.15 450.4 l 1
 274.15 418.2 l 1
 253 553.5 l 1
303.35 405.2 m 1
 434.9 483.5 l 1
 458.8 436.4 l 1
 346.75 339.4 l 1
 303.35 405.2 l 1
EndSplineSet
EndChar

StartChar: zero.smcp
Encoding: 510 -1 444
Width: 565
VWidth: 0
Flags: HW
LayerCount: 2
Fore
SplineSet
77.95 173 m 10
 115.2 419 l 2
 132.1 532.35 211.45 570 312.75 570 c 2
 438.75 570 l 2
 577.9 570 587.7 458.95 577.45 397 c 1
 540.75 151 l 18
 523.4 32 450.8 0 347.75 0 c 2
 221.75 0 l 2
 130.75 0 58.95 53 77.95 173 c 10
220.7 191.7 m 2
 210.65 129.3 239.65 129 273.35 129 c 10
 336.65 129 l 18
 382.5 129 399.45 154.2 405.7 192.25 c 2
 434.7 373.35 l 2
 440.95 414.4 440.15 441 385.4 441 c 2
 322.1 441 l 2
 266.75 441 255.05 410 249.7 373.9 c 2
 220.7 191.7 l 2
EndSplineSet
EndChar

StartChar: one.smcp
Encoding: 511 -1 445
Width: 356
VWidth: 0
Flags: HW
LayerCount: 2
Fore
SplineSet
92.05 395.7 m 1
 106.1 487.2 l 1
 144.35 487.2 221.25 539.75 247.65 570 c 1
 385.65 570 l 1
 298.55 0 l 1
 158.55 0 l 1
 224.3 426.05 l 1
 193.45 401.55 135.25 395.7 92.05 395.7 c 1
EndSplineSet
EndChar

StartChar: two.smcp
Encoding: 512 -1 446
Width: 515
VWidth: 0
Flags: HW
LayerCount: 2
Fore
SplineSet
37.2 0 m 25
 57 123 l 17
 148.8 160 379.3 263.75 395.7 369.5 c 1
 404.4 424.35 387.45 445.85 299.7 445.85 c 2
 100.95 445.4 l 2
 117.65 548.1 l 1
 202.65 568.35 238.4 575.4 358.55 575.4 c 3
 507.8 575.4 555.75 484.8 537.8 362.8 c 1
 518 236.05 385.5 152.5 323.45 129 c 9
 498.25 129 l 25
 477.45 0 l 25
 37.2 0 l 25
EndSplineSet
EndChar

StartChar: three.smcp
Encoding: 513 -1 447
Width: 505
VWidth: 0
Flags: HW
LayerCount: 2
Fore
SplineSet
29.85 16 m 1
 46.1 121.25 l 1
 271.45 121.25 l 2
 300.35 121.25 328.55 127.05 334.15 163 c 2
 336.5 177.45 l 2
 342.65 215.6 321.7 222.45 289.05 223.45 c 2
 111.55 228.45 l 2
 129.15 340.2 l 1
 308.2 344.2 l 2
 348.45 345.2 366.05 351.95 371.75 388.95 c 2
 374.55 405.9 l 2
 381.6 441.7 363.95 446.75 325.2 446.75 c 2
 92.6 446.75 l 1
 109.85 551 l 1
 182.85 575 298.2 574.65 396.85 573 c 1
 481.6 571.35 531.3 507.65 517.85 423.5 c 2
 513.95 395 l 2
 504.95 338 488.95 295 436.2 280.85 c 1
 476.2 259.2 484.75 215 475.75 156 c 2
 472.85 135.5 l 2
 457.95 40.9 413.2 -2.7 300.85 -5 c 0
 211.3 -6.75 94.85 -8 29.85 16 c 1
EndSplineSet
EndChar

StartChar: four.smcp
Encoding: 514 -1 448
Width: 556
VWidth: 0
Flags: HW
LayerCount: 2
Fore
SplineSet
44.8 191.5 m 1
 292.35 570 l 1
 442.5 570 l 1
 236.2 249 l 1
 372.2 249 l 1
 392.05 370 l 1
 442.7 456 l 1
 545.7 456 l 1
 512.2 249 l 1
 580.2 249 l 1
 563.5 140.5 l 1
 492.5 121.5 l 1
 473.7 2 l 1
 333.7 2 l 1
 352.5 121.5 l 1
 75 121.5 l 1
 44.8 191.5 l 1
EndSplineSet
EndChar

StartChar: five.smcp
Encoding: 515 -1 449
Width: 529
VWidth: 0
Flags: HW
LayerCount: 2
Fore
SplineSet
60.85 23 m 1
 77.55 127.5 l 1
 311.9 127.5 l 2
 353.4 127.5 367.9 141.9 373.25 174.35 c 2
 377.85 204.75 l 2
 382.3 233 383.7 251 334 251 c 0
 269.5 251 l 2
 244.8 251 216.05 241 209.8 203.5 c 1
 90.3 203.5 l 1
 165.85 570 l 25
 549.95 570 l 1
 529.15 441 l 1
 265.55 441 l 25
 242.1 334 l 1
 263.85 354.55 291.6 360.25 316.4 362.05 c 1
 332.15 364.3 351 362.95 379 362.95 c 0
 497 362.95 531.7 292 517.3 198.5 c 2
 508.95 146.5 l 2
 490.4 28.55 419.05 0 321.45 -1 c 0
 222 -2 139.85 0 60.85 23 c 1
EndSplineSet
EndChar

